<svg width="44" height="44" viewBox="0 0 44 44" fill="none" xmlns="http://www.w3.org/2000/svg">
<path d="M20.5215 0.611328L23.4785 0.611328C27.6893 0.611332 31.0313 0.837765 33.6816 1.42676C36.3251 2.01423 38.243 2.95392 39.6445 4.35547C41.0461 5.75702 41.9858 7.67495 42.5732 10.3184C43.1622 12.9687 43.3887 16.3107 43.3887 20.5215V23.4785C43.3887 27.6893 43.1622 31.0313 42.5732 33.6816C41.9858 36.3251 41.0461 38.243 39.6445 39.6445C38.243 41.0461 36.3251 41.9858 33.6816 42.5732C31.0313 43.1622 27.6893 43.3887 23.4785 43.3887H20.5215C16.3107 43.3887 12.9687 43.1622 10.3184 42.5732C7.67495 41.9858 5.75702 41.0461 4.35547 39.6445C2.95392 38.243 2.01423 36.3251 1.42676 33.6816C0.837765 31.0313 0.611332 27.6893 0.611328 23.4785L0.611328 20.5215C0.611332 16.3107 0.837765 12.9687 1.42676 10.3184C2.01423 7.67495 2.95392 5.75702 4.35547 4.35547C5.75702 2.95392 7.67495 2.01423 10.3184 1.42676C12.9687 0.837765 16.3107 0.611332 20.5215 0.611328Z" stroke="white" stroke-width="1.22222"/>
<mask id="mask0_132_1450" style="mask-type:alpha" maskUnits="userSpaceOnUse" x="8" y="9" width="28" height="27">
<rect x="8.5" y="9" width="26.8889" height="26.8889" fill="#D9D9D9"/>
</mask>
<g mask="url(#mask0_132_1450)">
<path d="M29.8426 33.2L26.5655 29.9509L24.1007 32.4157L23.3164 31.6314C22.8869 31.202 22.6722 30.6698 22.6722 30.0349C22.6722 29.4 22.8869 28.8679 23.3164 28.4384L28.05 23.7048C28.4794 23.2753 29.0116 23.0606 29.6465 23.0606C30.2814 23.0606 30.8135 23.2753 31.243 23.7048L32.0273 24.4891L29.5625 26.9539L32.8115 30.231C33.0356 30.4551 33.1476 30.7165 33.1476 31.0152C33.1476 31.314 33.0356 31.5754 32.8115 31.7995L31.4111 33.2C31.187 33.424 30.9256 33.5361 30.6268 33.5361C30.328 33.5361 30.0666 33.424 29.8426 33.2ZM33.1476 15.6101L20.4314 28.3263L20.5715 28.4384C21.001 28.8679 21.2157 29.4 21.2157 30.0349C21.2157 30.6698 21.001 31.202 20.5715 31.6314L19.7872 32.4157L17.3224 29.9509L14.0453 33.2C13.8213 33.424 13.5598 33.5361 13.2611 33.5361C12.9623 33.5361 12.7009 33.424 12.4768 33.2L11.0763 31.7995C10.8523 31.5754 10.7402 31.314 10.7402 31.0152C10.7402 30.7165 10.8523 30.4551 11.0763 30.231L14.3254 26.9539L11.8606 24.4891L12.6449 23.7048C13.0743 23.2753 13.6065 23.0606 14.2414 23.0606C14.8763 23.0606 15.4084 23.2753 15.8379 23.7048L15.95 23.8449L28.6662 11.1287H33.1476V15.6101ZM16.2861 21.156L10.7402 15.6101V11.1287H15.2217L20.7676 16.6745L16.2861 21.156Z" fill="white"/>
</g>
</svg>
