<svg width="44" height="44" viewBox="0 0 44 44" fill="none" xmlns="http://www.w3.org/2000/svg">
<path d="M20.5215 0.611328L23.4785 0.611328C27.6893 0.611332 31.0313 0.837765 33.6816 1.42676C36.3251 2.01423 38.243 2.95392 39.6445 4.35547C41.0461 5.75702 41.9858 7.67495 42.5732 10.3184C43.1622 12.9687 43.3887 16.3107 43.3887 20.5215V23.4785C43.3887 27.6893 43.1622 31.0313 42.5732 33.6816C41.9858 36.3251 41.0461 38.243 39.6445 39.6445C38.243 41.0461 36.3251 41.9858 33.6816 42.5732C31.0313 43.1622 27.6893 43.3887 23.4785 43.3887H20.5215C16.3107 43.3887 12.9687 43.1622 10.3184 42.5732C7.67495 41.9858 5.75702 41.0461 4.35547 39.6445C2.95392 38.243 2.01423 36.3251 1.42676 33.6816C0.837765 31.0313 0.611332 27.6893 0.611328 23.4785L0.611328 20.5215C0.611332 16.3107 0.837765 12.9687 1.42676 10.3184C2.01423 7.67495 2.95392 5.75702 4.35547 4.35547C5.75702 2.95392 7.67495 2.01423 10.3184 1.42676C12.9687 0.837765 16.3107 0.611332 20.5215 0.611328Z" stroke="white" stroke-width="1.22222"/>
<mask id="mask0_132_1408" style="mask-type:alpha" maskUnits="userSpaceOnUse" x="9" y="8" width="27" height="28">
<rect x="9" y="8.99988" width="26.8889" height="26.8889" fill="#D9D9D9"/>
</mask>
<g mask="url(#mask0_132_1408)">
<path d="M21.3236 30.287C19.4563 30.287 17.8691 29.6334 16.562 28.3263C15.2549 27.0192 14.6013 25.432 14.6013 23.5648C14.6013 23.3594 14.6107 23.154 14.6294 22.9485C14.648 22.7431 14.676 22.5377 14.7134 22.3323C14.62 22.3697 14.508 22.3977 14.3773 22.4164C14.2466 22.435 14.1345 22.4444 14.0412 22.4444C13.2569 22.4444 12.594 22.1736 12.0525 21.6321C11.511 21.0906 11.2402 20.4277 11.2402 19.6435C11.2402 18.8592 11.497 18.1963 12.0105 17.6548C12.524 17.1133 13.1729 16.8425 13.9571 16.8425C14.5733 16.8425 15.1289 17.0153 15.6237 17.3607C16.1185 17.7061 16.4686 18.1496 16.674 18.6911C17.2902 18.131 17.9951 17.6828 18.7887 17.3467C19.5823 17.0106 20.4273 16.8425 21.3236 16.8425H33.6476V21.324H28.0458V23.5648C28.0458 25.432 27.3922 27.0192 26.0851 28.3263C24.778 29.6334 23.1909 30.287 21.3236 30.287ZM14.8394 20.4417C15.0542 20.227 15.1615 19.9609 15.1615 19.6435C15.1615 19.326 15.0542 19.0599 14.8394 18.8452C14.6247 18.6305 14.3586 18.5231 14.0412 18.5231C13.7237 18.5231 13.4576 18.6305 13.2429 18.8452C13.0282 19.0599 12.9208 19.326 12.9208 19.6435C12.9208 19.9609 13.0282 20.227 13.2429 20.4417C13.4576 20.6565 13.7237 20.7638 14.0412 20.7638C14.3586 20.7638 14.6247 20.6565 14.8394 20.4417ZM22.9061 25.1473C23.3449 24.7085 23.5643 24.181 23.5643 23.5648C23.5643 22.9485 23.3449 22.421 22.9061 21.9822C22.4673 21.5434 21.9398 21.324 21.3236 21.324C20.7074 21.324 20.1799 21.5434 19.741 21.9822C19.3022 22.421 19.0828 22.9485 19.0828 23.5648C19.0828 24.181 19.3022 24.7085 19.741 25.1473C20.1799 25.5861 20.7074 25.8055 21.3236 25.8055C21.9398 25.8055 22.4673 25.5861 22.9061 25.1473Z" fill="white"/>
</g>
</svg>
