<svg width="44" height="44" viewBox="0 0 44 44" fill="none" xmlns="http://www.w3.org/2000/svg">
<path d="M20.5215 0.611328L23.4785 0.611328C27.6893 0.611332 31.0313 0.837765 33.6816 1.42676C36.3251 2.01423 38.243 2.95392 39.6445 4.35547C41.0461 5.75702 41.9858 7.67495 42.5732 10.3184C43.1622 12.9687 43.3887 16.3107 43.3887 20.5215V23.4785C43.3887 27.6893 43.1622 31.0313 42.5732 33.6816C41.9858 36.3251 41.0461 38.243 39.6445 39.6445C38.243 41.0461 36.3251 41.9858 33.6816 42.5732C31.0313 43.1622 27.6893 43.3887 23.4785 43.3887H20.5215C16.3107 43.3887 12.9687 43.1622 10.3184 42.5732C7.67495 41.9858 5.75702 41.0461 4.35547 39.6445C2.95392 38.243 2.01423 36.3251 1.42676 33.6816C0.837765 31.0313 0.611332 27.6893 0.611328 23.4785L0.611328 20.5215C0.611332 16.3107 0.837765 12.9687 1.42676 10.3184C2.01423 7.67495 2.95392 5.75702 4.35547 4.35547C5.75702 2.95392 7.67495 2.01423 10.3184 1.42676C12.9687 0.837765 16.3107 0.611332 20.5215 0.611328Z" stroke="white" stroke-width="1.22222"/>
<path d="M19.975 11.298C20.018 9.90437 21.1451 8.79911 22.4979 8.82314C23.8886 8.84789 25.0404 10.0005 24.9975 11.354C24.9509 12.8211 23.8333 13.847 22.4571 13.8376C21.0526 13.8281 19.9335 12.653 19.9758 11.298H19.975Z" fill="white"/>
<path d="M32.1748 7.31725C32.6197 6.8702 32.6218 6.87138 32.833 7.47643C32.9436 7.79286 32.9986 7.818 33.3262 7.70299C33.9057 7.49915 33.9117 7.50367 33.8564 8.11217C33.8222 8.48706 33.8519 8.52304 34.2324 8.55944C34.7967 8.61332 34.8114 8.64556 34.5019 9.12975C34.2954 9.45267 34.3056 9.50154 34.624 9.69713C34.6815 9.73281 34.741 9.76742 34.7978 9.80456C35.0605 9.97705 35.0713 10.0897 34.8057 10.2411C34.2429 10.5614 34.2729 10.5842 34.6055 11.0878C34.7787 11.3513 34.7274 11.4442 34.418 11.4784C34.3992 11.4805 34.3798 11.4809 34.3603 11.4823C33.9979 11.5182 33.8328 11.7161 33.8662 12.0751C33.9055 12.4995 33.8528 12.5403 33.4443 12.3954C33.1235 12.2813 32.907 12.3851 32.7959 12.7059C32.6488 13.1296 32.5811 13.1449 32.2637 12.826C31.9085 12.468 31.8922 12.4661 31.5996 12.7616C31.1949 13.1707 31.1803 13.1684 30.9795 12.6249C30.9664 12.5892 30.9451 12.5567 30.916 12.4999C29.141 13.7549 27.373 15.0045 25.5976 16.2596L24.9072 16.7206V20.0516C24.9948 20.3328 25.1481 20.7455 25.3203 21.0614C25.3598 21.1662 25.4024 21.2713 25.4482 21.3758C25.9724 22.5705 26.4233 23.798 26.9053 25.0116C27.1273 25.5706 27.0144 25.793 26.4394 25.9393C26.1505 26.0128 25.7449 26.0085 25.6064 26.1962C25.4557 26.4008 25.5439 26.7876 25.5439 27.0956C25.5417 29.7399 25.5243 32.3849 25.5527 35.0292C25.5622 35.8949 25.2694 36.4883 24.4248 36.7635H23.9014C23.0575 36.4869 22.7669 35.8915 22.7764 35.0272C22.8047 32.4119 22.7861 29.7956 22.7861 27.1796V26.8339H22.1894V35.161C22.1894 35.5454 22.1713 35.9458 21.8808 36.2196C21.6428 36.4438 21.3269 36.5861 21.0459 36.7645H20.5224C20.3514 36.6794 20.166 36.6142 20.0117 36.5057C19.5697 36.1948 19.4155 35.7475 19.417 35.2196C19.4221 32.3234 19.4189 29.4271 19.4189 26.5301V26.161C19.0907 26.0788 18.7731 26.0028 18.458 25.9198C17.9709 25.7916 17.849 25.5508 18.0361 25.079C18.6033 23.6498 19.1673 22.2186 19.7461 20.7938C19.7605 20.7583 19.7718 20.7219 19.7851 20.6864C19.8815 20.4607 19.965 20.2299 20.0205 20.0516V16.7206L19.4599 16.3475C17.6622 15.0759 15.8754 13.8111 14.0908 12.5487C14.0589 12.5828 14.0397 12.5945 14.0332 12.6112C13.8837 12.981 13.6643 13.0211 13.375 12.7313C13.1336 12.4892 13.0762 12.4891 12.834 12.7313C12.5332 13.0321 12.3131 12.9823 12.1738 12.5819C12.0624 12.2615 12.0049 12.2337 11.6846 12.3465C11.1029 12.5518 11.0941 12.5454 11.1494 11.9462C11.185 11.5629 11.1713 11.5479 10.7783 11.4969C10.1944 11.4219 10.1926 11.4174 10.5166 10.9042C10.7081 10.6005 10.6949 10.55 10.3848 10.3592C9.87029 10.0427 9.87062 10.0111 10.3926 9.68932C10.6961 9.50227 10.7068 9.44941 10.5117 9.14147C10.5067 9.13356 10.5011 9.12494 10.4961 9.11706C10.1964 8.64853 10.2156 8.60917 10.7568 8.56041C11.1557 8.52475 11.1841 8.49096 11.1484 8.09948C11.1477 8.09004 11.1472 8.07962 11.1465 8.07018C11.0962 7.5184 11.1162 7.50208 11.6357 7.68834C12.0135 7.82373 12.0616 7.80207 12.1846 7.43541C12.1904 7.41721 12.1934 7.39698 12.1992 7.37877C12.3564 6.91155 12.4171 6.89674 12.7578 7.24108C12.9898 7.47596 13.2226 7.47441 13.458 7.2362C13.506 7.18814 13.554 7.13924 13.6035 7.09264C13.7503 6.95615 13.8565 6.99044 13.9365 7.16686C14.0268 7.36412 14.0772 7.64649 14.2314 7.72741C14.369 7.79949 14.6259 7.65043 14.8291 7.59655C15.0218 7.54498 15.1029 7.62162 15.0986 7.81432C15.0943 8.0313 15.017 8.30807 15.1211 8.44713C15.2143 8.57082 15.511 8.53993 15.7178 8.58288C15.904 8.62143 15.9595 8.71801 15.8594 8.89538C15.756 9.07736 15.5662 9.28892 15.5996 9.44909C15.6323 9.60557 15.8938 9.71987 16.0635 9.84069C16.255 9.97684 16.2469 10.0948 16.0547 10.2157C15.9397 10.2877 15.8235 10.3573 15.7099 10.4315C15.5084 10.5647 15.5373 10.7113 15.6914 10.8583C15.7329 10.8983 15.7857 10.9273 15.833 10.9608C17.4238 12.0857 19.0137 13.2131 20.6103 14.3299C20.742 14.4216 20.9249 14.481 21.0849 14.4833C22.0162 14.4971 22.9496 14.4959 23.8808 14.4842C24.0241 14.4827 24.1876 14.4316 24.3047 14.3495C25.9478 13.1977 27.5855 12.0378 29.2236 10.8788C29.5213 10.6684 29.5183 10.5703 29.2129 10.3768C28.6617 10.0281 28.657 10.0209 29.2285 9.67077C29.4578 9.53029 29.4857 9.38863 29.3301 9.1776C28.926 8.62789 29.0723 8.5669 29.6191 8.5487C29.9506 8.53773 29.988 8.46319 29.9502 8.11998C29.8817 7.49748 29.8845 7.48901 30.4873 7.71178C30.7435 7.80641 30.8762 7.76002 30.9629 7.48717C31.1609 6.8661 31.1756 6.86881 31.6357 7.32897C31.8766 7.56981 31.9245 7.56827 32.1748 7.31725Z" fill="white"/>
</svg>
