<svg width="44" height="44" viewBox="0 0 44 44" fill="none" xmlns="http://www.w3.org/2000/svg">
<path d="M20.5215 0.611328L23.4785 0.611328C27.6893 0.611332 31.0313 0.837765 33.6816 1.42676C36.3251 2.01423 38.243 2.95392 39.6445 4.35547C41.0461 5.75702 41.9858 7.67495 42.5732 10.3184C43.1622 12.9687 43.3887 16.3107 43.3887 20.5215V23.4785C43.3887 27.6893 43.1622 31.0313 42.5732 33.6816C41.9858 36.3251 41.0461 38.243 39.6445 39.6445C38.243 41.0461 36.3251 41.9858 33.6816 42.5732C31.0313 43.1622 27.6893 43.3887 23.4785 43.3887H20.5215C16.3107 43.3887 12.9687 43.1622 10.3184 42.5732C7.67495 41.9858 5.75702 41.0461 4.35547 39.6445C2.95392 38.243 2.01423 36.3251 1.42676 33.6816C0.837765 31.0313 0.611332 27.6893 0.611328 23.4785L0.611328 20.5215C0.611332 16.3107 0.837765 12.9687 1.42676 10.3184C2.01423 7.67495 2.95392 5.75702 4.35547 4.35547C5.75702 2.95392 7.67495 2.01423 10.3184 1.42676C12.9687 0.837765 16.3107 0.611332 20.5215 0.611328Z" stroke="white" stroke-width="1.22222"/>
<path d="M36.9516 32.5725C36.7967 32.642 36.6419 32.7697 36.4862 32.7712C34.7713 32.7856 33.0563 32.7803 31.3406 32.7795C31.2763 32.7795 31.2121 32.7675 31.1517 32.7614C30.9734 31.6856 30.8495 31.5352 29.9965 31.3932C29.9965 31.1507 29.9988 30.8999 29.9965 30.6491C29.989 30.0273 29.5765 29.6012 28.9562 29.5785C28.7507 29.571 28.5445 29.577 28.3201 29.577V29.2612H29.6044V15.9358H27.9831V16.9044C28.0285 16.9157 28.0882 16.9293 28.1478 16.9452C28.5966 17.0645 28.8897 17.4173 28.9132 17.8835C28.9237 18.0905 28.9215 18.299 28.9147 18.5068C28.9056 18.7802 28.784 18.9079 28.5135 18.9109C27.9106 18.9177 27.307 18.9162 26.7041 18.9109C26.4563 18.9087 26.3203 18.778 26.3195 18.5226C26.3195 18.3813 26.3195 18.2393 26.3195 18.098C26.3195 17.3781 26.5651 17.0668 27.2707 16.9044V15.9351H22.8269V16.89C23.6489 17.1378 24.0183 17.82 23.7494 18.6465C23.7123 18.7614 23.5227 18.8951 23.3988 18.9004C22.7876 18.9268 22.1742 18.9155 21.5614 18.9109C21.3121 18.9087 21.1807 18.7719 21.1769 18.5204C21.1746 18.3693 21.1761 18.2182 21.1769 18.0671C21.1784 17.3894 21.4421 17.0577 22.113 16.9081V15.9388H17.6835V16.8915C18.4987 17.1416 18.847 17.7838 18.5961 18.6307C18.5614 18.7478 18.3786 18.8943 18.2584 18.8996C17.6374 18.9268 17.0149 18.917 16.3931 18.9102C16.1597 18.9079 16.0275 18.7787 16.0259 18.5362C16.0244 18.3761 16.0252 18.2151 16.0259 18.055C16.0275 17.3788 16.2987 17.0464 16.9907 16.9096C16.9907 16.7593 16.9907 16.6022 16.9907 16.4443C16.9907 16.2864 16.9907 16.1239 16.9907 15.9403H15.3468V29.2506H17.0859V29.5732C16.5903 29.6004 16.0569 29.4841 15.6656 29.9313C15.2848 30.3665 15.4608 30.9021 15.3989 31.3872C14.4938 31.5806 14.4054 31.6863 14.2483 32.7705C14.1606 32.7743 14.0685 32.7818 13.9763 32.7818C12.1669 32.7818 10.3575 32.7826 8.54807 32.7818C8.08797 32.7818 8.00109 32.6949 8.00034 32.2409C8.00034 31.4098 7.99958 30.5788 8.00034 29.7477C8.00034 29.3624 8.09628 29.2665 8.48687 29.2642C8.91902 29.2612 9.35116 29.2642 9.81125 29.2642C9.8173 29.1403 9.82712 29.0406 9.82712 28.9416C9.82712 23.9939 9.83316 19.0462 9.8173 14.0985C9.81579 13.7124 9.92836 13.4948 10.2419 13.2727C11.6494 12.2762 13.0357 11.2487 14.4235 10.2243C14.623 10.077 14.8217 10.0014 15.0718 10.0059C15.788 10.018 16.5042 10.0105 17.2204 10.0105H17.5369V14.0856H15.3483V15.2226H29.6059V14.0985H27.3735V10.0067C27.7142 10.0067 28.0504 10.0067 28.3866 10.0067C28.8391 10.0067 29.2917 10.0226 29.7434 10.0014C30.0449 9.98706 30.2821 10.083 30.5224 10.2568C31.9865 11.319 33.4612 12.3676 34.9246 13.4321C35.0228 13.5031 35.1127 13.661 35.1135 13.7796C35.1263 15.5346 35.1279 17.2889 35.1241 19.0439C35.1203 20.6576 35.1044 22.2714 35.1007 23.8859C35.0961 25.622 35.1007 27.3574 35.1007 29.0935C35.1007 29.1305 35.1075 29.1683 35.1158 29.262C35.3152 29.262 35.5169 29.262 35.7179 29.262C35.9627 29.262 36.2112 29.2378 36.4522 29.2703C36.6245 29.2937 36.7869 29.3919 36.9531 29.4569V32.5733L36.9516 32.5725ZM12.5786 26.4621C13.2389 25.7346 13.8751 25.0335 14.5202 24.3218C13.8645 23.6018 13.2268 22.9015 12.5718 22.183C11.9161 22.9045 11.2792 23.6048 10.6257 24.3241C11.2754 25.0357 11.9145 25.7361 12.5779 26.4629L12.5786 26.4621ZM12.5877 16.896C11.9229 17.6274 11.2852 18.3277 10.6393 19.0386C11.2928 19.7556 11.9304 20.4544 12.5824 21.1706C13.2442 20.4416 13.8811 19.7405 14.5278 19.028C13.8766 18.3126 13.245 17.6183 12.5877 16.896ZM30.4226 19.028C31.0746 19.7458 31.7108 20.4461 32.3665 21.1684C33.0238 20.4438 33.6584 19.7443 34.3013 19.0356C33.6441 18.3134 33.0072 17.613 32.3597 16.9006C31.7009 17.6243 31.0686 18.3186 30.4234 19.028H30.4226ZM32.365 22.1898C31.7077 22.9136 31.0761 23.6109 30.4294 24.3233C31.0754 25.0342 31.7108 25.7346 32.365 26.4538C33.0208 25.7315 33.6569 25.0312 34.3006 24.3218C33.6524 23.6079 33.0208 22.9113 32.3658 22.1898H32.365ZM10.5184 28.7309C11.082 28.1106 11.6003 27.5387 12.1246 26.9607C11.5852 26.3677 11.0722 25.8033 10.5184 25.1936V28.7309ZM13.0334 26.9622C13.5698 27.5485 14.0828 28.1091 14.6268 28.7029V25.2087C14.0768 25.8139 13.5668 26.376 13.0334 26.9622ZM10.5214 18.1464C11.0812 17.5314 11.5965 16.9656 12.1231 16.3876C11.5957 15.8089 11.0805 15.243 10.5214 14.6296V18.1464ZM14.6336 19.9173C14.0753 20.5307 13.5608 21.0958 13.0357 21.673C13.563 22.2502 14.0768 22.8123 14.6336 23.422V19.9173ZM12.1178 21.6798C11.5821 21.0928 11.0722 20.5337 10.5297 19.9392V23.4296C11.0782 22.8252 11.5889 22.2623 12.1178 21.6798ZM10.9619 14.1136C11.5247 14.73 12.0475 15.3027 12.5801 15.8867C13.1256 15.2868 13.6416 14.7187 14.1916 14.1136H10.9619ZM30.3274 19.9452V23.4152C30.8774 22.8078 31.3859 22.2465 31.9004 21.6776C31.3723 21.0958 30.8684 20.5405 30.3274 19.9452ZM31.9011 26.9645C31.3708 26.3805 30.8661 25.8252 30.3252 25.2299V28.6991C30.8706 28.0985 31.3753 27.5425 31.9011 26.9645ZM14.629 18.1366V14.6553C14.0768 15.2612 13.5661 15.8217 13.0433 16.3959C13.5645 16.9678 14.0753 17.5284 14.629 18.1366ZM32.365 15.8852C32.9082 15.2853 33.4265 14.7134 33.9704 14.1128H30.7573C31.3066 14.7187 31.8226 15.2868 32.365 15.8852ZM30.3169 18.1403C30.8722 17.5284 31.3836 16.9648 31.9019 16.3936C31.37 15.8096 30.8638 15.2536 30.3169 14.6522V18.1396V18.1403ZM14.1788 29.228C13.622 28.6145 13.1075 28.0471 12.5779 27.4639C12.0415 28.0547 11.5277 28.6221 10.9777 29.228H14.178H14.1788ZM33.9553 29.2257C33.4 28.6145 32.8893 28.0539 32.3635 27.476C31.8301 28.063 31.3179 28.6274 30.7747 29.2257H33.9553ZM32.8236 16.3914C33.3532 16.9724 33.8609 17.5299 34.395 18.1154V14.6658C33.8518 15.2627 33.3456 15.818 32.8236 16.3906V16.3914ZM34.3965 28.6916V25.2367C33.8496 25.8396 33.3411 26.4002 32.8289 26.9653C33.3555 27.5447 33.8548 28.0955 34.3965 28.6916ZM34.4018 23.4114V19.9467C33.8518 20.5526 33.3456 21.1102 32.8296 21.6791C33.3524 22.2548 33.8556 22.8093 34.4018 23.4114Z" fill="white"/>
<path d="M22.6866 34.6124C20.2841 34.6124 17.8816 34.6124 15.4792 34.6124C15.0372 34.6124 14.9526 34.527 14.9518 34.085C14.9518 33.5849 14.9503 33.0847 14.9518 32.5839C14.9526 32.197 15.0463 32.1019 15.4376 32.1011C17.3218 32.0996 19.206 32.1011 21.0902 32.1003C24.011 32.1003 26.9317 32.1003 29.8524 32.1003C30.3753 32.1003 30.441 32.1653 30.441 32.6836C30.441 33.1648 30.4425 33.6461 30.441 34.1281C30.4395 34.5051 30.3314 34.6116 29.9507 34.6116C27.5293 34.6116 25.1079 34.6116 22.6866 34.6116V34.6124Z" fill="white"/>
<path d="M16.0874 31.3984C16.0874 31.1249 16.0836 30.8801 16.0882 30.6354C16.0927 30.3959 16.2279 30.2758 16.4599 30.2584C16.5347 30.2531 16.6102 30.2561 16.6858 30.2561C20.6997 30.2561 24.7144 30.2561 28.7283 30.2561C29.2421 30.2561 29.3184 30.3317 29.3184 30.8401C29.3184 31.0192 29.3184 31.1975 29.3184 31.3984H16.0874Z" fill="white"/>
<path d="M27.6208 29.5649H17.7865C17.7865 29.2741 17.7586 28.9907 17.8001 28.7173C17.8168 28.6062 17.9724 28.4989 18.0887 28.4279C18.1582 28.3848 18.2723 28.412 18.366 28.412C21.258 28.412 24.1493 28.412 27.0413 28.412C27.5649 28.412 27.6208 28.4695 27.6208 29.0013C27.6208 29.1796 27.6208 29.3572 27.6208 29.5657V29.5649Z" fill="white"/>
<path d="M20.5592 14.0765H18.252V10.0233H20.5592V14.0765Z" fill="white"/>
<path d="M23.618 14.0689H21.2812V10.0255H23.618V14.0689Z" fill="white"/>
<path d="M24.3379 10.0211H26.6489V14.0713H24.3379V10.0211Z" fill="white"/>
</svg>
