<svg width="44" height="44" viewBox="0 0 44 44" fill="none" xmlns="http://www.w3.org/2000/svg">
<path d="M20.5215 0.611328L23.4785 0.611328C27.6893 0.611332 31.0313 0.837765 33.6816 1.42676C36.3251 2.01423 38.243 2.95392 39.6445 4.35547C41.0461 5.75702 41.9858 7.67495 42.5732 10.3184C43.1622 12.9687 43.3887 16.3107 43.3887 20.5215V23.4785C43.3887 27.6893 43.1622 31.0313 42.5732 33.6816C41.9858 36.3251 41.0461 38.243 39.6445 39.6445C38.243 41.0461 36.3251 41.9858 33.6816 42.5732C31.0313 43.1622 27.6893 43.3887 23.4785 43.3887H20.5215C16.3107 43.3887 12.9687 43.1622 10.3184 42.5732C7.67495 41.9858 5.75702 41.0461 4.35547 39.6445C2.95392 38.243 2.01423 36.3251 1.42676 33.6816C0.837765 31.0313 0.611332 27.6893 0.611328 23.4785L0.611328 20.5215C0.611332 16.3107 0.837765 12.9687 1.42676 10.3184C2.01423 7.67495 2.95392 5.75702 4.35547 4.35547C5.75702 2.95392 7.67495 2.01423 10.3184 1.42676C12.9687 0.837765 16.3107 0.611332 20.5215 0.611328Z" stroke="white" stroke-width="1.22222"/>
<path d="M13.6554 36.8043C13.387 36.6876 13.0895 36.6117 12.8503 36.4542C12.0685 35.9467 11.8118 35.1357 12.1385 34.2198C12.7336 32.5455 13.3053 30.8653 13.9704 29.2201C14.6238 27.5924 15.3706 25.9997 16.0823 24.3954C16.7474 22.9019 17.4124 21.4084 18.0892 19.9149C18.8418 18.258 19.7285 16.6828 20.6911 15.1427C21.5254 13.8184 22.3713 12.5057 23.509 11.4089C25.3642 9.62955 27.5753 8.58526 30.0955 8.16522C30.4631 8.10688 30.8306 8.05437 31.1982 8.01353C31.8341 7.94353 32.3533 8.14188 32.7092 8.68444C33.065 9.227 33.1059 9.7929 32.7675 10.3588C32.5575 10.7088 32.1841 10.7905 31.8107 10.8313C30.4689 10.9655 29.1621 11.2572 27.9253 11.8173C26.461 12.4824 25.2475 13.4625 24.3141 14.7693C24.1857 14.9501 24.0924 15.1485 23.9757 15.3527C24.3024 15.6561 24.6524 15.9303 24.9441 16.257C25.23 16.5895 25.4517 16.9745 25.7025 17.3362C25.7726 17.4354 25.8426 17.5288 25.9184 17.6163C26.426 18.1822 26.9802 18.7072 27.4352 19.314C28.1236 20.2416 28.6137 21.28 28.8179 22.4293C28.9754 23.3278 28.6312 24.1328 27.5111 24.3429C25.8017 24.6579 24.0924 24.9846 22.383 25.2996C22.103 25.3521 21.8171 25.3463 21.4729 25.3696C21.5021 25.4747 21.5137 25.5913 21.5604 25.6964C21.9805 26.6356 22.4005 27.5691 22.8322 28.5025C23.5731 30.1068 24.3257 31.7054 25.0666 33.3097C25.2942 33.7998 25.5509 34.2898 25.4692 34.8674C25.3117 35.9467 24.104 36.7401 23.1181 36.4075C22.698 36.2617 22.4122 35.9642 22.2313 35.5733C21.2045 33.3855 20.1894 31.1978 19.1743 29.0042C18.9526 28.52 18.7543 28.0299 18.5151 27.4757C18.3109 27.9424 18.1184 28.345 17.955 28.7534C17.3658 30.2527 16.7707 31.7462 16.199 33.2514C15.9248 33.9689 15.6798 34.6982 15.4522 35.4274C15.248 36.0867 14.9097 36.5942 14.2154 36.7926H13.6612L13.6554 36.8043ZM24.4657 20.1366C23.8998 20.8833 23.3923 21.5542 22.8789 22.231C22.8964 22.2485 22.9139 22.2718 22.9314 22.2893C23.8123 22.1201 24.6991 21.9568 25.6617 21.7759C25.2533 21.2217 24.8858 20.7141 24.4599 20.1424L24.4657 20.1366Z" fill="white"/>
<path d="M28.3412 12.8267C29.6947 12.8208 30.7681 13.9001 30.7798 15.2886C30.7915 16.6071 29.6947 17.7156 28.3704 17.7272C27.0461 17.7389 25.9493 16.6538 25.9376 15.3178C25.9259 13.9293 26.9819 12.8384 28.347 12.8267H28.3412Z" fill="white"/>
</svg>
