<svg xmlns="http://www.w3.org/2000/svg" width="32" height="32" viewBox="0 0 32 32" fill="none"><metadata><rdf:RDF xmlns:rdf="http://www.w3.org/1999/02/22-rdf-syntax-ns#" xmlns:dc="http://purl.org/dc/elements/1.1/"><rdf:Description><dc:creator>RealFaviconGenerator</dc:creator><dc:source>https://realfavicongenerator.net</dc:source></rdf:Description></rdf:RDF></metadata><rect width="32" height="32" rx="6" fill="url(#paint0_linear_9_472)"></rect><path d="M10.2602 12.0754V10.5438H12.1737V12.0754V12.1711V12.3625C12.1737 14.947 11.0256 17.3401 9.11213 19.0631C8.05973 20.0204 6.81598 20.7861 5.47656 21.2648V19.3503C6.33762 18.9674 7.103 18.4888 7.77271 17.8187C9.30348 16.4786 10.2602 14.4684 10.2602 12.3625V12.1711V12.0754ZM19.8275 12.0754V10.5438H21.741V12.0754V12.1711V12.3625C21.741 14.4684 22.6977 16.3829 24.2285 17.8187C24.8982 18.3931 25.6636 18.9674 26.5246 19.3503V21.2648C25.0895 20.7861 23.8458 20.0204 22.889 19.0631C20.9756 17.3401 19.8275 14.947 19.8275 12.3625V12.1711V12.0754ZM5.47656 24.5193C7.67704 23.945 9.68617 22.7963 11.3126 21.3605C12.5564 20.2118 13.5131 18.9674 14.1828 17.4358C14.6612 18.6802 15.2352 19.7332 16.0006 20.7861C16.6703 19.8289 17.2443 18.6802 17.8184 17.4358C18.4881 18.8717 19.4448 20.2118 20.6886 21.3605C22.315 22.7963 24.3241 23.945 26.5246 24.5193V22.6049C24.8025 22.0305 23.2717 21.169 22.028 20.0204C19.9232 18.1059 18.6794 15.4257 18.6794 12.554V4.51324H16.766V12.554C16.766 13.9898 16.479 15.6171 16.0963 16.9572C15.6179 15.7128 15.4265 13.9898 15.4265 12.554V4.51324H13.5131V12.554C13.5131 15.4257 12.1737 18.1059 10.1645 20.0204C8.92079 21.169 7.39002 22.0305 5.66791 22.6049V24.5193H5.47656ZM14.0871 20.2118C13.6088 20.8819 13.0347 21.4562 12.365 22.0305C10.4516 23.7536 8.15541 24.998 5.47656 25.5723V27.391C8.63377 26.721 11.504 25.2851 13.8001 23.2749C14.2785 22.7963 14.7568 22.4134 15.1395 21.8391H15.0439C14.6612 21.3605 14.3741 20.7861 14.0871 20.2118ZM16.9573 22.0305C17.34 22.5092 17.8184 22.8921 18.2011 23.3707C20.4015 25.3808 23.2717 26.9124 26.5246 27.4868V25.668C23.8458 25.0937 21.4539 23.8493 19.6362 22.1263C19.0621 21.5519 18.4881 20.9776 18.0097 20.4033C17.7227 20.9776 17.4357 21.4562 17.053 21.9348C17.053 21.9348 16.9573 21.9348 16.9573 22.0305Z" fill="white"></path><defs>
<linearGradient id="paint0_linear_9_472" x1="0.0565505" y1="16.9873" x2="32.0559" y2="16.9873" gradientUnits="userSpaceOnUse">
<stop stop-color="#EB1380"></stop>
<stop offset="0.12" stop-color="#CC137A"></stop>
<stop offset="0.56" stop-color="#661368"></stop>
<stop offset="0.86" stop-color="#25135D"></stop>
<stop offset="1" stop-color="#0C1359"></stop>
</linearGradient>
</defs></svg>