<svg width="623" height="135" viewBox="0 0 623 135" fill="none" xmlns="http://www.w3.org/2000/svg">
<path d="M622.982 13.0457L602.22 75.2205L542.369 75.2322L524.449 133.995L116.368 134.116L135.92 75.3152L0 75.3435L25.3789 13.0457H622.982Z" fill="#EB1380"/>
<path d="M56.1604 69.1157L67.9101 9.37993L70.7735 13.0332H45.3981L47.9653 -7.48986e-05H107.899L105.331 13.0332H79.3636L83.708 9.37993L71.9583 69.1157H56.1604ZM92.8473 69.1157L137.476 -7.48986e-05H153.373L170.356 69.1157H154.36L140.932 7.89888H147.251L109.929 69.1157H92.8473ZM111.311 54.3052L117.828 42.1606H153.472L155.348 54.3052H111.311ZM240.738 -7.48986e-05H256.734L242.91 69.1157H226.915L240.738 -7.48986e-05ZM195.615 69.1157H179.521L193.344 -7.48986e-05H209.439L195.615 69.1157ZM233.827 40.7782H200.157L202.823 27.2513H236.492L233.827 40.7782ZM260.326 69.1157L274.149 -7.48986e-05H289.947L278.691 56.0825H309.596L320.753 -7.48986e-05H336.649L322.826 69.1157H260.326ZM315.026 83.7288L318.482 65.3637L321.247 69.1157H306.93L309.596 56.0825H335.366L329.837 83.7288H315.026ZM347.592 55.885C349.961 56.6749 352.133 57.0369 354.108 56.9711C356.149 56.9053 358.091 56.4116 359.934 55.49C361.843 54.5027 363.62 53.0216 365.265 51.0469L369.61 46.505L371.387 44.8265L403.477 -7.48986e-05H419.472L379.187 55.1938C375.633 60.0648 371.815 63.751 367.734 66.2524C363.653 68.7537 359.44 70.1031 355.096 70.3006C350.751 70.498 346.472 69.6423 342.26 67.7334L347.592 55.885ZM369.314 58.1559L349.468 -7.48986e-05H366.154L379.977 46.4062L369.314 58.1559ZM436.352 27.8437H469.626L467.158 40.2846H433.884L436.352 27.8437ZM431.81 56.2799H469.528L466.862 69.1157H413.346L427.17 -7.48986e-05H479.401L476.735 12.8357H440.499L431.81 56.2799ZM494.691 69.1157L506.441 9.37993L509.304 13.0332H483.929L486.496 -7.48986e-05H546.429L543.862 13.0332H517.894L522.238 9.37993L510.489 69.1157H494.691ZM565.655 27.8437H598.929L596.461 40.2846H563.186L565.655 27.8437ZM561.113 56.2799H598.83L596.165 69.1157H542.649L556.472 -7.48986e-05H608.704L606.038 12.8357H569.802L561.113 56.2799Z" fill="white"/>
<path d="M141.404 120.747L148.645 84.5438H166.126C170.057 84.5438 173.056 85.2506 175.125 86.6643C177.228 88.078 178.28 90.1295 178.28 92.8189C178.28 95.0945 177.677 97.0082 176.47 98.5597C175.298 100.111 173.729 101.284 171.763 102.077C169.798 102.87 167.66 103.266 165.35 103.266L166.695 101.197C169.729 101.197 172.143 101.904 173.936 103.318C175.763 104.697 176.677 106.697 176.677 109.317C176.677 111.869 175.97 114.007 174.556 115.731C173.177 117.42 171.263 118.679 168.815 119.506C166.367 120.334 163.557 120.747 160.385 120.747H141.404ZM151.024 114.438H160.902C163.212 114.438 165.023 114.007 166.333 113.145C167.678 112.248 168.35 110.938 168.35 109.214C168.35 107.869 167.85 106.921 166.85 106.369C165.885 105.783 164.574 105.49 162.919 105.49H151.851L153.093 99.3872H162.506C163.954 99.3872 165.195 99.1976 166.229 98.8183C167.298 98.4391 168.109 97.8701 168.66 97.1116C169.212 96.3186 169.488 95.3704 169.488 94.267C169.488 93.0602 169.022 92.1983 168.091 91.6811C167.16 91.1294 165.85 90.8536 164.161 90.8536H155.679L151.024 114.438ZM195.857 120.747L203.098 84.5438H211.476L204.235 120.747H195.857ZM204.701 106.111L206.046 99.1804H218.717L217.372 106.111H204.701ZM219.855 120.747L212.045 103.266L219.027 99.3872L228.854 120.747H219.855ZM219.234 103.525L211.166 102.594L226.526 84.5438H235.939L219.234 103.525ZM251.397 121.368C247.742 121.368 244.587 120.713 241.932 119.403C239.311 118.058 237.294 116.213 235.881 113.869C234.467 111.49 233.76 108.748 233.76 105.645C233.76 102.542 234.295 99.6803 235.364 97.0599C236.432 94.4049 237.95 92.1121 239.915 90.1812C241.915 88.2159 244.277 86.6815 247 85.5782C249.759 84.4748 252.81 83.9232 256.155 83.9232C259.81 83.9232 262.947 84.5955 265.568 85.9402C268.223 87.2504 270.257 89.0951 271.671 91.4742C273.084 93.8188 273.791 96.5427 273.791 99.6458C273.791 102.749 273.257 105.628 272.188 108.283C271.119 110.903 269.585 113.196 267.585 115.162C265.619 117.092 263.258 118.61 260.499 119.713C257.775 120.816 254.741 121.368 251.397 121.368ZM252.121 114.231C254.155 114.231 255.982 113.869 257.603 113.145C259.258 112.386 260.654 111.352 261.792 110.041C262.93 108.731 263.792 107.231 264.378 105.542C264.999 103.818 265.309 102.008 265.309 100.111C265.309 98.3184 264.93 96.7496 264.171 95.4049C263.413 94.0257 262.292 92.9568 260.809 92.1983C259.361 91.4397 257.568 91.0604 255.431 91.0604C253.396 91.0604 251.569 91.4397 249.948 92.1983C248.328 92.9223 246.931 93.9395 245.759 95.2497C244.621 96.5599 243.742 98.077 243.121 99.801C242.535 101.49 242.242 103.283 242.242 105.18C242.242 106.973 242.622 108.559 243.38 109.938C244.173 111.283 245.294 112.334 246.742 113.093C248.224 113.851 250.017 114.231 252.121 114.231ZM276.618 120.747L283.859 84.5438H290.685L300.978 110.197L297.357 110.145L317.373 84.5438H324.562L317.373 120.747H309.563L314.373 96.491H315.924L299.995 116.92H296.219L287.737 96.4392L289.237 96.5944L284.427 120.747H276.618ZM322.28 120.747L345.657 84.5438H353.984L362.88 120.747H354.501L347.468 88.6813H350.778L331.228 120.747H322.28ZM331.952 112.989L335.365 106.628H354.036L355.019 112.989H331.952ZM399.747 84.5438H408.125L400.885 120.747H392.506L399.747 84.5438ZM376.111 120.747H367.681L374.922 84.5438H383.352L376.111 120.747ZM396.127 105.904H378.49L379.887 98.8183H397.523L396.127 105.904ZM434.425 117.024L439.545 91.3708H427.184L425.839 96.9564C425.322 99.1976 424.77 101.318 424.184 103.318C423.633 105.283 423.029 107.076 422.374 108.697C421.719 110.317 420.978 111.696 420.15 112.834C419.357 113.972 418.461 114.782 417.461 115.265L408.203 113.92C409.444 113.955 410.582 113.507 411.616 112.576C412.651 111.645 413.582 110.352 414.409 108.697C415.271 107.007 416.047 105.042 416.737 102.801C417.461 100.56 418.133 98.146 418.754 95.56L421.391 84.5438H449.216L442.7 117.024H434.425ZM404.479 128.247L407.375 113.92H448.441L445.544 128.247H437.786L439.286 120.747H413.737L412.237 128.247H404.479ZM464.685 99.1286H482.114L480.821 105.645H463.392L464.685 99.1286ZM462.305 114.024H482.062L480.666 120.747H452.634L459.875 84.5438H487.234L485.838 91.2673H466.857L462.305 114.024ZM496.388 108.18C496.629 106.869 497.06 105.749 497.681 104.818C498.302 103.887 499.008 103.059 499.802 102.335C500.629 101.611 501.474 100.939 502.336 100.318C503.198 99.6976 503.991 99.0942 504.715 98.508C505.439 97.9219 506.025 97.3012 506.473 96.6461C506.922 95.9565 507.146 95.1463 507.146 94.2153C507.146 93.1464 506.715 92.3017 505.853 91.6811C504.991 91.026 503.749 90.6984 502.129 90.6984C500.439 90.6984 498.905 91.0432 497.526 91.7328C496.181 92.4224 495.009 93.3878 494.009 94.6291L488.578 90.6467C490.13 88.5779 492.216 86.9401 494.836 85.7333C497.457 84.5266 500.439 83.9232 503.784 83.9232C506.232 83.9232 508.352 84.2852 510.145 85.0093C511.938 85.6989 513.317 86.6988 514.283 88.009C515.283 89.3192 515.783 90.8536 515.783 92.612C515.783 94.0946 515.524 95.3876 515.007 96.491C514.524 97.5943 513.886 98.5425 513.093 99.3355C512.3 100.129 511.438 100.87 510.507 101.559C509.576 102.215 508.663 102.87 507.766 103.525C506.904 104.145 506.146 104.835 505.491 105.594C504.87 106.318 504.439 107.18 504.198 108.18H496.388ZM498.405 121.161C497.026 121.161 495.888 120.747 494.992 119.92C494.095 119.058 493.647 118.023 493.647 116.817C493.647 115.369 494.147 114.179 495.147 113.248C496.181 112.317 497.422 111.852 498.871 111.852C500.25 111.852 501.37 112.265 502.232 113.093C503.129 113.886 503.577 114.886 503.577 116.093C503.577 117.024 503.336 117.886 502.853 118.679C502.405 119.437 501.784 120.04 500.991 120.489C500.233 120.937 499.371 121.161 498.405 121.161Z" fill="white"/>
</svg>
