<svg width="44" height="44" viewBox="0 0 44 44" fill="none" xmlns="http://www.w3.org/2000/svg">
<path d="M20.5215 0.611328L23.4785 0.611328C27.6893 0.611332 31.0313 0.837765 33.6816 1.42676C36.3251 2.01423 38.243 2.95392 39.6445 4.35547C41.0461 5.75702 41.9858 7.67495 42.5732 10.3184C43.1622 12.9687 43.3887 16.3107 43.3887 20.5215V23.4785C43.3887 27.6893 43.1622 31.0313 42.5732 33.6816C41.9858 36.3251 41.0461 38.243 39.6445 39.6445C38.243 41.0461 36.3251 41.9858 33.6816 42.5732C31.0313 43.1622 27.6893 43.3887 23.4785 43.3887H20.5215C16.3107 43.3887 12.9687 43.1622 10.3184 42.5732C7.67495 41.9858 5.75702 41.0461 4.35547 39.6445C2.95392 38.243 2.01423 36.3251 1.42676 33.6816C0.837765 31.0313 0.611332 27.6893 0.611328 23.4785L0.611328 20.5215C0.611332 16.3107 0.837765 12.9687 1.42676 10.3184C2.01423 7.67495 2.95392 5.75702 4.35547 4.35547C5.75702 2.95392 7.67495 2.01423 10.3184 1.42676C12.9687 0.837765 16.3107 0.611332 20.5215 0.611328Z" stroke="white" stroke-width="1.22222"/>
<path d="M25.5191 18.8491C26.0997 18.18 26.6582 17.533 27.2168 16.886C27.2831 16.8085 27.3827 16.7366 27.4048 16.6426C27.4324 16.5431 27.4269 16.3827 27.3606 16.3274C27.2997 16.2721 27.1338 16.2887 27.0453 16.3385C26.9458 16.3883 26.8794 16.5099 26.802 16.5984C26.2546 17.2288 25.7071 17.8648 25.143 18.5118C24.955 18.3459 24.7615 18.2021 24.5956 18.0307C24.5513 17.9864 24.5624 17.8592 24.59 17.7818C24.8334 17.1237 25.0822 16.4767 25.3255 15.8187C25.3587 15.7302 25.3808 15.6085 25.3476 15.5256C25.32 15.4592 25.1873 15.3763 25.132 15.3929C25.0324 15.426 24.9218 15.5145 24.8831 15.6085C24.6564 16.1671 24.4518 16.7366 24.2361 17.3007C24.1974 17.3947 24.1587 17.4943 24.12 17.5883C23.4398 17.1569 23.2407 16.6648 23.4951 15.9514C23.8877 14.8454 24.2306 13.7228 24.6011 12.6113C25.038 11.2841 26.4039 10.897 27.4601 11.8094C28.9366 13.0813 30.4076 14.3643 31.873 15.6528C32.8463 16.5044 32.6583 17.9311 31.5025 18.5173C30.4352 19.0592 29.3569 19.5791 28.2841 20.1099C27.626 20.4362 27.3053 20.392 26.7578 19.9164C26.697 19.8666 26.6417 19.8113 26.5587 19.7394C26.6582 19.6786 26.7412 19.6288 26.8297 19.5791C27.3716 19.2804 27.9135 18.9763 28.4555 18.6777C28.6103 18.5947 28.6656 18.462 28.5771 18.3072C28.4942 18.1634 28.3559 18.1634 28.2177 18.2408C28.1735 18.2684 28.1292 18.2906 28.085 18.3182C27.4988 18.6445 26.9071 18.9652 26.3209 19.297C26.1937 19.3689 26.1108 19.3744 26.0057 19.2694C25.8619 19.1256 25.696 18.9984 25.5246 18.8436L25.5191 18.8491Z" fill="white"/>
<path d="M20.3212 21.5477C21.2834 22.3828 22.2235 23.2067 23.1857 24.0418C23.1304 24.1081 23.0862 24.1689 23.0309 24.2187C20.0834 27.1054 17.1304 29.9865 14.1829 32.8731C13.7792 33.2658 13.2428 33.2879 12.8944 32.9284C12.5792 32.6077 12.5626 32.1487 12.8557 31.7505C13.7184 30.5671 14.5866 29.3837 15.4548 28.1948C17.0253 26.0491 18.5958 23.9035 20.1663 21.7579C20.2106 21.697 20.2604 21.6362 20.3267 21.5477H20.3212Z" fill="white"/>
<path d="M21.3281 20.1651C21.9751 19.2803 22.6056 18.4176 23.2526 17.5328C24.4249 18.5559 25.5807 19.5568 26.753 20.5799C25.9733 21.343 25.2102 22.0895 24.4249 22.8582C23.3963 21.9624 22.3733 21.072 21.3281 20.1651Z" fill="white"/>
<path d="M24.0363 23.1846C23.8649 23.3726 23.7267 23.533 23.5663 23.7155C22.5764 22.8528 21.6031 22.0012 20.6133 21.1441C20.7571 20.9505 20.8843 20.7735 21.0336 20.5745C22.0455 21.4593 23.0465 22.3275 24.0363 23.1901V23.1846Z" fill="white"/>
<path d="M13.1101 20.0625C13.6161 20.6053 14.1957 21.2218 14.711 21.7646C14.1957 22.3166 13.6161 22.9239 13.1009 23.4759C12.5949 22.9423 12.0152 22.3258 11.5 21.7646C12.0152 21.2218 12.5949 20.6053 13.1101 20.0625Z" fill="white"/>
<path d="M30.2361 28.3249C29.8065 28.7771 29.3467 29.2671 28.917 29.7193C28.5024 29.2821 28.0351 28.7771 27.6055 28.3173C28.02 27.8801 28.4874 27.3902 28.9246 26.9229C29.3391 27.36 29.8065 27.8651 30.2361 28.3173V28.3249Z" fill="white"/>
<path d="M17.179 12.8217C16.8846 12.5089 16.581 12.1869 16.2773 11.8648C16.5718 11.552 16.8754 11.23 17.0962 11C17.4182 11.2944 17.7402 11.6072 18.053 11.9016C17.7862 12.1777 17.4734 12.5089 17.1698 12.8217H17.179Z" fill="white"/>
</svg>
