<svg width="44" height="44" viewBox="0 0 44 44" fill="none" xmlns="http://www.w3.org/2000/svg">
<path d="M20.5215 0.611328L23.4785 0.611328C27.6893 0.611332 31.0313 0.837765 33.6816 1.42676C36.3251 2.01423 38.243 2.95392 39.6445 4.35547C41.0461 5.75702 41.9858 7.67495 42.5732 10.3184C43.1622 12.9687 43.3887 16.3107 43.3887 20.5215V23.4785C43.3887 27.6893 43.1622 31.0313 42.5732 33.6816C41.9858 36.3251 41.0461 38.243 39.6445 39.6445C38.243 41.0461 36.3251 41.9858 33.6816 42.5732C31.0313 43.1622 27.6893 43.3887 23.4785 43.3887H20.5215C16.3107 43.3887 12.9687 43.1622 10.3184 42.5732C7.67495 41.9858 5.75702 41.0461 4.35547 39.6445C2.95392 38.243 2.01423 36.3251 1.42676 33.6816C0.837765 31.0313 0.611332 27.6893 0.611328 23.4785L0.611328 20.5215C0.611332 16.3107 0.837765 12.9687 1.42676 10.3184C2.01423 7.67495 2.95392 5.75702 4.35547 4.35547C5.75702 2.95392 7.67495 2.01423 10.3184 1.42676C12.9687 0.837765 16.3107 0.611332 20.5215 0.611328Z" stroke="white" stroke-width="1.22222"/>
<path d="M19.7102 35.5176C19.0948 35.2994 18.8384 34.8404 18.7234 34.2137C18.4488 32.7105 18.0989 31.2201 17.8318 29.7158C17.7598 29.3095 17.8415 28.865 17.9103 28.4474C18.1166 27.1946 18.3494 25.9461 18.5789 24.6976C18.6149 24.5019 18.5864 24.3445 18.4767 24.1725C17.0127 21.87 15.5514 19.566 14.1046 17.2528C13.8987 16.9239 13.7552 16.5509 13.6166 16.1854C12.949 14.422 12.2923 12.6543 11.6334 10.8872C11.2227 9.78649 11.7881 8.88572 12.948 8.74652C14.814 8.52294 16.6768 8.27948 18.5407 8.04246C18.5735 8.03816 18.6036 8.01451 18.6353 8C18.8325 8 19.0298 8 19.2265 8C19.2577 8.01612 19.2867 8.03708 19.32 8.0473C20.0671 8.27679 20.4863 8.8739 20.4212 9.61881C20.3594 10.3282 19.8177 10.8582 19.0626 10.9517C17.7571 11.114 16.4516 11.2785 15.1461 11.4429C15.1117 11.4472 15.0779 11.4585 15.0032 11.4768C15.4611 12.7054 15.9152 13.9233 16.3796 15.168C17.0288 14.7757 17.6544 14.3978 18.279 14.02C19.9096 13.0332 21.5311 12.0298 23.1789 11.0726C23.5186 10.8754 23.9523 10.8077 24.3527 10.7507C26.7981 10.403 29.2473 10.0799 31.6938 9.73812C32.5843 9.61397 33.3427 10.1057 33.477 10.9248C33.62 11.7939 33.0847 12.5194 32.1635 12.6554C30.8177 12.8537 29.4682 13.0268 28.1203 13.2111C26.9497 13.3713 25.7791 13.5309 24.6091 13.6932C24.5403 13.7029 24.4672 13.7217 24.4081 13.7567C23.3444 14.3839 22.2824 15.0143 21.2204 15.6442C21.1973 15.6576 21.1758 15.6738 21.1393 15.6974C22.0325 17.1324 22.9156 18.5502 23.811 19.9884C24.5698 19.3612 25.3153 18.7491 26.0532 18.1283C26.1199 18.0719 26.1532 17.9633 26.1784 17.8719C26.4923 16.7433 26.7987 15.613 27.1174 14.486C27.1432 14.3941 27.2361 14.2645 27.3135 14.2527C28.0998 14.1323 28.8888 14.0329 29.7186 13.9222C29.6988 14.0238 29.6885 14.106 29.6665 14.1855C29.2322 15.7818 28.7942 17.3769 28.3621 18.9732C28.2718 19.3069 28.0816 19.5595 27.8198 19.7815C25.6469 21.6239 23.402 23.3744 21.1054 25.0598C20.9985 25.1383 20.906 25.2888 20.8813 25.4194C20.6454 26.6673 20.4229 27.918 20.2041 29.1692C20.1832 29.289 20.1939 29.4202 20.2181 29.5406C20.5137 31.0137 20.8168 32.4853 21.114 33.9584C21.265 34.7071 21.0044 35.1854 20.3041 35.4681C20.282 35.4773 20.2659 35.5004 20.2466 35.5165H19.7091L19.7102 35.5176Z" fill="white"/>
<path d="M21.3633 27.523C21.3649 26.0659 22.543 24.8835 23.9914 24.8862C25.4404 24.8884 26.6303 26.0719 26.6352 27.516C26.64 28.98 25.4517 30.1646 23.9861 30.1565C22.5215 30.149 21.3622 28.9843 21.3638 27.523H21.3633Z" fill="white"/>
</svg>
