<svg width="44" height="44" viewBox="0 0 44 44" fill="none" xmlns="http://www.w3.org/2000/svg">
<path d="M20.5215 0.611328L23.4785 0.611328C27.6893 0.611332 31.0313 0.837765 33.6816 1.42676C36.3251 2.01423 38.243 2.95392 39.6445 4.35547C41.0461 5.75702 41.9858 7.67495 42.5732 10.3184C43.1622 12.9687 43.3887 16.3107 43.3887 20.5215V23.4785C43.3887 27.6893 43.1622 31.0313 42.5732 33.6816C41.9858 36.3251 41.0461 38.243 39.6445 39.6445C38.243 41.0461 36.3251 41.9858 33.6816 42.5732C31.0313 43.1622 27.6893 43.3887 23.4785 43.3887H20.5215C16.3107 43.3887 12.9687 43.1622 10.3184 42.5732C7.67495 41.9858 5.75702 41.0461 4.35547 39.6445C2.95392 38.243 2.01423 36.3251 1.42676 33.6816C0.837765 31.0313 0.611332 27.6893 0.611328 23.4785L0.611328 20.5215C0.611332 16.3107 0.837765 12.9687 1.42676 10.3184C2.01423 7.67495 2.95392 5.75702 4.35547 4.35547C5.75702 2.95392 7.67495 2.01423 10.3184 1.42676C12.9687 0.837765 16.3107 0.611332 20.5215 0.611328Z" stroke="white" stroke-width="1.22222"/>
<path d="M37.9802 13.2474C37.3961 14.6135 36.8121 15.9796 36.2275 17.345C35.9201 18.0634 35.556 18.2464 34.7964 18.0671C34.1 17.9028 33.4035 17.7379 32.6483 17.5599C32.7364 17.623 32.7714 17.6648 32.8138 17.6761C33.2754 17.7923 33.3417 18.1227 33.3635 18.5443C33.4385 20.0097 33.5334 21.4739 33.6565 22.9361C33.727 23.7738 33.5247 24.484 32.9606 25.1199C32.1592 26.0224 31.4009 26.9625 30.6114 27.8757C30.4708 28.0381 30.459 28.1499 30.5639 28.3336C31.281 29.5885 31.9937 30.8459 32.6914 32.1114C33.1699 32.979 32.6664 33.9703 31.702 34.0727C31.1679 34.1296 30.7294 33.9184 30.4633 33.4525C29.5351 31.8272 28.6169 30.1962 27.71 28.5591C27.4164 28.0288 27.5063 27.5122 27.8936 27.0518C28.5095 26.3198 29.131 25.5927 29.7275 24.8256C29.6619 24.8556 29.5938 24.8812 29.532 24.9175C28.4789 25.5265 27.4239 26.1324 26.3764 26.7508C26.2208 26.8426 26.0753 26.9738 25.9672 27.1187C24.9622 28.4585 23.9678 29.8071 22.9665 31.1501C22.5542 31.7035 21.9833 31.8921 21.4062 31.6804C20.5654 31.3718 20.2937 30.3818 20.8558 29.6185C21.8852 28.2187 22.9321 26.8313 23.9584 25.429C24.2226 25.0686 24.5293 24.7838 24.921 24.5646C25.9004 24.0155 26.8636 23.4377 27.8411 22.8843C28.0235 22.7812 28.0797 22.6725 28.0641 22.4658C27.9823 21.3552 27.918 20.244 27.8455 19.1327C27.8374 19.0091 27.8186 18.8866 27.7993 18.7105C27.3826 18.9653 26.9835 19.1815 26.6162 19.4426C26.1921 19.7436 25.7474 19.8236 25.2333 19.778C24.2695 19.6937 23.3013 19.6655 22.335 19.6125C22.1582 19.6025 21.9808 19.5937 21.8065 19.5687C21.2931 19.4944 20.9189 19.0403 20.9527 18.5443C20.9889 18.0159 21.4074 17.5999 21.9427 17.6199C22.9827 17.6586 24.0215 17.7198 25.0603 17.7885C25.3413 17.8073 25.5806 17.7704 25.8223 17.6105C26.3507 17.2607 26.9048 16.9484 27.4339 16.5986C27.565 16.5118 27.6837 16.355 27.7343 16.2051C27.9436 15.5861 28.4882 15.1944 29.1447 15.1669C29.9436 15.1332 30.7413 15.0664 31.5383 15.0014C32.0118 14.9627 32.4159 15.0914 32.772 15.4087C32.8894 15.513 33.0381 15.6042 33.188 15.6454C33.6583 15.7747 34.1362 15.8765 34.6359 15.9952C34.6852 15.8959 34.739 15.7991 34.7821 15.6973C35.1824 14.7609 35.5891 13.8271 35.977 12.8852C36.1644 12.4304 36.4242 12.0812 36.957 12.055C37.4973 12.0282 37.7897 12.3542 37.9814 12.8089V13.2462L37.9802 13.2474Z" fill="white"/>
<path d="M6 10.9362C6.02186 10.9031 6.04935 10.8725 6.06496 10.8369C6.22487 10.4603 6.50408 10.2298 6.91197 10.1911C7.34609 10.1498 7.67277 10.3416 7.90638 10.7076C8.53351 11.6889 9.18376 12.6559 9.78403 13.6534C10.0645 14.1188 10.4124 14.4429 10.909 14.6653C11.6573 15.0001 12.3838 15.3861 13.1127 15.7634C13.2532 15.8359 13.3825 15.9533 13.4812 16.0789C14.1171 16.8865 14.9404 17.2938 15.971 17.2588C16.1672 17.2519 16.3364 17.2313 16.4258 17.4649C16.4539 17.538 16.5607 17.5867 16.6394 17.6336C17.254 18.0034 17.8668 18.3769 18.4896 18.7323C18.6139 18.8029 18.7806 18.8316 18.9262 18.8254C19.3921 18.8066 19.8569 18.7629 20.3416 18.7273C20.5721 20.0721 21.5621 20.2483 22.6796 20.2289L22.6896 20.3476C22.4728 20.4375 22.2617 20.5862 22.0381 20.6081C20.8688 20.723 19.697 20.818 18.5239 20.8885C18.3022 20.9017 18.0492 20.8155 17.8487 20.7055C17.239 20.3713 16.6475 20.0034 16.0197 19.6305C15.8636 20.0334 15.7137 20.4163 15.5663 20.8005C15.3395 21.392 15.1215 21.9873 14.8842 22.5744C14.7998 22.783 14.8142 22.9211 14.9822 23.0916C15.5525 23.6688 16.1028 24.2659 16.6569 24.8587C17.0092 25.2366 16.9561 25.5339 16.5232 25.8275C15.6612 26.4115 14.7986 26.9925 13.7842 27.2879C11.8141 27.8607 9.93956 27.6183 8.15311 26.6245C7.77146 26.4122 7.39043 26.2004 7.00441 25.9968C6.54843 25.7563 6.48347 25.3921 6.852 25.0242C7.99321 23.8849 9.13629 22.7462 10.2856 21.615C10.4574 21.4463 10.5517 21.2696 10.5898 21.0285C10.7809 19.8173 10.9852 18.608 11.2026 17.4012C11.2382 17.2019 11.1732 17.1257 11.0164 17.0433C10.3912 16.7141 9.76404 16.3874 9.15502 16.0301C8.9389 15.9033 8.72778 15.7222 8.59161 15.5148C7.79083 14.2993 7.01253 13.0694 6.22862 11.8426C6.14304 11.7102 6.07496 11.5709 6 11.436C6 11.2692 6 11.103 6 10.9362Z" fill="white"/>
<path d="M12.2836 29.3442C12.3941 29.7221 12.218 29.9839 11.9694 30.2525C10.94 31.3674 9.93058 32.5005 8.91243 33.6255C8.55264 34.0234 8.10165 34.1689 7.5857 34.0359C7.09412 33.9084 6.77743 33.5768 6.65625 33.0814C6.55069 32.6492 6.64938 32.2513 6.9467 31.9202C8.05106 30.6909 9.15916 29.4648 10.2735 28.2449C10.336 28.1762 10.4671 28.1368 10.564 28.1399C10.8019 28.1481 11.0387 28.213 11.2754 28.2099C11.5371 28.2068 11.712 28.3298 11.9094 28.4779C12.2117 28.704 12.386 28.9582 12.2829 29.3449L12.2836 29.3442Z" fill="white"/>
<path d="M12.7852 28.2448C13.704 27.9356 14.6334 27.6221 15.6179 27.291C15.6491 27.4278 15.7316 27.6302 15.7372 27.8351C15.7834 29.4479 15.819 31.0607 15.8496 32.6735C15.8646 33.483 15.3012 34.0827 14.5441 34.0833C13.7996 34.0839 13.2586 33.5092 13.2424 32.7028C13.2193 31.5273 13.1943 30.3511 13.1699 29.1755C13.1616 28.7791 13.0333 28.4691 12.7852 28.2455V28.2448Z" fill="white"/>
<path d="M15.8375 16.5685C14.5895 16.561 13.6088 15.5722 13.6113 14.3242C13.6138 13.0849 14.6214 12.0811 15.8538 12.0911C17.0962 12.1011 18.0893 13.103 18.0843 14.3404C18.0793 15.5822 17.0768 16.576 15.8375 16.5685Z" fill="white"/>
<path d="M29.8217 14.3243C28.6256 14.3062 27.6624 13.3155 27.688 12.1293C27.7142 10.9213 28.7093 9.9737 29.9242 10.0006C31.091 10.0262 32.0567 11.0374 32.0255 12.2011C31.9936 13.4086 31.0242 14.3424 29.8211 14.3243H29.8217Z" fill="white"/>
</svg>
