<svg width="48" height="48" viewBox="0 0 48 48" fill="none" xmlns="http://www.w3.org/2000/svg">
<mask id="mask0_132_2203" style="mask-type:luminance" maskUnits="userSpaceOnUse" x="0" y="0" width="48" height="48">
<path d="M36.3636 0H11.6364C5.20978 0 0 5.20978 0 11.6364V36.3636C0 42.7902 5.20978 48 11.6364 48H36.3636C42.7902 48 48 42.7902 48 36.3636V11.6364C48 5.20978 42.7902 0 36.3636 0Z" fill="white"/>
</mask>
<g mask="url(#mask0_132_2203)">
<path d="M29.65 22.9042H15.4691V17.2926H29.65C30.4784 17.2926 31.0543 17.437 31.3434 17.6891C31.6324 17.9413 31.8115 18.4089 31.8115 19.092V21.1069C31.8115 21.8267 31.6324 22.2943 31.3434 22.5465C31.0543 22.7986 30.4784 22.9064 29.65 22.9064V22.9042ZM30.6229 12.0021H9.45508V36H15.4691V28.1925H26.5524L31.8115 36H38.546L32.7477 28.1559C34.8854 27.8391 35.8453 27.184 36.6369 26.1043C37.4285 25.0247 37.8256 23.2985 37.8256 20.9949V19.1955C37.8256 17.8292 37.6809 16.7496 37.4285 15.9221C37.1762 15.0945 36.7449 14.3748 36.1322 13.7283C35.485 13.1163 34.7646 12.6853 33.8996 12.3965C33.0345 12.1444 31.9538 12 30.6229 12V12.0021Z" fill="white"/>
<path d="M72 1.14441e-05C72 13.2548 61.2549 24 48 24C45.3051 24 42.7142 23.5559 40.296 22.7368C40.3476 22.1664 40.3705 21.5833 40.3705 20.9949V19.1955C40.3705 17.6676 40.2109 16.3209 39.8629 15.1795C39.4873 13.9487 38.8436 12.8894 37.9793 11.9775L37.9313 11.9268L37.8807 11.8789C36.96 11.008 35.9161 10.3864 34.7051 9.98204L34.6585 9.96651L34.6113 9.95277C33.4585 9.61673 32.1276 9.45455 30.6224 9.45455H28.0769V9.45669H25.9349C24.6896 6.5548 24 3.35794 24 1.14441e-05C24 -13.2548 34.7452 -24 48 -24C61.2549 -24 72 -13.2548 72 1.14441e-05Z" fill="white"/>
</g>
<path d="M36.3633 0.363281H11.636C5.41025 0.363281 0.363281 5.41025 0.363281 11.636V36.3633C0.363281 42.589 5.41025 47.636 11.636 47.636H36.3633C42.589 47.636 47.636 42.589 47.636 36.3633V11.636C47.636 5.41025 42.589 0.363281 36.3633 0.363281Z" stroke="white" stroke-width="0.727273"/>
</svg>
