<svg width="48" height="48" viewBox="0 0 48 48" fill="none" xmlns="http://www.w3.org/2000/svg">
<path d="M24.001 0C37.2557 0.000178324 48.001 10.7462 48.001 24.001C48.0008 37.2556 37.2556 48.0008 24.001 48.001C10.7462 48.001 0.000178336 37.2557 0 24.001C0 10.7461 10.7461 0 24.001 0ZM33.793 14.4287C32.8937 14.4487 31.4943 14.9284 24.8398 17.7061C22.5017 18.6853 17.8455 20.7039 10.8516 23.7412C9.73264 24.2008 9.13319 24.6405 9.07324 25.0801C8.97371 25.9191 10.1724 26.1787 11.6709 26.6582C12.9099 27.0579 14.5489 27.5181 15.4082 27.5381C16.1875 27.558 17.0468 27.2375 18.0059 26.5781C24.5387 22.163 27.8959 19.9248 28.1172 19.8838C28.2771 19.8438 28.4773 19.8039 28.6172 19.9238C28.757 20.0437 28.7573 20.2838 28.7373 20.3438C28.6172 20.8435 22.4825 26.4374 22.1221 26.7979C20.7632 28.1967 19.2247 29.0566 21.6025 30.6152C23.6607 31.974 24.84 32.8332 26.958 34.2119C28.2968 35.0911 29.3562 36.1305 30.7549 36.0107C31.3943 35.9508 32.0538 35.3512 32.3936 33.5527C33.1929 29.3162 34.7516 20.1035 35.1113 16.3066C35.1512 15.9871 35.1112 15.5681 35.0713 15.3682C35.0313 15.1683 34.9712 14.9078 34.7314 14.708C34.4318 14.4686 33.9928 14.4287 33.793 14.4287Z" fill="white"/>
</svg>
