<svg width="48" height="48" viewBox="0 0 48 48" fill="none" xmlns="http://www.w3.org/2000/svg">
<path d="M24.96 0C35.8211 0 41.2518 -9.14343e-05 44.626 3.37402C48.0001 6.74815 48 12.1788 48 23.04V24.96C48 35.8212 48.0001 41.2518 44.626 44.626C41.2518 48.0001 35.8212 48 24.96 48H23.04C12.1788 48 6.74815 48.0001 3.37402 44.626C-9.14348e-05 41.2518 0 35.8211 0 24.96V23.04C0 12.1788 -0.000106573 6.74815 3.37402 3.37402C6.74815 -0.000106573 12.1788 0 23.04 0H24.96ZM8.09961 14.6006C8.35961 27.0804 14.5993 34.5808 25.5391 34.5811H26.1602V27.4404C30.1799 27.8406 33.2195 30.7812 34.4395 34.5811H40.1191C38.5591 28.9011 34.4594 25.7605 31.8994 24.5605C34.4594 23.0805 38.0589 19.4805 38.9189 14.6006H33.7598C32.6398 18.5604 29.32 22.1607 26.1602 22.501V14.6006H20.999V28.4404C17.7991 27.6402 13.7601 23.7601 13.5801 14.6006H8.09961Z" fill="white"/>
</svg>
