<svg width="48" height="48" viewBox="0 0 48 48" fill="none" xmlns="http://www.w3.org/2000/svg">
<path d="M36.0156 0C42.6343 0.000169047 47.9998 5.36566 48 11.9844V36.0156C47.9998 42.6343 42.6343 47.9998 36.0156 48H11.9844C5.36566 47.9998 0.000169051 42.6343 0 36.0156V11.9844C0.000169047 5.36566 5.36566 0.000169051 11.9844 0H36.0156ZM24.2979 5.73535C14.189 5.73535 5.65643 13.5582 5.65625 23.9561C5.65625 28.3097 6.46234 31.3146 7.17188 34.0127C7.76755 36.2027 8.29297 38.2091 8.29297 40.583C8.54741 43.7449 14.3724 41.8964 16.2119 39.5312C19.1201 41.6336 20.7933 42.1592 24.3936 42.1592C34.3461 42.1061 42.3767 34.0053 42.3428 24.0527C42.3428 13.9439 34.4153 5.7356 24.2979 5.73535ZM24.543 14.7236V14.7324C29.6446 15.0248 33.5724 19.3498 33.373 24.4561C33.0304 29.5514 28.6713 33.4348 23.5703 33.1895C21.9733 33.0614 20.4383 32.5141 19.1201 31.6035C18.323 32.4007 17.0442 33.4342 16.5361 33.3115C15.4762 33.031 14.2319 27.6444 14.9326 23.2207C15.7823 17.8772 19.6199 14.4696 24.543 14.7236Z" fill="white"/>
</svg>
