<svg width="44" height="44" viewBox="0 0 44 44" fill="none" xmlns="http://www.w3.org/2000/svg">
<path d="M20.5215 0.611328L23.4785 0.611328C27.6893 0.611332 31.0313 0.837765 33.6816 1.42676C36.3251 2.01423 38.243 2.95392 39.6445 4.35547C41.0461 5.75702 41.9858 7.67495 42.5732 10.3184C43.1622 12.9687 43.3887 16.3107 43.3887 20.5215V23.4785C43.3887 27.6893 43.1622 31.0313 42.5732 33.6816C41.9858 36.3251 41.0461 38.243 39.6445 39.6445C38.243 41.0461 36.3251 41.9858 33.6816 42.5732C31.0313 43.1622 27.6893 43.3887 23.4785 43.3887H20.5215C16.3107 43.3887 12.9687 43.1622 10.3184 42.5732C7.67495 41.9858 5.75702 41.0461 4.35547 39.6445C2.95392 38.243 2.01423 36.3251 1.42676 33.6816C0.837765 31.0313 0.611332 27.6893 0.611328 23.4785L0.611328 20.5215C0.611332 16.3107 0.837765 12.9687 1.42676 10.3184C2.01423 7.67495 2.95392 5.75702 4.35547 4.35547C5.75702 2.95392 7.67495 2.01423 10.3184 1.42676C12.9687 0.837765 16.3107 0.611332 20.5215 0.611328Z" stroke="white" stroke-width="1.22222"/>
<path d="M37.5 13.5503C37.3745 14.0195 37.0493 14.311 36.6508 14.5621C34.8546 15.6911 32.9286 16.4796 30.8241 16.8006C30.3767 16.8689 29.9218 16.9 29.4685 16.9203C29.2612 16.9295 29.1795 16.9919 29.1239 17.1966C28.5805 19.2102 27.717 21.078 26.4894 22.7663C26.0808 23.3274 25.6116 23.8447 25.1608 24.3746C25.0614 24.4909 24.9999 24.5752 25.0749 24.7411C25.6411 26.0049 25.8197 27.3486 25.877 28.7169C25.8829 28.8559 25.8272 29.0252 26.0513 29.08C26.0918 29.0901 26.1204 29.2518 26.1112 29.3386C26.0716 29.7194 25.9974 30.0969 25.9696 30.4785C25.8896 31.5586 26.1659 32.5148 27.0842 33.1652C27.4111 33.3961 27.8273 33.5165 28.2174 33.6387C28.7001 33.7903 29.1644 33.9344 29.3531 34.4787C29.3758 34.5435 29.4719 34.5815 29.5308 34.6354C29.7878 34.8704 29.9091 35.1569 29.8232 35.504C29.7356 35.8604 29.503 36.0802 29.1416 36.1493C29.0237 36.1721 28.9015 36.1763 28.781 36.1763C26.7329 36.178 24.6848 36.1771 22.6359 36.1771C22.5752 36.1771 22.4994 36.199 22.4573 36.1712C22.3444 36.0963 22.2466 35.9985 22.143 35.9101C22.2466 35.8233 22.3385 35.7003 22.4581 35.6582C22.5828 35.6143 22.7344 35.648 22.9046 35.648C22.9046 35.413 22.9695 35.1687 22.8937 34.9833C22.5398 34.1223 22.6654 33.2512 22.7302 32.3648C22.7934 31.4937 22.7361 30.6141 22.7462 29.738C22.7479 29.572 22.828 29.4085 22.8575 29.2409C22.8751 29.1398 22.8869 29.0286 22.8659 28.93C22.539 27.395 21.8389 26.0141 21.1421 24.624C20.8254 23.9921 20.4378 23.7082 19.7225 23.6282C18.2515 23.4631 16.8648 22.9559 15.5345 22.308C15.163 22.1277 14.7956 21.9398 14.414 21.7503C14.3373 21.8151 14.2623 21.8783 14.1654 21.9609C13.9043 21.7638 13.6431 21.5624 13.3777 21.3678C12.6869 20.8606 11.9446 20.5042 11.0558 20.5792C10.4964 20.6264 9.99763 20.8134 9.58818 21.2119C9.32785 21.4647 9.08352 21.7452 8.78612 21.9449C8.5755 22.0864 8.28905 22.1193 8.03378 22.1926C7.9411 22.2195 7.8341 22.2044 7.7448 22.2372C7.33703 22.388 6.97476 22.3215 6.72286 22.0367C6.46421 21.7444 6.42461 21.3838 6.63608 20.9971C7.32692 19.7325 8.02535 18.4721 8.72041 17.2092C9.05067 16.6085 9.38008 16.0078 9.71118 15.408C9.80133 15.2437 9.8999 15.0634 10.1265 15.1822C10.3515 15.3001 10.2655 15.4821 10.1771 15.6506C10.1215 15.7559 10.0667 15.8604 9.98331 16.0179C10.274 16.13 10.5335 16.2623 10.809 16.3297C11.4012 16.4729 11.9472 16.67 12.4468 17.0542C13.3347 17.7366 14.3171 18.2716 15.3458 18.7274C17.3433 19.6129 18.0519 19.853 20.2651 20.3012C20.5237 20.3534 20.683 20.297 20.8641 20.0998C21.9164 18.9591 22.6064 17.6145 23.1186 16.1671C23.1313 16.1308 23.1363 16.0921 23.149 16.0407C23.0588 16.0011 22.9796 15.9598 22.8971 15.9303C20.1952 14.9699 18.1673 13.1787 16.6045 10.8172C16.2009 10.2081 16.3155 9.48862 16.8564 9.09096C17.3914 8.69836 18.0864 8.79946 18.5591 9.34539C18.9946 9.84836 19.3889 10.3926 19.8624 10.856C21.3174 12.2815 23.1035 13.14 25.0437 13.6598C28.2621 14.5225 31.4138 14.2942 34.4636 12.9193C34.8394 12.7499 35.1932 12.5325 35.5581 12.3379C36.3946 11.8923 37.0686 12.1281 37.4436 12.9959C37.4545 13.022 37.4789 13.0423 37.4966 13.065V13.5494L37.5 13.5503ZM8.12729 19.3761C7.76502 20.0366 7.40949 20.6651 7.0767 21.3046C6.97055 21.5085 7.04974 21.6871 7.29575 21.8C7.70689 21.0544 8.10623 20.3273 8.51315 19.5893C8.38173 19.516 8.27726 19.4587 8.12814 19.3761H8.12729ZM26.8155 35.2226V35.6438C27.5493 35.6438 28.2738 35.6539 28.9976 35.6379C29.2301 35.6329 29.3404 35.4753 29.3101 35.2226H26.8155Z" fill="white"/>
<path d="M30.0039 10.8375C30.0081 12.4189 28.7494 13.6793 27.1663 13.6793C25.6103 13.6793 24.3313 12.4147 24.3204 10.8653C24.3086 9.29323 25.6027 7.99916 27.1857 8C28.7342 8 30.0005 9.27554 30.0039 10.8384V10.8375Z" fill="white"/>
</svg>
