<svg width="44" height="44" viewBox="0 0 44 44" fill="none" xmlns="http://www.w3.org/2000/svg">
<path d="M20.5215 0.611328L23.4785 0.611328C27.6893 0.611332 31.0313 0.837765 33.6816 1.42676C36.3251 2.01423 38.243 2.95392 39.6445 4.35547C41.0461 5.75702 41.9858 7.67495 42.5732 10.3184C43.1622 12.9687 43.3887 16.3107 43.3887 20.5215V23.4785C43.3887 27.6893 43.1622 31.0313 42.5732 33.6816C41.9858 36.3251 41.0461 38.243 39.6445 39.6445C38.243 41.0461 36.3251 41.9858 33.6816 42.5732C31.0313 43.1622 27.6893 43.3887 23.4785 43.3887H20.5215C16.3107 43.3887 12.9687 43.1622 10.3184 42.5732C7.67495 41.9858 5.75702 41.0461 4.35547 39.6445C2.95392 38.243 2.01423 36.3251 1.42676 33.6816C0.837765 31.0313 0.611332 27.6893 0.611328 23.4785L0.611328 20.5215C0.611332 16.3107 0.837765 12.9687 1.42676 10.3184C2.01423 7.67495 2.95392 5.75702 4.35547 4.35547C5.75702 2.95392 7.67495 2.01423 10.3184 1.42676C12.9687 0.837765 16.3107 0.611332 20.5215 0.611328Z" stroke="white" stroke-width="1.22222"/>
<mask id="mask0_132_1458" style="mask-type:alpha" maskUnits="userSpaceOnUse" x="8" y="9" width="27" height="27">
<rect x="8" y="9" width="26.8889" height="26.8889" fill="#D9D9D9"/>
</mask>
<g mask="url(#mask0_132_1458)">
<path d="M20.5476 18.3831L24.4689 11.6609C26.1682 12.109 27.676 12.9306 28.9924 14.1257C30.3089 15.3207 31.2659 16.7399 31.8634 18.3831H20.5476ZM17.4386 21.184L13.6013 14.4618C14.6097 13.4721 15.7814 12.6879 17.1165 12.109C18.4516 11.5302 19.8941 11.2407 21.4439 11.2407C21.6867 11.2407 21.9668 11.2547 22.2842 11.2827C22.6017 11.3107 22.8911 11.3434 23.1525 11.3808L17.4386 21.184ZM10.6044 25.2454C10.4923 24.7972 10.4036 24.3397 10.3383 23.8729C10.2729 23.4061 10.2402 22.9299 10.2402 22.4444C10.2402 21.1187 10.455 19.8676 10.8844 18.6912C11.3139 17.5148 11.9208 16.4411 12.705 15.4701L18.3629 25.2454H10.6044ZM18.4469 33.228C16.7477 32.7798 15.2352 31.9582 13.9094 30.7632C12.5837 29.5681 11.622 28.149 11.0245 26.5058H22.3122L18.4469 33.228ZM21.4439 33.6481C21.1638 33.6481 20.8791 33.6295 20.5897 33.5921C20.3002 33.5548 20.0248 33.5174 19.7634 33.4801L25.4493 23.7048L29.2865 30.4271C28.2782 31.4167 27.1065 32.201 25.7714 32.7798C24.4363 33.3587 22.9938 33.6481 21.4439 33.6481ZM30.1828 29.4187L24.525 19.6435H32.2835C32.3956 20.0917 32.4843 20.5491 32.5496 21.016C32.615 21.4828 32.6476 21.9589 32.6476 22.4444C32.6476 23.7515 32.4189 25.0026 31.9614 26.1977C31.5039 27.3927 30.9111 28.4664 30.1828 29.4187Z" fill="white"/>
</g>
</svg>
