<svg width="164" height="49" viewBox="0 0 164 49" fill="none" xmlns="http://www.w3.org/2000/svg">
<path d="M8.83862 19.3178V16.402H12.3741V19.3178V19.5001V19.8645C12.3741 24.785 10.2528 29.341 6.71735 32.6213C4.77285 34.4437 2.47481 35.9016 0 36.8128V33.168C1.59095 32.4391 3.00513 31.5279 4.24254 30.2522C7.07089 27.7008 8.83862 23.8738 8.83862 19.8645V19.5001V19.3178ZM26.5159 19.3178V16.402H30.0513V19.3178V19.5001V19.8645C30.0513 23.8738 31.819 27.5186 34.6474 30.2522C35.8848 31.3456 37.299 32.4391 38.8899 33.168V36.8128C36.2383 35.9016 33.9403 34.4437 32.1726 32.6213C28.6371 29.341 26.5159 24.785 26.5159 19.8645V19.5001V19.3178ZM0 43.0089C4.06576 41.9155 7.77798 39.7286 10.7831 36.995C13.0812 34.8082 14.8489 32.4391 16.0863 29.5232C16.9701 31.8923 18.0308 33.897 19.445 35.9016C20.6824 34.0792 21.743 31.8923 22.8036 29.5232C24.041 32.2568 25.8088 34.8082 28.1068 36.995C31.1119 39.7286 34.8242 41.9155 38.8899 43.0089V39.3642C35.708 38.2707 32.8797 36.6306 30.5816 34.4437C26.6926 30.7989 24.3946 25.6962 24.3946 20.229V4.9209H20.8591V20.229C20.8591 22.9626 20.3288 26.0607 19.6217 28.612C18.7379 26.2429 18.3843 22.9626 18.3843 20.229V4.9209H14.8489V20.229C14.8489 25.6962 12.3741 30.7989 8.66185 34.4437C6.36381 36.6306 3.53545 38.2707 0.353545 39.3642V43.0089H0ZM15.9095 34.8082C15.0257 36.0838 13.965 37.1773 12.7276 38.2707C9.19216 41.551 4.94963 43.9201 0 45.0136V48.4761C5.83349 47.2005 11.1367 44.4669 15.3792 40.6398C16.2631 39.7286 17.1469 38.9997 17.854 37.9062H17.6772C16.9701 36.995 16.4398 35.9016 15.9095 34.8082ZM21.2127 38.2707C21.9198 39.1819 22.8036 39.9109 23.5107 40.8221C27.5765 44.6491 32.8797 47.5649 38.8899 48.6584V45.1958C33.9403 44.1024 29.521 41.7333 26.1623 38.453C25.1017 37.3595 24.041 36.2661 23.1572 35.1726C22.6269 36.2661 22.0965 37.1773 21.3895 38.0885C21.3895 38.0885 21.2127 38.0885 21.2127 38.2707Z" fill="#E1E0E0"/>
<path d="M54.8003 18.4062C55.6842 14.0324 56.7448 9.29421 57.0984 4.92046H61.3409V25.149H58.6893V17.1305L59.0429 9.84093C58.6893 12.21 57.0984 20.7753 55.1539 24.9668H54.8003H54.4468C52.5023 20.7753 50.9114 12.21 50.5578 9.84093L50.9114 17.1305V25.149H48.2598V4.92046H52.5023C53.0326 9.29421 54.0933 14.0324 54.8003 18.4062ZM118.085 8.38302V9.29421V10.9344C118.085 12.5745 117.378 13.668 116.317 14.3969C117.378 15.3081 118.085 16.766 118.085 18.4062V24.9668C116.14 24.9668 114.373 24.9668 112.428 24.9668H109.246V4.73823H112.428C114.373 4.73823 116.14 4.73823 118.085 4.73823V8.38302ZM112.251 16.0371V22.2332H114.903C114.903 20.9575 114.903 19.6819 114.903 18.2239C114.903 16.2193 113.489 16.0371 112.251 16.0371ZM112.251 7.65406V13.1212C113.489 13.1212 114.903 13.1212 114.903 11.1166V9.29421V7.8363H112.251V7.65406ZM100.938 25.149H97.756V4.73823H100.938H103.943H107.125V24.9668H103.943H100.938V25.149ZM103.766 7.65406H100.938V22.2332H103.766V7.65406ZM66.8209 25.149H63.639V4.73823H66.8209H69.826H73.0079V24.9668H69.826H66.8209V25.149ZM69.6492 7.65406H66.8209V22.2332H69.6492V7.65406ZM123.211 25.149H120.029V4.73823H123.211H126.216H129.398V12.939H126.216V7.65406H123.211V22.2332H126.216V16.9483H129.398V25.149H126.216H123.211ZM78.1343 25.149H74.9524V4.73823H78.1343H81.1394H84.3213V12.939H81.1394V7.65406H78.1343V22.2332H81.1394V16.9483H84.3213V25.149H81.1394H78.1343ZM134.701 25.149H131.52V4.92046H134.701V12.939H135.232C136.999 12.939 137.53 11.1166 137.53 9.84093V5.1027H140.712V9.65869C140.712 11.8456 140.005 13.3035 138.414 14.3969C140.005 15.4904 140.712 17.1305 140.712 19.1351V25.149H137.53V18.9529C137.53 17.6772 136.823 16.0371 135.232 16.0371H134.701V25.149ZM162.455 2.36911H155.561V0H162.455V2.36911ZM154.323 25.149V4.92046H157.152V16.766L160.333 4.92046H163.869V25.149H160.864V11.1166L156.975 25.3313L154.323 25.149ZM142.656 25.149V4.92046H145.485V16.766L148.666 4.92046H152.202V25.149H149.374V11.1166L145.485 25.3313L142.656 25.149ZM89.6245 25.149H86.6194V4.92046H89.8013V12.939H90.3316C92.0993 12.939 92.6296 11.1166 92.6296 9.84093V5.1027H95.8115V9.65869C95.8115 11.8456 95.1044 13.3035 93.5135 14.3969C95.1044 15.4904 95.8115 17.1305 95.8115 19.1351V25.149H92.6296V18.9529C92.6296 17.6772 91.9225 16.0371 90.3316 16.0371H89.8013V25.149H89.6245Z" fill="#E1E0E0"/>
<path d="M62.9319 48.6573H59.75V28.4287H68.9421V48.6573H65.7602V31.3445H62.7551V48.6573H62.9319ZM51.4417 48.6573H48.2598V28.4287H51.4417H54.4468H57.6287V36.6295H54.4468V31.3445H51.4417V45.9237H54.4468V40.6388H57.6287V48.8395H54.4468H51.4417V48.6573ZM74.2453 48.6573H71.0634V28.4287H74.2453H77.2504H80.4323V48.6573H77.2504H74.2453ZM77.2504 31.1623H74.4221V45.7415H77.2504V31.1623ZM92.2761 28.4287H101.999V31.3445H98.8167V48.6573H95.458V31.3445H92.2761V28.4287ZM91.3922 35.3538V36.265V37.9052C91.3922 41.0032 89.8013 43.1901 86.7961 43.1901H85.7355V48.6573H82.5536V28.4287C85.5587 28.4287 88.3871 28.4287 91.3922 28.4287V35.3538ZM85.7355 31.1623V40.2743C86.9729 40.2743 88.3871 40.092 88.3871 38.0874V36.265V31.3445H85.7355V31.1623Z" fill="#E1E0E0"/>
</svg>
