<svg width="126" height="100" viewBox="0 0 126 100" fill="none" xmlns="http://www.w3.org/2000/svg">
<path d="M121.819 9.89918C111.261 -5.23804 84.3656 -2.46423 77.1877 14.4607C73.9992 14.33 70.4613 13.8409 67.7814 16.0183C56.7917 7.72117 40.8992 12.245 31.1262 20.4431H31.1242C27.7463 23.393 24.3126 27.2599 24.3205 32.0271C24.8018 43.3967 32.0156 54.7901 43.0979 58.3279C54.6515 62.2715 68.716 55.5009 72.6975 43.864C75.6968 36.0242 73.9768 27.321 70.5969 19.9168C72.8882 19.703 75.1717 20.0076 77.3703 20.6648C79.4093 36.0079 93.9549 50.862 110.151 47.8904C125.822 43.8853 130.197 22.2845 121.819 9.89918ZM33.1438 27.1287C39.8779 20.564 49.7492 17.0047 59.0803 18.6853C62.0639 19.2575 64.569 21.3584 65.8469 24.1023C69.1734 30.8037 69.8411 39.4692 65.5266 45.8953C60.2673 53.2615 49.3371 54.8277 41.6506 50.5418C35.0899 47.1782 31.1774 40.0113 30.424 32.8367H30.426C30.0907 30.5441 31.6825 28.657 33.1438 27.1287ZM86.6945 11.3406C92.4625 7.12379 100.098 5.46437 107.069 7.15309C116.544 8.9488 122.037 19.4335 119.785 28.5027C118.675 35.1131 113.972 42.4779 106.52 42.2879C94.1737 42.2282 84.4028 30.6965 82.758 19.0222L82.76 19.0193C81.9755 15.8638 84.3894 13.1282 86.6945 11.3406ZM51.508 26.1843C49.6523 25.1827 46.0366 25.4816 46.3186 28.2927C45.6265 32.8382 51.3803 32.3732 53.8156 34.5964C55.4741 36.0397 58.3666 38.2404 60.0939 35.6648C61.4168 30.4464 55.3749 27.8097 51.508 26.1824V26.1843ZM98.8557 13.5877C95.6592 16.0702 98.6501 19.8372 101.876 20.0056C105.11 20.3125 106.936 23.0251 109.023 25.1336C111.352 26.6935 114.434 24.1257 113.323 21.5125C111.04 15.9039 104.48 13.6135 98.8557 13.5896V13.5877Z" fill="#F4D60F"/>
<path d="M23.6429 28.5413C24.6448 26.8972 26.795 26.3731 28.4452 27.3713C30.0952 28.3696 30.6202 30.512 29.6184 32.156C25.4593 38.9812 19.31 50.4737 14.4617 62.6297C9.55319 74.9365 6.23204 87.3143 7.13835 96.1642C7.33431 98.0776 5.93599 99.7868 4.01552 99.982C2.09525 100.177 0.3797 98.7848 0.18367 96.8716C-0.90732 86.219 3.01193 72.4771 7.96538 60.0576C12.979 47.4872 19.3132 35.6464 23.6429 28.5413Z" fill="#F4D60F"/>
<path d="M78.7285 73.1348C78.7285 60.1276 81.3319 50.0505 86.2966 37.5267C87.0059 35.738 89.0363 34.8612 90.8317 35.5677C92.627 36.2744 93.5079 38.2973 92.7988 40.0862C88.0435 52.0818 85.7193 61.2665 85.7193 73.1348C85.7193 75.0582 84.1543 76.6174 82.2239 76.6174C80.2935 76.6174 78.7285 75.0582 78.7285 73.1348Z" fill="#F4D60F"/>
</svg>
