<svg width="431" height="145" viewBox="0 0 431 145" fill="none" xmlns="http://www.w3.org/2000/svg">
<path d="M431 10.5L419.602 63.3955L285.222 63.4375L273.13 113.896L0 114L13.6025 61.9414H89.4102L102.933 10.5H431Z" fill="#0098FF"/>
<path d="M115.924 59L126.592 5.576L131.38 11.12H113.74L115.924 0.199996H141.292L129.532 59H115.924ZM160.831 60.008C156.463 60.008 152.403 59.42 148.651 58.244C144.955 57.068 141.819 55.388 139.243 53.204L145.795 43.208C147.699 44.888 150.023 46.204 152.767 47.156C155.567 48.108 158.535 48.584 161.671 48.584C165.703 48.584 168.811 47.828 170.995 46.316C173.179 44.804 174.271 42.704 174.271 40.016C174.271 37.944 173.403 36.32 171.667 35.144C169.931 33.912 166.991 33.296 162.847 33.296H146.887L156.463 0.199996H192.415L190.147 11.12H159.151L167.551 4.904L160.663 28.508L154.783 22.292H166.039C173.375 22.292 178.863 23.72 182.503 26.576C186.199 29.432 188.047 33.38 188.047 38.42C188.047 42.788 186.871 46.596 184.519 49.844C182.223 53.092 179.031 55.612 174.943 57.404C170.855 59.14 166.151 60.008 160.831 60.008ZM195.929 59L215.817 28.2H222.901L230.469 59H223.341L217.357 31.72H220.173L203.541 59H195.929ZM204.157 52.4L207.061 46.988H222.945L223.781 52.4H204.157ZM234.378 59L240.538 28.2H255.41C258.754 28.2 261.306 28.8013 263.066 30.004C264.855 31.2067 265.75 32.952 265.75 35.24C265.75 37.176 265.236 38.804 264.21 40.124C263.212 41.444 261.878 42.4413 260.206 43.116C258.534 43.7907 256.715 44.128 254.75 44.128L255.894 42.368C258.475 42.368 260.528 42.9693 262.054 44.172C263.608 45.3453 264.386 47.0467 264.386 49.276C264.386 51.4467 263.784 53.2653 262.582 54.732C261.408 56.1693 259.78 57.24 257.698 57.944C255.615 58.648 253.224 59 250.526 59H234.378ZM242.562 53.632H250.966C252.931 53.632 254.471 53.2653 255.586 52.532C256.73 51.7693 257.302 50.6547 257.302 49.188C257.302 48.044 256.876 47.2373 256.026 46.768C255.204 46.2693 254.09 46.02 252.682 46.02H243.266L244.322 40.828H252.33C253.562 40.828 254.618 40.6667 255.498 40.344C256.407 40.0213 257.096 39.5373 257.566 38.892C258.035 38.2173 258.27 37.4107 258.27 36.472C258.27 35.4453 257.874 34.712 257.082 34.272C256.29 33.8027 255.175 33.568 253.738 33.568H246.522L242.562 53.632ZM268.242 59L274.402 28.2H296.094L294.906 34.008H278.538L280.474 32.38L275.282 59H268.242ZM295.786 53.104C296.842 53.456 297.81 53.6173 298.69 53.588C299.6 53.5587 300.465 53.3387 301.286 52.928C302.137 52.488 302.929 51.828 303.662 50.948L305.598 48.924L306.39 48.176L320.69 28.2H327.818L309.866 52.796C308.282 54.9667 306.581 56.6093 304.762 57.724C302.944 58.8387 301.066 59.44 299.13 59.528C297.194 59.616 295.288 59.2347 293.41 58.384L295.786 53.104ZM305.466 54.116L296.622 28.2H304.058L310.218 48.88L305.466 54.116ZM340.806 59.528C337.667 59.528 334.954 58.9707 332.666 57.856C330.407 56.712 328.662 55.1427 327.43 53.148C326.198 51.124 325.582 48.792 325.582 46.152C325.582 43.5413 326.037 41.1067 326.946 38.848C327.885 36.5893 329.19 34.6387 330.862 32.996C332.563 31.324 334.573 30.0187 336.89 29.08C339.237 28.1413 341.847 27.672 344.722 27.672C347.479 27.672 349.914 28.1413 352.026 29.08C354.138 30.0187 355.737 31.368 356.822 33.128L351.674 37.352C350.882 36.1787 349.87 35.284 348.638 34.668C347.406 34.052 345.939 33.744 344.238 33.744C342.507 33.744 340.938 34.052 339.53 34.668C338.122 35.2547 336.905 36.1053 335.878 37.22C334.881 38.3053 334.118 39.5813 333.59 41.048C333.062 42.5147 332.798 44.0693 332.798 45.712C332.798 47.2667 333.135 48.6307 333.81 49.804C334.485 50.948 335.467 51.8427 336.758 52.488C338.049 53.1333 339.603 53.456 341.422 53.456C343.006 53.456 344.487 53.1773 345.866 52.62C347.245 52.0333 348.491 51.124 349.606 49.892L353.83 54.204C352.217 56.0813 350.295 57.4453 348.066 58.296C345.866 59.1173 343.446 59.528 340.806 59.528ZM363.658 59L368.894 32.38L370.17 34.008H358.862L360.006 28.2H386.714L385.57 34.008H373.998L375.934 32.38L370.698 59H363.658ZM380.007 59L399.895 28.2H406.979L414.547 59H407.419L401.435 31.72H404.251L387.619 59H380.007ZM388.235 52.4L391.139 46.988H407.023L407.859 52.4H388.235Z" fill="white"/>
<path d="M21.7825 103.528C21.1665 103.528 20.5798 103.484 20.0225 103.396C19.4651 103.308 18.8785 103.191 18.2625 103.044L19.8905 97.06C20.2718 97.148 20.6678 97.192 21.0785 97.192C22.1931 97.192 23.1611 96.796 23.9825 96.004C24.8038 95.212 25.5665 93.9067 26.2705 92.088C27.0038 90.24 27.7225 87.776 28.4265 84.696L31.4185 72.2H55.0905L48.9305 103H41.8905L47.2145 76.38L48.4905 78.008H34.8945L36.7425 76.292L34.5865 85.444C33.7945 88.8467 32.9878 91.7067 32.1665 94.024C31.3745 96.312 30.4798 98.16 29.4825 99.568C28.5145 100.947 27.3998 101.959 26.1385 102.604C24.8771 103.22 23.4251 103.528 21.7825 103.528ZM58.5589 97.104C59.6149 97.456 60.5829 97.6173 61.4629 97.588C62.3722 97.5587 63.2376 97.3387 64.0589 96.928C64.9096 96.488 65.7016 95.828 66.4349 94.948L68.3709 92.924L69.1629 92.176L83.4629 72.2H90.5909L72.6389 96.796C71.0549 98.9667 69.3536 100.609 67.5349 101.724C65.7162 102.839 63.8389 103.44 61.9029 103.528C59.9669 103.616 58.0602 103.235 56.1829 102.384L58.5589 97.104ZM68.2389 98.116L59.3949 72.2H66.8309L72.9909 92.88L68.2389 98.116ZM122.326 103L117.002 88.172L123.558 84.696L130.422 103H122.326ZM111.238 90.592L112.426 84.652H122.018L120.83 90.592H111.238ZM123.426 88.392L116.826 87.6L128.442 72.2H136.142L123.426 88.392ZM92.4936 103H84.0456L98.1696 84.696L103.67 88.172L92.4936 103ZM110.842 103H103.846L110.006 72.2H117.002L110.842 103ZM108.422 90.592H98.7856L99.9736 84.652H109.61L108.422 90.592ZM97.2896 88.392L90.9976 72.2H98.3456L103.758 87.6L97.2896 88.392ZM161.118 72.2H168.246L162.086 103H154.958L161.118 72.2ZM141.01 103H133.838L139.998 72.2H147.17L141.01 103ZM158.038 90.372H143.034L144.222 84.344H159.226L158.038 90.372ZM169.847 103L176.007 72.2H183.047L178.955 92.264L197.655 72.2H204.431L198.271 103H191.231L195.367 82.98L176.623 103H169.847ZM205.983 103L212.143 72.2H219.271L213.111 103H205.983ZM213.507 90.548L214.651 84.652H225.431L224.287 90.548H213.507ZM226.399 103L219.755 88.128L225.695 84.828L234.055 103H226.399ZM225.871 88.348L219.007 87.556L232.075 72.2H240.083L225.871 88.348ZM237.522 103L243.682 72.2H250.722L246.63 92.264L265.33 72.2H272.106L265.946 103H258.906L263.042 82.98L244.298 103H237.522Z" fill="white"/>
<path d="M226.952 144L230.872 124.4H246.664L245.908 128.012H234.596L233.812 132.044H239.272C241.288 132.044 242.828 132.492 243.892 133.388C244.975 134.265 245.516 135.544 245.516 137.224C245.516 138.624 245.143 139.828 244.396 140.836C243.649 141.844 242.585 142.628 241.204 143.188C239.823 143.729 238.161 144 236.22 144H226.952ZM232.104 140.64H236.64C237.947 140.64 238.973 140.369 239.72 139.828C240.467 139.268 240.84 138.512 240.84 137.56C240.84 136.813 240.579 136.263 240.056 135.908C239.552 135.553 238.759 135.376 237.676 135.376H233.14L232.104 140.64ZM254.202 132.296H263.638L262.938 135.824H253.502L254.202 132.296ZM252.914 140.36H263.61L262.854 144H247.678L251.598 124.4H266.41L265.654 128.04H255.378L252.914 140.36ZM276.766 144.336C274.768 144.336 273.042 143.981 271.586 143.272C270.148 142.544 269.038 141.545 268.254 140.276C267.47 138.988 267.078 137.504 267.078 135.824C267.078 134.163 267.367 132.613 267.946 131.176C268.543 129.739 269.374 128.497 270.438 127.452C271.52 126.388 272.799 125.557 274.274 124.96C275.767 124.363 277.428 124.064 279.258 124.064C281.012 124.064 282.562 124.363 283.906 124.96C285.25 125.557 286.267 126.416 286.958 127.536L283.682 130.224C283.178 129.477 282.534 128.908 281.75 128.516C280.966 128.124 280.032 127.928 278.95 127.928C277.848 127.928 276.85 128.124 275.954 128.516C275.058 128.889 274.283 129.431 273.63 130.14C272.995 130.831 272.51 131.643 272.174 132.576C271.838 133.509 271.67 134.499 271.67 135.544C271.67 136.533 271.884 137.401 272.314 138.148C272.743 138.876 273.368 139.445 274.19 139.856C275.011 140.267 276 140.472 277.158 140.472C278.166 140.472 279.108 140.295 279.986 139.94C280.863 139.567 281.656 138.988 282.366 138.204L285.054 140.948C284.027 142.143 282.804 143.011 281.386 143.552C279.986 144.075 278.446 144.336 276.766 144.336ZM287.3 144L291.22 124.4H309.056L305.136 144H300.656L303.96 127.06L304.772 128.096H293.852L295.112 127.06L291.78 144H287.3ZM310.054 144.336C309.662 144.336 309.288 144.308 308.934 144.252C308.579 144.196 308.206 144.121 307.814 144.028L308.85 140.22C309.092 140.276 309.344 140.304 309.606 140.304C310.315 140.304 310.931 140.052 311.454 139.548C311.976 139.044 312.462 138.213 312.91 137.056C313.376 135.88 313.834 134.312 314.282 132.352L316.186 124.4H331.25L327.33 144H322.85L326.238 127.06L327.05 128.096H318.398L319.574 127.004L318.202 132.828C317.698 134.993 317.184 136.813 316.662 138.288C316.158 139.744 315.588 140.92 314.954 141.816C314.338 142.693 313.628 143.337 312.826 143.748C312.023 144.14 311.099 144.336 310.054 144.336ZM330.013 144L342.669 124.4H347.177L351.993 144H347.457L343.649 126.64H345.441L334.857 144H330.013ZM335.249 139.8L337.097 136.356H347.205L347.737 139.8H335.249ZM357.836 144L361.168 127.06L361.98 128.096H354.784L355.512 124.4H372.508L371.78 128.096H364.416L365.648 127.06L362.316 144H357.836ZM388.796 124.4H393.332L389.412 144H384.876L388.796 124.4ZM376 144H371.436L375.356 124.4H379.92L376 144ZM386.836 135.964H377.288L378.044 132.128H387.592L386.836 135.964ZM404.43 144.336C402.452 144.336 400.744 143.981 399.306 143.272C397.888 142.544 396.796 141.545 396.03 140.276C395.265 138.988 394.882 137.504 394.882 135.824C394.882 134.144 395.172 132.595 395.75 131.176C396.329 129.739 397.15 128.497 398.214 127.452C399.297 126.388 400.576 125.557 402.05 124.96C403.544 124.363 405.196 124.064 407.006 124.064C408.985 124.064 410.684 124.428 412.102 125.156C413.54 125.865 414.641 126.864 415.406 128.152C416.172 129.421 416.554 130.896 416.554 132.576C416.554 134.256 416.265 135.815 415.686 137.252C415.108 138.671 414.277 139.912 413.194 140.976C412.13 142.021 410.852 142.843 409.358 143.44C407.884 144.037 406.241 144.336 404.43 144.336ZM404.822 140.472C405.924 140.472 406.913 140.276 407.79 139.884C408.686 139.473 409.442 138.913 410.058 138.204C410.674 137.495 411.141 136.683 411.458 135.768C411.794 134.835 411.962 133.855 411.962 132.828C411.962 131.857 411.757 131.008 411.346 130.28C410.936 129.533 410.329 128.955 409.526 128.544C408.742 128.133 407.772 127.928 406.614 127.928C405.513 127.928 404.524 128.133 403.646 128.544C402.769 128.936 402.013 129.487 401.378 130.196C400.762 130.905 400.286 131.727 399.95 132.66C399.633 133.575 399.474 134.545 399.474 135.572C399.474 136.543 399.68 137.401 400.09 138.148C400.52 138.876 401.126 139.445 401.91 139.856C402.713 140.267 403.684 140.472 404.822 140.472Z" fill="white"/>
</svg>
