<svg width="98" height="122" viewBox="0 0 98 122" fill="none" xmlns="http://www.w3.org/2000/svg">
<path d="M49.3565 73.7227C53.9269 68.5332 62.0595 71.6607 61.3487 78.7832C61.8965 92.8151 66.3002 107.06 64.1719 120.983C60.8936 122.273 57.489 122.403 54.2442 120.983C51.3088 105.419 49.7119 89.5458 49.3565 73.7227ZM24.1797 63.3643C30.1049 59.4147 36.1726 67.1637 31.0879 71.919C23.971 77.0292 15.6913 80.2812 7.99319 84.4395C2.66608 88.3554 -3.11232 78.8624 1.95511 75.2217C8.59105 70.0323 16.5946 66.8882 24.1797 63.3604V63.3643ZM76.7119 48.1719C83.4734 45.9926 92.2715 42.3516 97.9834 48.5723C97.9834 49.6995 98 51.9713 98 53.1153C91.4478 57.6115 83.1852 59.6238 75.3242 59.6572C70.1266 57.5155 71.8238 49.5865 76.7119 48.167V48.1719ZM9.76663 28.0235C18.4347 26.4955 26.4044 33.4048 34.4912 36.0977V36.0938C40.2826 37.3504 39.6224 47.6332 33.3125 47.0196C24.5648 45.909 16.5778 41.366 8.75003 37.5459C4.41006 35.5334 6.13719 29.6851 9.76663 28.0235ZM56.1182 3.26955C58.7317 -3.54379 69.4152 1.43302 66.8018 7.79983C64.0421 15.5319 65.7689 26.2945 57.795 31.0498C56.0681 30.3109 54.3411 29.6012 52.6309 28.9248C49.403 20.5624 53.4086 11.2977 56.1182 3.27346V3.26955Z" fill="#F4D60F"/>
</svg>
