<svg width="30" height="40" viewBox="0 0 30 40" fill="none" xmlns="http://www.w3.org/2000/svg">
<path fill-rule="evenodd" clip-rule="evenodd" d="M16.605 12.8113C17.2294 11.2661 17.621 9.34524 16.3775 9.17767C14.7053 8.95542 13.7581 11.5731 13.647 12.6843C13.6435 12.7196 13.6417 12.7531 13.6382 12.7901L13.6347 12.7937V12.7954C10.9095 13.3758 8.18429 15.406 8.07493 17.5827C7.94617 20.1403 9.63596 20.5301 10.1933 20.5301C11.6979 20.5301 12.3664 18.9744 12.3664 18.9744C12.3664 18.9744 10.8054 18.3623 10.8601 16.8595C10.9077 15.5789 11.7667 14.0972 13.6064 13.688L13.6117 13.6897C13.6082 14.2066 13.6188 14.8363 13.6347 15.5154C12.9256 16.1857 12.31 16.639 12.31 16.639L12.2553 17.752C12.2553 17.752 12.9009 17.2563 13.6664 16.5914C13.6999 17.6585 13.737 18.7627 13.7599 19.6976C13.7952 21.2145 14.0104 23.3101 13.513 24.6418C12.9503 24.4407 12.3435 24.2008 11.3646 24.1497C10.0311 24.0756 9.28142 24.5024 9.19147 25.2627C9.10856 25.9541 9.69241 26.822 11.197 26.7655C11.9078 26.7408 12.8621 26.3351 13.7035 25.6296C14.6507 26.067 15.5502 26.8167 16.9719 26.7655C18.7675 26.7003 22.5652 25.1498 22.7327 20.1438C22.8721 15.9105 19.4766 13.4692 16.605 12.8113ZM8.12785 32.4329C8.12785 32.3518 8.12785 32.2707 8.12785 32.1913C8.18429 32.2001 8.2425 32.2107 8.29894 32.2213C8.44005 32.246 8.52825 32.2442 8.56353 32.2107C8.5988 32.1789 8.61997 32.0484 8.62526 31.8174C8.63055 31.5845 8.63761 31.3411 8.64114 31.0871C8.6429 30.8331 8.64643 30.5685 8.64643 30.2951C8.64643 30.0041 8.64643 29.6707 8.64114 29.2985C8.63761 29.0727 8.6235 28.9316 8.60057 28.8769C8.58822 28.8487 8.56882 28.824 8.53707 28.7993C8.50532 28.7746 8.3695 28.7146 8.12785 28.6176C8.12785 28.5365 8.12785 28.4554 8.12785 28.3742C8.36068 28.4571 8.58646 28.5347 8.81223 28.5947C9.07329 28.6635 9.32376 28.7146 9.56541 28.757C9.66771 29.0145 9.77707 29.272 9.8882 29.5243C9.927 29.6142 10.0346 29.8524 10.2092 30.2316C10.3821 30.6091 10.6273 31.1312 10.9377 31.7927C11.264 31.1806 11.5445 30.6444 11.772 30.1857C12.0013 29.7236 12.183 29.3391 12.3153 29.0392C12.5464 29.0568 12.7651 29.0674 12.975 29.0727C13.2202 29.078 13.4548 29.0745 13.6841 29.0674C13.6841 29.1486 13.6841 29.2279 13.6841 29.3091C13.4318 29.3214 13.2889 29.3426 13.2554 29.3708C13.2219 29.399 13.2008 29.4855 13.1902 29.6319C13.1814 29.7518 13.1743 29.9282 13.1725 30.1558C13.169 30.3851 13.169 30.6673 13.169 31.0042C13.169 31.1753 13.1708 31.3499 13.1708 31.5298C13.1725 31.7098 13.1743 31.895 13.1796 32.0837C13.1884 32.4629 13.2008 32.6781 13.2202 32.7275C13.2325 32.7575 13.2519 32.7804 13.2766 32.7963C13.3031 32.8122 13.4371 32.8351 13.6823 32.8651C13.6823 32.9462 13.6823 33.0256 13.6823 33.1068C13.3701 33.0803 13.0896 33.0609 12.8462 33.0486C12.5993 33.0362 12.2641 33.0203 11.839 33.0009C11.839 32.9216 11.839 32.8422 11.839 32.7628C11.8955 32.7663 11.9519 32.7681 12.0101 32.7699C12.146 32.7751 12.2289 32.761 12.2624 32.7328C12.2977 32.7046 12.3188 32.6235 12.3276 32.4894C12.3365 32.3571 12.3435 32.0414 12.3435 31.5439C12.3435 31.2564 12.3435 30.9689 12.3435 30.6832C12.3435 30.3974 12.3435 30.1099 12.3435 29.8224C12.1936 30.1081 12.0243 30.438 11.8355 30.8084C11.6485 31.1771 11.4386 31.5898 11.2076 32.0396C11.0188 32.41 10.8689 32.7081 10.7648 32.941C10.6996 32.9339 10.6326 32.9251 10.5691 32.918C10.4967 32.7469 10.4103 32.5511 10.3151 32.3342C10.218 32.1172 10.1104 31.8738 9.98874 31.611C9.82293 31.2511 9.6536 30.8895 9.4878 30.5244C9.32199 30.1593 9.15619 29.7871 8.98862 29.4132C8.98862 29.5419 8.98862 29.6707 8.98862 29.7994C8.98862 30.3339 8.99038 30.7855 8.99215 31.1541C8.99391 31.5228 8.99744 31.8085 9.00449 32.0114C9.00979 32.1754 9.03272 32.2795 9.07152 32.3254C9.11033 32.3712 9.2532 32.4224 9.50191 32.477C9.50191 32.5564 9.50191 32.6358 9.50191 32.7152C9.30612 32.6675 9.10856 32.6252 8.91277 32.5864C8.61821 32.5247 8.35539 32.47 8.12785 32.4329ZM14.0792 33.1138C14.0792 33.0327 14.0792 32.9515 14.0792 32.8722C14.1973 32.8739 14.2944 32.8704 14.3755 32.8616C14.4531 32.8528 14.5007 32.8369 14.5184 32.8175C14.5342 32.7981 14.5466 32.7681 14.5519 32.7293C14.5589 32.6905 14.5678 32.5335 14.5801 32.2601C14.5907 31.9832 14.5977 31.6709 14.5977 31.3199C14.5977 31.013 14.596 30.7431 14.5925 30.5103C14.5889 30.2775 14.5854 30.0781 14.5783 29.9176C14.566 29.5948 14.5431 29.4184 14.5096 29.3867C14.4778 29.3549 14.3332 29.3302 14.0792 29.3144C14.0792 29.2315 14.0792 29.1503 14.0792 29.0692C14.3861 29.0851 14.6806 29.0939 14.9611 29.0939C15.3051 29.0921 15.6737 29.078 16.0671 29.0516C16.3175 29.0339 16.5468 29.018 16.7532 29.0075C16.8696 29.0004 16.9737 28.9951 17.0707 28.9951C17.0813 29.0163 17.0901 29.0374 17.0989 29.0568C17.0566 29.3038 17.0319 29.5966 17.0231 29.9353C16.9419 29.9406 16.8608 29.9441 16.7797 29.9494C16.762 29.6742 16.7497 29.519 16.7391 29.4837C16.7285 29.4484 16.6544 29.422 16.5168 29.4043C16.3775 29.3867 16.2082 29.3814 16.0036 29.3885C15.8025 29.3955 15.6173 29.4079 15.4497 29.429C15.4338 29.6195 15.4215 29.8435 15.4127 30.0958C15.4038 30.3498 15.4003 30.632 15.4003 30.9477C15.4003 31.0765 15.4021 31.2317 15.4038 31.4081C15.4074 31.5863 15.4109 31.7874 15.4162 32.0131C15.4268 32.4647 15.4409 32.7116 15.4603 32.754C15.4797 32.7946 15.5079 32.8245 15.5449 32.8404C15.582 32.8563 15.739 32.8704 16.0177 32.8775C16.0177 32.9586 16.0177 33.0415 16.0177 33.1226C15.7319 33.1121 15.4426 33.1103 15.1498 33.1103C14.8994 33.105 14.5413 33.1085 14.0792 33.1138ZM19.5913 32.948C18.8804 33.0344 18.3336 32.888 17.9579 32.5441C17.7674 32.3712 17.6263 32.1595 17.5328 31.9108C17.4394 31.6621 17.3917 31.3746 17.3917 31.0501C17.3917 30.8243 17.4147 30.6126 17.4605 30.4168C17.5064 30.221 17.5769 30.0411 17.6687 29.8735C17.8521 29.5402 18.1061 29.2738 18.4289 29.0692C18.7552 28.8628 19.1715 28.727 19.683 28.6582C20.1751 28.5929 20.5755 28.6141 20.8895 28.727C21.1999 28.8399 21.4416 29.0233 21.6109 29.2791C21.6938 29.4061 21.7591 29.5543 21.7997 29.7218C21.8402 29.8876 21.8649 30.0764 21.8649 30.2845C21.8649 30.5103 21.8402 30.7255 21.7944 30.9319C21.7485 31.1382 21.6779 31.3358 21.5862 31.5245C21.401 31.902 21.1435 32.223 20.8048 32.4735C20.4662 32.7258 20.0605 32.8898 19.5913 32.948ZM19.6989 32.6111C20.0869 32.5582 20.3956 32.3589 20.6249 32.0255C20.7396 31.8579 20.826 31.6568 20.8842 31.424C20.9424 31.1912 20.9706 30.9266 20.9706 30.6285C20.9706 30.3163 20.9371 30.0464 20.8701 29.8188C20.8048 29.5913 20.706 29.4026 20.5755 29.2562C20.3621 29.0198 20.0322 28.9351 19.586 28.9951C19.1697 29.0516 18.8452 29.2279 18.6176 29.5349C18.503 29.6883 18.4183 29.8753 18.3619 30.0975C18.3054 30.3198 18.2772 30.5756 18.2772 30.8684C18.2772 31.0783 18.2931 31.2723 18.3231 31.4469C18.353 31.6216 18.4024 31.7803 18.4642 31.9214C18.5894 32.2019 18.7481 32.3994 18.9422 32.5088C19.1362 32.6146 19.3902 32.6534 19.6989 32.6111ZM23.1102 25.3703C23.2601 25.4514 23.3924 25.5431 23.4877 25.6419C23.6129 25.7725 23.6799 25.9524 23.6535 26.1094H23.6552C23.6552 26.9172 23.657 27.7233 23.6888 28.5171C24.0715 28.3936 24.4684 28.256 24.8529 28.1061C25.622 27.808 26.3875 27.4535 27.1142 27.0301C26.9802 26.8731 26.7844 26.6403 26.5886 26.3969C26.3328 26.0794 26.0876 25.7548 26.0083 25.5855L25.9589 25.4779L26.0153 25.3756C26.0171 25.3738 26.4545 24.5783 26.7367 23.7493C26.8338 23.4653 26.9643 23.0402 27.0701 22.6892C26.4528 23.0807 25.7754 23.4388 25.0928 23.7581C24.6748 23.9521 24.2426 24.1356 23.8281 24.2996L23.1102 25.3703ZM23.7117 28.9916C23.7664 29.907 23.8704 30.8155 24.0698 31.7133C24.322 32.7945 23.0291 33.5636 21.0165 34.0328C19.8594 34.3027 18.4536 34.4808 16.9737 34.5655L14.9646 37.5783L12.9591 34.569C11.5268 34.4897 10.1704 34.3203 9.04859 34.061C7.05188 33.5989 5.76955 32.8316 6.00414 31.7344C6.01649 31.588 6.15054 29.9476 6.22639 28.9228C5.80659 28.7905 5.38502 28.6423 4.96345 28.48C4.09386 28.1431 3.22956 27.7357 2.41642 27.2383L2.18359 27.0954L2.3635 26.889C2.36703 26.8855 3.25426 25.8659 3.51708 25.4497C3.38302 25.1939 3.0567 24.5465 2.83093 23.878C2.64396 23.3277 2.31764 22.2059 2.31764 22.2023L2.12891 21.5656L2.67042 21.9501C3.38655 22.4581 4.22968 22.9202 5.09045 23.3206C5.26684 23.4035 5.44323 23.4829 5.61962 23.5588L3.24544 19.9992L14.9646 2.42017L26.6856 19.9992L24.2797 23.6134C24.4807 23.527 24.6924 23.4318 24.8935 23.3383C25.7613 22.9343 26.6115 22.4669 27.3347 21.9554L27.8727 21.5744L27.6892 22.2076C27.6875 22.2111 27.3594 23.3471 27.1707 23.8974C26.9413 24.5748 26.6133 25.2274 26.4775 25.4832C26.5727 25.6349 26.7544 25.8695 26.9449 26.1076C27.1795 26.3986 27.4441 26.7073 27.5693 26.8537C27.6134 26.9031 27.6504 26.949 27.6504 26.949L27.8021 27.1518L27.5852 27.2841C26.7667 27.7851 25.8954 28.1961 25.017 28.5365C24.5848 28.7023 24.1421 28.8558 23.7117 28.9916ZM6.26167 28.4501C6.26696 28.3672 6.27225 28.2966 6.27578 28.2402C6.28989 27.995 6.30753 27.6581 6.32164 27.3229C6.34104 26.8661 6.35868 26.4163 6.36574 26.2046V26.2011L6.36926 26.1993C6.36397 26.1817 6.36045 26.164 6.35692 26.1464C6.33046 25.9894 6.39749 25.8095 6.52272 25.679C6.61092 25.5872 6.73086 25.5026 6.86668 25.425L6.08352 24.2502C5.69194 24.0932 5.2933 23.9221 4.89819 23.7387C4.22086 23.4229 3.55235 23.0684 2.94029 22.6821C3.04436 23.0296 3.17312 23.4494 3.26837 23.7281C3.54883 24.5518 3.98098 25.3368 3.98274 25.3385L4.04095 25.4426L3.9898 25.5484C3.85398 25.8342 3.21193 26.6068 2.89266 26.9807C3.61233 27.4005 4.37079 27.7516 5.13279 28.0479C5.50673 28.1961 5.8842 28.3301 6.26167 28.4501ZM9.25673 27.4376L4.29671 20.001L14.9664 4.00591L25.6378 20.001L20.7237 27.3723C19.7077 27.5805 18.4571 27.7286 17.1289 27.8133C15.9877 27.8856 14.7935 27.9085 13.6382 27.8803C12.4829 27.8521 11.361 27.771 10.3697 27.6387C9.97286 27.5875 9.60068 27.5187 9.25673 27.4376ZM15.8871 34.6114C15.6032 34.6184 15.3156 34.6237 15.0299 34.6237C14.7001 34.6255 14.3702 34.622 14.0439 34.6131L14.9646 35.9943L15.8871 34.6114ZM6.78025 27.0901C6.78554 26.9754 6.79083 26.8626 6.79436 26.7514C7.42759 27.27 8.71169 27.8838 10.3062 28.0973C11.3134 28.2313 12.4511 28.3125 13.6241 28.3425C14.7988 28.3707 16.0071 28.3478 17.1554 28.2754C19.84 28.1026 22.2247 27.6316 23.1949 26.8696C23.1984 27.5663 23.2108 28.2631 23.2496 28.9669C23.3042 29.9212 23.4118 30.8719 23.6217 31.8174V31.8209C23.7999 32.5829 22.6604 33.1791 20.9124 33.5883C19.2861 33.9675 17.1589 34.1616 15.0299 34.1686C12.9009 34.1739 10.7737 33.9922 9.1509 33.6183C7.40819 33.2161 6.27401 32.6129 6.45746 31.8209L6.46099 31.8032L6.46275 31.7891C6.46275 31.7821 6.69205 28.9704 6.73439 28.2737C6.7485 28.0373 6.76437 27.4393 6.78025 27.0901ZM15.709 12.5732C15.7019 12.6014 15.6931 12.6314 15.6861 12.6579C15.4832 12.6402 15.2857 12.6279 15.0969 12.6279C14.9223 12.6279 14.7406 12.6367 14.5589 12.6526C15.0158 10.5764 16.1482 10.707 15.709 12.5732ZM14.4143 13.5804L14.4231 13.5557C14.4231 13.5645 14.4231 13.5716 14.4214 13.5804C14.4972 13.5768 14.5731 13.5768 14.6489 13.5768C14.8553 13.5768 15.0581 13.5821 15.261 13.598C15.0352 13.9684 14.7512 14.3353 14.4496 14.6758C14.4072 14.3406 14.3931 13.9772 14.4214 13.5804C14.4178 13.5804 14.4161 13.5804 14.4143 13.5804ZM11.5727 25.9048C10.0681 25.9048 10.3662 24.7953 11.6944 24.9822C12.0401 25.0281 12.5358 25.1798 13.1126 25.3509C12.8074 25.6719 12.1424 25.9048 11.5727 25.9048ZM19.5525 18.6939C19.4413 22.7562 18.503 25.3509 15.9877 25.425C15.2715 25.4444 14.7706 25.268 14.2979 25.0387C14.9787 24.2679 15.5855 23.2236 15.9877 21.8637C16.9896 18.4699 16.9349 17.5245 16.9349 17.5245C16.9349 17.5245 15.8748 17.6356 15.3739 16.9671C15.1516 16.6743 14.8764 16.235 14.6771 15.6565C15.1939 15.1502 15.6649 14.6264 15.9312 14.1854C16.0124 14.0496 16.1006 13.8926 16.187 13.7232C18.1079 14.1342 19.6442 15.4625 19.5525 18.6939Z" fill="white"/>
</svg>
