<svg width="53" height="26" viewBox="0 0 53 26" fill="none" xmlns="http://www.w3.org/2000/svg">
<path d="M26.8842 3.5052H28.9782V7.27192H29.7301V2.82617H26.1338V7.27192H26.8857V3.5052H26.8842Z" fill="white"/>
<path d="M36.1653 7.34709C37.4185 7.34709 38.2505 6.39266 38.2505 5.05208C38.2505 3.71151 37.4185 2.75708 36.1653 2.75708C34.9121 2.75708 34.0801 3.71151 34.0801 5.05208C34.0801 6.39266 34.9121 7.34709 36.1653 7.34709ZM36.1653 3.4434C36.9901 3.4434 37.4826 4.11368 37.4826 5.05208C37.4826 5.99049 36.9813 6.66077 36.1653 6.66077C35.3493 6.66077 34.8553 5.99049 34.8553 5.05208C34.8466 4.11514 35.3405 3.4434 36.1653 3.4434Z" fill="white"/>
<path d="M28.4828 18.8812L27.0605 15.438H26.1309V19.8837H26.8507V16.6664L28.1767 19.8677H28.7829L30.1002 16.6664V19.8837H30.8113V15.438H29.8977L28.4828 18.8812Z" fill="white"/>
<path d="M43.1884 5.22682L44.9749 7.27119H45.9206L43.9403 4.95142L45.8798 2.82544H44.9662L43.1884 4.74887V2.82544H42.4365V7.27119H43.1884V5.22682Z" fill="white"/>
<path d="M41.7729 6.59289H39.6308V5.32372H41.6519V4.66946H39.6308V3.5052H41.7729V2.82617H38.8789V7.27192H41.7729V6.59289Z" fill="white"/>
<path d="M36.6977 12.0405H37.5793C38.5162 12.0405 39.0904 11.3863 39.0904 10.5863C39.0904 9.78634 38.541 9.13208 37.5545 9.13208H35.9385V13.5778H36.6904V12.042H36.6991L36.6977 12.0405ZM36.6977 9.79362H37.4904C38.0397 9.79362 38.3385 10.1171 38.3385 10.5863C38.3385 11.0555 38.031 11.3863 37.4904 11.3863H36.6977V9.79362Z" fill="white"/>
<path d="M49.558 2.82617H46.0098V3.5052H47.4087V7.27192H48.1606V3.5052H49.5595V2.82617H49.558Z" fill="white"/>
<path d="M46.9077 17.5603C47.1904 17.4394 47.4891 17.1232 47.4891 16.5986C47.4891 15.9517 47.0199 15.4431 46.115 15.4431H44.4014V19.8889H46.1718C47.0855 19.8889 47.6596 19.3628 47.6596 18.6284C47.6596 17.9742 47.2312 17.6507 46.9077 17.5618V17.5603ZM45.1533 16.0813H46.0101C46.4633 16.0813 46.7299 16.3072 46.7299 16.6875C46.7299 17.027 46.5114 17.2937 46.0436 17.2937H45.1547V16.0813H45.1533ZM46.0902 19.2332H45.1533V17.9071H46.1238C46.6003 17.9071 46.9004 18.1578 46.9004 18.5701C46.8917 18.9985 46.5697 19.2332 46.0917 19.2332H46.0902Z" fill="white"/>
<path d="M43.9657 15.438H43.0521L41.2656 17.3614V15.438H40.5137V19.8837H41.2656V17.8394L43.0521 19.8837H44.0065L42.0175 17.564L43.9657 15.438Z" fill="white"/>
<path d="M52.5839 15.438H51.832V19.8837H52.5839V15.438Z" fill="white"/>
<path d="M28.4828 12.5753L27.0605 9.13208H26.1309V13.5778H26.8507V10.3605L28.1767 13.5618H28.7829L30.1002 10.3605V13.5778H30.8113V9.13208H29.8977L28.4828 12.5753Z" fill="white"/>
<path d="M42.2781 13.5764H43.0708L41.414 9.13062H40.63L38.9805 13.5764H39.7732L40.1448 12.5258H41.8992L42.2795 13.5764H42.2781ZM40.3706 11.8715L41.0176 10.0282L41.6646 11.8715H40.3721H40.3706Z" fill="white"/>
<path d="M49.8529 17.0146H48.996V15.438H48.2441V19.8837H49.8689C50.7986 19.8837 51.38 19.2455 51.38 18.4455C51.38 17.6456 50.8219 17.0146 49.8529 17.0146ZM49.78 19.2207H48.996V17.6776H49.78C50.3133 17.6776 50.6208 17.9763 50.6208 18.4455C50.6208 18.9147 50.3061 19.2222 49.78 19.2222V19.2207Z" fill="white"/>
<path d="M33.7105 4.2804C33.7105 3.47169 33.1611 2.82617 32.1746 2.82617H30.5586V7.27192H31.3105V5.73609H32.1921C33.1378 5.73609 33.7119 5.08183 33.7119 4.28186L33.7105 4.2804ZM31.3105 5.08038V3.48772H32.1032C32.6526 3.48772 32.9513 3.8112 32.9513 4.2804C32.9513 4.7496 32.6438 5.08038 32.1032 5.08038H31.3105Z" fill="white"/>
<path d="M38.0528 19.2699C37.2761 19.2699 36.7836 18.5996 36.7836 17.6612C36.7836 16.7228 37.2848 16.0525 38.0528 16.0525C38.6998 16.0525 39.0466 16.4401 39.1675 16.8933H39.9194C39.7897 16.0613 39.1602 15.3662 38.0528 15.3662C36.8477 15.3662 36.0156 16.3119 36.0156 17.6612C36.0156 19.0105 36.8724 19.9562 38.0528 19.9562C39.2331 19.9562 39.8553 19.1082 39.9354 18.4204H39.1763C39.1121 18.8007 38.7478 19.2684 38.0528 19.2684V19.2699Z" fill="white"/>
<path d="M33.2914 12.9698C32.5875 12.9698 32.2568 12.5094 32.1591 12.1859H31.4072C31.5049 12.8081 32.0542 13.6488 33.2826 13.6488C34.4469 13.6488 35.327 12.792 35.327 11.3538C35.327 9.91564 34.479 9.05884 33.2899 9.05884C32.1985 9.05884 31.5602 9.76264 31.4233 10.5218H32.1664C32.2961 10.1182 32.6429 9.73787 33.2899 9.73787C33.9369 9.73787 34.4382 10.1823 34.5431 10.991H32.7814V11.638H34.5518C34.479 12.47 33.9937 12.9713 33.2914 12.9713V12.9698Z" fill="white"/>
<path d="M33.5188 15.3662C32.2656 15.3662 31.4336 16.3206 31.4336 17.6612C31.4336 19.0018 32.2656 19.9562 33.5188 19.9562C34.772 19.9562 35.604 19.0018 35.604 17.6612C35.604 16.3206 34.772 15.3662 33.5188 15.3662ZM33.5188 19.2699C32.6941 19.2699 32.2088 18.5996 32.2088 17.6612C32.2088 16.7228 32.7013 16.0525 33.5188 16.0525C34.3363 16.0525 34.8361 16.7228 34.8361 17.6612C34.8361 18.5996 34.3436 19.2699 33.5188 19.2699Z" fill="white"/>
<path d="M1.65757 17.1619L2.22295 16.9754C2.10929 16.6447 2.27104 16.3605 2.48962 16.2643C2.56976 16.2235 2.65865 16.1915 2.75628 16.1594C3.26484 15.9729 3.95263 15.7223 4.29215 14.3977C4.46993 13.6867 4.75262 13.3544 5.05134 13.2102C4.88231 13.8324 4.95371 14.4225 5.01928 14.9238C5.06008 15.2545 5.09943 15.5707 5.06008 15.8126C4.99597 16.1842 4.72056 16.5077 4.23532 16.8064L4.1304 16.8705L4.09835 16.9915C4.09835 16.9915 3.62185 18.6963 3.37121 19.5779L3.34644 19.6668L3.37121 19.7557C3.39598 19.8606 3.42804 19.9582 3.45136 20.0544C3.58105 20.5236 3.68596 20.8952 3.68596 21.5334H4.33295C4.33295 20.8063 4.21201 20.3779 4.07503 19.8839C4.059 19.8198 4.03423 19.7469 4.0182 19.6814C4.13186 19.2938 4.27612 18.7677 4.40581 18.3C4.59962 18.2519 4.77739 18.2023 4.93914 18.163C5.79596 17.9532 6.22437 17.8395 7.07245 17.3791C7.74276 17.0075 8.24403 16.3693 8.45386 16.0618C9.01196 16.1099 10.5959 16.2148 11.7034 16.005C12.738 15.8112 13.3529 15.5605 13.6429 15.4148L14.7256 16.8938L14.6454 16.9507L14.2651 17.2421L14.4749 17.5015C14.4837 17.5102 14.9762 18.1164 15.2268 18.4471C15.2749 18.52 15.5183 18.8843 15.17 19.2471C14.8553 19.5779 14.1995 19.6435 13.8279 19.3768C13.6822 19.2719 13.5933 19.1349 13.5686 18.9644C13.5438 18.8027 13.5846 18.6249 13.6735 18.504C14.0043 18.0668 14.0771 17.567 13.876 17.1547C13.707 16.8151 13.3748 16.6126 12.9784 16.6126C12.7438 16.6126 12.4611 16.6126 12.1303 16.6213C11.2983 16.6301 10.2549 16.6461 9.21305 16.6126L8.63164 16.5966L8.92308 17.0978C8.92308 17.1066 9.12562 17.4373 9.31943 17.8249C8.80213 17.6953 8.05022 17.6224 7.13657 17.8497C6.15006 18.1003 5.1242 18.9163 5.03531 20.1695C4.99451 20.6955 5.14897 21.172 5.4477 21.5188C5.71436 21.8263 6.07866 21.9953 6.49832 22.0274H6.59596C7.06517 22.0274 7.49358 21.8248 7.76024 21.4693C8.01962 21.1298 8.09102 20.7101 7.96279 20.3138C7.9147 20.1768 7.85788 20.0631 7.78502 19.9582C8.22071 19.8941 8.48883 20.0631 8.57772 20.2336C8.78027 20.6139 8.3912 21.0015 8.37517 21.0176L8.18865 21.1953L9.02945 22.6015H11.5183V21.9545H10.6702C10.6061 21.8904 10.5085 21.7855 10.4356 21.631C10.3788 21.5174 10.2171 21.1385 10.4677 20.952C10.6367 20.8223 10.7985 20.8223 11.1715 20.968C11.4061 21.0569 11.6087 21.1618 11.8258 21.2755C12.3751 21.5582 12.9405 21.8569 13.9839 21.8816L14.2753 22.6015H16.8705V21.9545H15.7791L15.7063 21.6718C16.2323 21.4853 16.6928 21.1953 17.0323 20.815C17.5816 20.2001 17.8323 19.3768 17.7594 18.4384C17.8483 18.3408 18.0013 18.1878 18.131 18.0581L18.4545 17.7433L17.6953 17.363C17.0483 17.0483 16.7336 16.7569 16.4582 15.8024L16.2804 15.1321L15.6655 15.3507C15.3012 15.4804 15.0505 15.8039 14.9952 16.1667L14.284 15.1963C14.8334 15.1875 15.3755 14.9777 15.6261 14.832C16.6855 14.2098 17.2348 13.895 17.5088 13.7333C17.9372 14.2506 18.6731 15.2123 18.8188 15.6567C18.8829 15.8593 18.8989 16.6111 18.8829 17.0876L19.5299 17.1037C19.5386 16.8938 19.5547 15.8432 19.4323 15.4542C19.1904 14.7271 17.9693 13.2714 17.8235 13.1096L17.6778 12.9319L17.6618 12.8911C17.2013 13.1257 16.7073 13.1898 16.3445 13.1898C16.531 12.9391 16.684 12.6156 16.7642 12.2033L18.3321 11.3552C18.7037 11.7749 19.3259 12.5268 19.4716 12.9158C19.5518 13.1344 19.6013 13.9344 19.6173 14.4356L20.2643 14.4196C20.2556 14.201 20.2235 13.0936 20.0865 12.6987C19.8447 12.0357 18.7693 10.8642 18.6483 10.7272L18.4793 10.5407L16.8064 11.4456C16.6928 10.6208 16.1434 9.94179 15.7237 9.41721C15.6261 9.29627 15.5372 9.18261 15.4644 9.08644C15.3274 8.89264 15.1656 8.61724 15.0199 8.35933C15.2137 8.3841 15.4323 8.37535 15.6829 8.31124C15.8447 8.3433 16.3052 8.50504 16.6695 8.65804L16.8633 8.73818L17.2028 8.4147C17.6224 8.01107 17.6312 7.33204 17.2276 6.91092L15.9831 5.64175V5.16526L15.8053 5.07638C15.7252 5.03558 15.0374 4.7048 14.6338 4.63923C14.0684 4.52557 13.0979 4.50955 12.3139 5.33429L11.5139 5.10843C11.562 4.82575 11.5868 4.68003 11.6028 4.511L11.6189 4.37403C11.7558 3.44437 11.2065 2.7974 10.7941 2.48266C10.915 2.18394 10.9631 1.7468 10.6163 1.4C10.3249 1.10857 9.96933 1.04445 9.44475 1.19017C9.13728 1.27031 8.87062 1.4816 8.58792 1.69142C8.47426 1.78031 8.35332 1.8692 8.23237 1.94934C7.58538 2.39377 7.04477 1.97411 6.7781 1.69142L6.30889 2.1446C6.71253 2.58174 7.19048 2.8076 7.65824 2.8076C7.98173 2.8076 8.29649 2.70268 8.60395 2.50014C8.74093 2.40251 8.87062 2.30634 8.98428 2.21745C9.22617 2.03094 9.42872 1.87794 9.61524 1.82985C10.0028 1.72494 10.1005 1.81383 10.1646 1.87794C10.3424 2.05571 10.1646 2.3384 10.1398 2.36317C9.79301 2.50014 8.89539 2.88046 8.77444 3.94709C8.74238 4.18897 8.72635 4.47312 8.71033 4.68295C8.29794 4.6742 7.58684 4.73977 6.93985 5.16818L4.52384 1.86191L3.9978 2.24223L5.13731 3.80283C5.01637 3.97186 4.6681 4.52995 4.8794 4.97438C5.01637 5.2658 5.43749 6.13863 5.62256 6.52624C5.25098 6.97941 4.22366 8.3127 3.68305 9.83979L3.51402 10.3163L4.01529 10.2682C4.76719 10.1953 5.114 10.3658 5.48558 10.5436C5.63859 10.6164 5.79305 10.6893 5.97811 10.7461C6.65716 10.9647 7.1424 10.8831 7.56207 10.8102C7.6189 10.9152 7.68301 11.0201 7.74859 11.1177C7.61161 11.1177 7.46589 11.1337 7.32017 11.1658L7.27209 11.1745C6.94859 11.2386 6.63384 11.3115 6.31035 11.498C6.06845 11.2474 5.60653 10.9166 4.8794 10.9166C3.74716 10.9166 2.93114 11.6277 2.62368 12.8809C2.34827 14.0131 2.07432 14.3351 1.84846 14.5945C1.74354 14.7154 1.62988 14.8451 1.54973 15.0316C1.21021 15.7675 1.2991 16.3576 1.59053 17.1736L1.66339 17.1649L1.65757 17.1619ZM15.0986 21.9385H14.7023L14.6702 21.8569C14.8072 21.8481 14.9369 21.8321 15.0666 21.8088L15.0986 21.9385ZM15.4542 17.1459L15.4862 17.057C15.5023 17.0162 15.648 16.6374 15.6232 16.3212C15.6145 16.1755 15.6961 16.0297 15.8257 15.9656C16.1653 17.1139 16.6097 17.5262 17.3529 17.8978C17.2727 17.9867 17.1999 18.0668 17.1591 18.1164L17.0862 18.2213L17.1022 18.3422C17.1911 19.1582 16.9973 19.8533 16.5441 20.3546C16.2775 20.646 15.9292 20.8806 15.5183 21.0248L14.9441 21.1706C14.7751 21.1953 14.5973 21.2114 14.4181 21.2186V21.2099H14.1106C13.1402 21.2099 12.6476 20.952 12.123 20.6766C11.9045 20.5629 11.6699 20.442 11.4119 20.3371C11.1292 20.2234 10.6032 20.0223 10.0946 20.4012C9.65749 20.7159 9.56861 21.2988 9.86878 21.8889C9.87753 21.8977 9.87753 21.9137 9.88481 21.921H9.40832L9.01196 21.2507C9.25386 20.9272 9.44912 20.4099 9.16497 19.8926C8.91433 19.4322 8.3402 19.1888 7.7107 19.2865C6.91071 19.4074 6.60324 19.8285 6.48958 20.2001C6.47355 20.2322 6.46481 20.273 6.45752 20.3138V20.3618C6.45752 20.5717 6.62655 20.7494 6.84513 20.7494C7.06371 20.7494 7.23274 20.5804 7.23274 20.3618C7.23274 20.321 7.224 20.2817 7.21671 20.2409C7.27354 20.273 7.33766 20.3458 7.38575 20.4828C7.44986 20.6693 7.41052 20.8704 7.28083 21.0409C7.11908 21.2507 6.85242 21.3644 6.56972 21.3396C6.32783 21.3236 6.11654 21.2259 5.96354 21.0482C5.77702 20.8383 5.68813 20.5221 5.7129 20.1666C5.78576 19.1 6.76353 18.5666 7.32163 18.4282C8.80941 18.0566 9.75513 18.606 9.79447 18.622L10.5784 19.0985L10.2637 18.2344C10.15 17.9197 9.94893 17.5306 9.78718 17.2159C10.66 17.2319 11.5081 17.2159 12.1638 17.2071C12.4946 17.1984 12.7788 17.1984 13.0046 17.1984C13.1504 17.1984 13.2626 17.2625 13.3194 17.3849C13.3923 17.5306 13.3923 17.7812 13.1824 18.0552C12.9886 18.3145 12.907 18.6701 12.9566 19.0009C13.0046 19.3404 13.1912 19.6318 13.4739 19.8329C14.1121 20.2934 15.1146 20.1972 15.6567 19.6231C16.1653 19.081 16.0764 18.4195 15.7616 17.9911C15.6086 17.7885 15.374 17.4985 15.2035 17.2873L15.4542 17.1415V17.1459ZM8.95513 5.34595L9.31943 5.41006L9.33546 5.03849C9.33546 5.02975 9.36023 4.45709 9.4156 4.01994C9.49575 3.34091 10.0538 3.09029 10.3526 2.96934C10.5784 3.13837 11.0797 3.58426 10.9835 4.2866L10.9675 4.42357C10.9354 4.6334 10.9107 4.81118 10.8305 5.28038L10.7737 5.57181L11.9059 5.89529C11.3478 6.88178 11.3566 8.11015 11.4134 8.97424C11.4702 9.8223 11.7282 10.599 11.7442 10.631L12.3591 10.4285C12.3591 10.4197 12.1172 9.69261 12.0604 8.93344C12.0036 8.09267 11.9963 6.87304 12.5864 6.02352C13.1606 5.2148 13.9445 5.15943 14.4939 5.25561C14.6964 5.28766 15.068 5.44212 15.3099 5.55432V5.88509L16.7321 7.34807C16.805 7.42821 16.8531 7.53458 16.8458 7.63949C16.8458 7.75315 16.7977 7.85807 16.7248 7.93092L16.6928 7.96298C16.362 7.8333 15.868 7.64824 15.6421 7.63949H15.5941L15.546 7.65552C14.9237 7.82455 14.593 7.51855 14.5842 7.50252L14.2695 7.17175L14.0669 7.58412C13.9941 7.72984 13.9868 7.8027 14.3423 8.48901C14.44 8.67553 14.6891 9.14327 14.9165 9.45947C14.9966 9.57313 15.0942 9.69407 15.1992 9.81501C15.6844 10.4124 16.2818 11.157 16.1361 12.0051C16.0472 12.5384 15.8053 12.8532 15.4819 13.1606L15.1263 13.4914L15.5707 13.6939C15.6757 13.742 15.8534 13.7828 16.072 13.8076C15.8534 13.9373 15.5955 14.083 15.2968 14.2608C15.0782 14.3817 14.1165 14.7781 13.656 14.3336L7.32746 5.68546C8.07062 5.20898 8.95222 5.34595 8.9595 5.34595H8.95513ZM7.41926 11.82L7.46735 11.8113C8.00068 11.6976 8.52672 11.8914 8.52672 11.8914C8.79339 12.078 9.10085 12.2222 9.4156 12.3038L9.58463 11.6816C8.8983 11.4951 8.31543 10.9778 8.0648 10.3396L7.96716 10.105L7.71653 10.1458C7.64367 10.1545 7.56352 10.1706 7.49066 10.1866C7.09431 10.2507 6.72273 10.3163 6.18066 10.1458C6.03494 10.0977 5.90525 10.0409 5.76827 9.97676C5.43749 9.82376 5.0732 9.64599 4.46701 9.62996C5.13003 8.09413 6.23749 6.82495 6.24477 6.80892L6.38175 6.64718L6.29286 6.45338C6.29286 6.45338 5.64587 5.08803 5.46081 4.70772C5.43604 4.66692 5.47684 4.52995 5.5497 4.37695L13.2363 14.8684C12.9609 14.9893 12.4276 15.1919 11.5708 15.3536C10.3424 15.5882 8.33 15.3857 8.31397 15.3857L8.11142 15.3609L8.00651 15.5387C7.99776 15.5474 7.48921 16.3955 6.75333 16.7918C5.97811 17.2115 5.60507 17.3091 4.77302 17.5189C4.71619 17.535 4.65936 17.551 4.59525 17.5597C4.6273 17.4461 4.65207 17.3499 4.67539 17.2771C5.24952 16.8895 5.58904 16.4363 5.68522 15.919C5.74933 15.5795 5.70125 15.2152 5.65316 14.8363C5.56427 14.1165 5.46664 13.3734 6.04951 12.6142C6.52601 12.008 6.88156 11.9352 7.41489 11.8215L7.41926 11.82ZM2.35118 15.0287C2.60182 14.7373 2.94863 14.3336 3.25609 13.0484C3.41784 12.3781 3.83751 11.5782 4.88085 11.5782C5.35006 11.5782 5.64004 11.7647 5.80179 11.9177C5.7129 12.0066 5.62402 12.1115 5.53513 12.2251C5.47101 12.3053 5.41418 12.3869 5.36609 12.467C4.70308 12.5238 3.98468 12.9115 3.65245 14.2375C3.40181 15.24 2.9734 15.393 2.52022 15.5547C2.4153 15.5955 2.30164 15.6349 2.19672 15.6844C2.12386 15.7165 2.051 15.7645 1.98689 15.8141C2.01166 15.6523 2.051 15.4993 2.13261 15.3216C2.19672 15.2079 2.2623 15.1351 2.35118 15.0301V15.0287Z" fill="white"/>
<path d="M0 20.0358C0 22.6382 1.5519 24.1901 4.15443 24.1901H7.21014C8.52014 24.1901 9.77186 24.7482 10.6447 25.7332L10.8866 25.9998L11.1285 25.7332C12.0014 24.7554 13.2545 24.1901 14.5631 24.1901H17.6188C20.2942 24.1901 21.7732 22.7111 21.7732 20.0358V0H0V20.0358ZM0.646989 0.645516H21.1277V20.0358C21.1277 22.3308 19.9153 23.5431 17.6202 23.5431H14.5645C13.1904 23.5431 11.8644 24.0852 10.8866 25.0469C9.90884 24.0852 8.5828 23.5431 7.20868 23.5431H4.15297C1.92202 23.5431 0.645532 22.2666 0.645532 20.0358V0.645516H0.646989Z" fill="white"/>
</svg>
