<svg width="260" height="88" viewBox="0 0 260 88" fill="none" xmlns="http://www.w3.org/2000/svg">
<path d="M260 6.80505L253.124 38.7142L172.06 38.7396L164.765 69.1791L0 69.2406L8.20605 37.8373H53.9365L62.0938 6.80505H260Z" fill="#0098FF"/>
<path d="M69.9246 35.4709L76.36 3.24301L79.2484 6.58742H68.6071L69.9246 -5.12444e-05H85.2278L78.1336 35.4709H69.9246ZM97.0144 36.079C94.3794 36.079 91.9302 35.7243 89.6668 35.0149C87.4372 34.3055 85.5454 33.292 83.9914 31.9745L87.9439 25.9445C89.0925 26.9579 90.4945 27.7518 92.1498 28.3261C93.8389 28.9004 95.6293 29.1875 97.5211 29.1875C99.9534 29.1875 101.828 28.7315 103.146 27.8193C104.463 26.9072 105.122 25.6404 105.122 24.0189C105.122 22.769 104.598 21.7893 103.551 21.0799C102.504 20.3367 100.73 19.9651 98.2305 19.9651H88.6027L94.3794 -5.12444e-05H116.067L114.699 6.58742H96.0009L101.068 2.83763L96.913 17.0767L93.3659 13.3269H100.156C104.582 13.3269 107.892 14.1883 110.088 15.9112C112.318 17.6341 113.432 20.0157 113.432 23.0561C113.432 25.6911 112.723 27.9883 111.304 29.9476C109.919 31.907 107.993 33.4271 105.527 34.5082C103.061 35.5554 100.224 36.079 97.0144 36.079ZM118.187 35.4709L130.185 16.8909H134.458L139.023 35.4709H134.723L131.114 19.0143H132.812L122.779 35.4709H118.187ZM123.151 31.4895L124.903 28.2247H134.485L134.989 31.4895H123.151ZM141.381 35.4709L145.097 16.8909H154.069C156.086 16.8909 157.625 17.2537 158.687 17.9792C159.767 18.7047 160.306 19.7575 160.306 21.1378C160.306 22.3057 159.997 23.2877 159.377 24.084C158.776 24.8803 157.971 25.482 156.962 25.889C155.953 26.2959 154.856 26.4994 153.671 26.4994L154.361 25.4377C155.918 25.4377 157.157 25.8005 158.077 26.526C159.015 27.2338 159.483 28.2601 159.483 29.605C159.483 30.9144 159.121 32.0115 158.395 32.8963C157.687 33.7634 156.705 34.4092 155.449 34.8339C154.193 35.2586 152.75 35.4709 151.122 35.4709H141.381ZM146.318 32.2327H151.388C152.573 32.2327 153.502 32.0115 154.175 31.5691C154.865 31.1091 155.21 30.4366 155.21 29.5519C155.21 28.8618 154.953 28.3751 154.44 28.092C153.945 27.7912 153.272 27.6408 152.423 27.6408H146.743L147.38 24.5087H152.211C152.954 24.5087 153.591 24.4114 154.122 24.2167C154.67 24.0221 155.086 23.7301 155.369 23.3408C155.652 22.9338 155.794 22.4472 155.794 21.881C155.794 21.2616 155.555 20.8193 155.077 20.5538C154.6 20.2707 153.927 20.1291 153.06 20.1291H148.707L146.318 32.2327ZM161.81 35.4709L165.526 16.8909H178.612L177.895 20.3946H168.021L169.189 19.4125L166.057 35.4709H161.81ZM178.426 31.9142C179.063 32.1265 179.647 32.2239 180.178 32.2062C180.726 32.1885 181.248 32.0558 181.744 31.808C182.257 31.5426 182.735 31.1445 183.177 30.6136L184.345 29.3926L184.823 28.9414L193.449 16.8909H197.749L186.92 31.7284C185.964 33.0378 184.938 34.0288 183.841 34.7012C182.744 35.3736 181.611 35.7364 180.443 35.7895C179.275 35.8425 178.125 35.6125 176.993 35.0993L178.426 31.9142ZM184.265 32.5247L178.93 16.8909H183.416L187.132 29.3661L184.265 32.5247ZM205.584 35.7895C203.691 35.7895 202.054 35.4533 200.674 34.7808C199.311 34.0907 198.258 33.144 197.515 31.9407C196.772 30.7198 196.4 29.313 196.4 27.7204C196.4 26.1455 196.674 24.6768 197.223 23.3143C197.789 21.9518 198.577 20.775 199.585 19.7841C200.612 18.7754 201.824 17.988 203.222 17.4218C204.637 16.8555 206.212 16.5724 207.946 16.5724C209.61 16.5724 211.078 16.8555 212.352 17.4218C213.626 17.988 214.591 18.802 215.246 19.8637L212.14 22.4118C211.662 21.704 211.052 21.1643 210.309 20.7927C209.565 20.4211 208.681 20.2353 207.654 20.2353C206.61 20.2353 205.664 20.4211 204.814 20.7927C203.965 21.1466 203.23 21.6598 202.611 22.3322C202.009 22.9869 201.549 23.7567 201.231 24.6414C200.912 25.5262 200.753 26.464 200.753 27.455C200.753 28.3928 200.957 29.2157 201.364 29.9235C201.771 30.6136 202.363 31.1533 203.142 31.5426C203.921 31.9319 204.858 32.1265 205.956 32.1265C206.911 32.1265 207.805 31.9584 208.636 31.6222C209.468 31.2683 210.22 30.7198 210.893 29.9766L213.441 32.5778C212.467 33.7103 211.308 34.5331 209.964 35.0463C208.636 35.5417 207.177 35.7895 205.584 35.7895ZM219.37 35.4709L222.528 19.4125L223.298 20.3946H216.476L217.167 16.8909H233.278L232.588 20.3946H225.607L226.775 19.4125L223.617 35.4709H219.37ZM229.232 35.4709L241.229 16.8909H245.503L250.068 35.4709H245.768L242.158 19.0143H243.857L233.824 35.4709H229.232ZM234.196 31.4895L235.947 28.2247H245.529L246.034 31.4895H234.196Z" fill="white"/>
<path d="M13.1398 63.2233C12.7682 63.2233 12.4143 63.1968 12.0781 63.1437C11.7419 63.0906 11.388 63.0198 11.0164 62.9313L11.9985 59.3215C12.2285 59.3746 12.4674 59.4011 12.7152 59.4011C13.3876 59.4011 13.9715 59.1622 14.467 58.6845C14.9625 58.2067 15.4225 57.4192 15.8472 56.3221C16.2896 55.2073 16.7231 53.7209 17.1478 51.8629L18.9527 44.3247H33.2328L29.5168 62.9048H25.27L28.4817 46.8463L29.2514 47.8284H21.0496L22.1644 46.7932L20.8638 52.3142C20.3861 54.3668 19.8994 56.0921 19.404 57.49C18.9262 58.8703 18.3865 59.9851 17.7849 60.8344C17.2009 61.6661 16.5285 62.2766 15.7676 62.6659C15.0067 63.0375 14.1308 63.2233 13.1398 63.2233ZM35.3252 59.348C35.9622 59.5604 36.5461 59.6577 37.077 59.64C37.6256 59.6223 38.1476 59.4896 38.643 59.2419C39.1562 58.9764 39.634 58.5783 40.0763 58.0474L41.2442 56.8265L41.722 56.3752L50.3485 44.3247H54.6484L43.8189 59.1622C42.8634 60.4717 41.837 61.4626 40.7399 62.135C39.6428 62.8075 38.5103 63.1702 37.3424 63.2233C36.1745 63.2764 35.0243 63.0463 33.8918 62.5332L35.3252 59.348ZM41.1646 59.9585L35.8295 44.3247H40.3152L44.0312 56.7999L41.1646 59.9585ZM73.7923 62.9048L70.5806 53.9598L74.5355 51.8629L78.6762 62.9048H73.7923ZM67.1035 55.4197L67.8201 51.8364H73.6065L72.8898 55.4197H67.1035ZM74.4559 54.0925L70.4744 53.6148L77.4818 44.3247H82.1268L74.4559 54.0925ZM55.7962 62.9048H50.6999L59.2202 51.8629L62.5381 53.9598L55.7962 62.9048ZM66.8646 62.9048H62.6443L66.3603 44.3247H70.5806L66.8646 62.9048ZM65.4047 55.4197H59.5918L60.3085 51.8364H66.1214L65.4047 55.4197ZM58.6894 54.0925L54.8937 44.3247H59.3264L62.5912 53.6148L58.6894 54.0925ZM97.1936 44.3247H101.494L97.7775 62.9048H93.4776L97.1936 44.3247ZM85.0635 62.9048H80.737L84.453 44.3247H88.7795L85.0635 62.9048ZM95.3356 55.287H86.2845L87.0011 51.6506H96.0523L95.3356 55.287ZM102.459 62.9048L106.175 44.3247H110.422L107.954 56.4283L119.234 44.3247H123.322L119.606 62.9048H115.359L117.854 50.8278L106.547 62.9048H102.459ZM124.259 62.9048L127.975 44.3247H132.275L128.559 62.9048H124.259ZM128.798 55.3931L129.488 51.8364H135.991L135.301 55.3931H128.798ZM136.575 62.9048L132.567 53.9333L136.15 51.9426L141.193 62.9048H136.575ZM136.256 54.066L132.115 53.5882L139.999 44.3247H144.829L136.256 54.066ZM143.285 62.9048L147.001 44.3247H151.247L148.779 56.4283L160.06 44.3247H164.147L160.431 62.9048H156.184L158.679 50.8278L147.372 62.9048H143.285Z" fill="white"/>
<path d="M50.5743 87.2737L52.939 75.45H62.4655L62.0095 77.6289H55.1855L54.7126 80.0612H58.0063C59.2225 80.0612 60.1515 80.3315 60.7933 80.872C61.4464 81.4013 61.773 82.1726 61.773 83.1861C61.773 84.0306 61.5478 84.7569 61.0974 85.365C60.6469 85.9731 60.0051 86.446 59.1718 86.7838C58.3385 87.1104 57.3363 87.2737 56.1652 87.2737H50.5743ZM53.6822 85.2468H56.4186C57.2068 85.2468 57.8261 85.0835 58.2766 84.7569C58.727 84.4191 58.9522 83.9631 58.9522 83.3888C58.9522 82.9383 58.7946 82.6061 58.4793 82.3922C58.1752 82.1782 57.6966 82.0713 57.0435 82.0713H54.3072L53.6822 85.2468ZM67.0128 80.2133H72.705L72.2827 82.3415H66.5905L67.0128 80.2133ZM66.2358 85.0779H72.6881L72.2321 87.2737H63.0772L65.4419 75.45H74.3772L73.9211 77.6458H67.7222L66.2358 85.0779ZM80.6244 87.4764C79.4195 87.4764 78.3779 87.2624 77.4995 86.8345C76.6325 86.3954 75.9624 85.7929 75.4895 85.0272C75.0166 84.2502 74.7801 83.355 74.7801 82.3415C74.7801 81.3393 74.9546 80.4047 75.3037 79.5376C75.664 78.6706 76.1651 77.9217 76.807 77.2911C77.4601 76.6493 78.2315 76.1482 79.1211 75.7878C80.0219 75.4275 81.0241 75.2473 82.1276 75.2473C83.1861 75.2473 84.1208 75.4275 84.9315 75.7878C85.7423 76.1482 86.356 76.6662 86.7727 77.3418L84.7964 78.9633C84.4924 78.5129 84.1039 78.1695 83.6309 77.933C83.158 77.6965 82.595 77.5783 81.9418 77.5783C81.2775 77.5783 80.675 77.6965 80.1345 77.933C79.594 78.1582 79.1267 78.4848 78.7326 78.9127C78.3497 79.3293 78.0569 79.8191 77.8542 80.3822C77.6515 80.9452 77.5502 81.542 77.5502 82.1726C77.5502 82.7694 77.6797 83.293 77.9387 83.7435C78.1977 84.1826 78.5749 84.5261 79.0704 84.7738C79.5659 85.0216 80.1627 85.1454 80.8608 85.1454C81.4689 85.1454 82.0376 85.0384 82.5668 84.8245C83.0961 84.5993 83.5746 84.2502 84.0025 83.7773L85.6241 85.4326C85.0047 86.1532 84.2672 86.6769 83.4114 87.0034C82.5668 87.3187 81.6378 87.4764 80.6244 87.4764ZM86.9789 87.2737L89.3436 75.45H100.103L97.7384 87.2737H95.0359L97.029 77.0547L97.5189 77.6796H90.9314L91.6915 77.0547L89.6815 87.2737H86.9789ZM100.705 87.4764C100.469 87.4764 100.243 87.4595 100.03 87.4257C99.8156 87.3919 99.5904 87.3469 99.3539 87.2906L99.9789 84.9934C100.125 85.0272 100.277 85.0441 100.435 85.0441C100.863 85.0441 101.234 84.8921 101.55 84.588C101.865 84.284 102.158 83.7829 102.428 83.0847C102.71 82.3753 102.985 81.4294 103.256 80.247L104.404 75.45H113.492L111.127 87.2737H108.424L110.468 77.0547L110.958 77.6796H105.739L106.448 77.0209L105.62 80.5342C105.316 81.8404 105.007 82.9383 104.691 83.8279C104.387 84.7063 104.044 85.4157 103.661 85.9562C103.289 86.4854 102.862 86.8739 102.377 87.1217C101.893 87.3581 101.336 87.4764 100.705 87.4764ZM112.746 87.2737L120.38 75.45H123.1L126.005 87.2737H123.269L120.971 76.8013H122.052L115.668 87.2737H112.746ZM115.904 84.74L117.019 82.6625H123.117L123.437 84.74H115.904ZM129.53 87.2737L131.54 77.0547L132.029 77.6796H127.688L128.128 75.45H138.38L137.941 77.6796H133.499L134.242 77.0547L132.232 87.2737H129.53ZM148.206 75.45H150.943L148.578 87.2737H145.841L148.206 75.45ZM140.487 87.2737H137.734L140.099 75.45H142.852L140.487 87.2737ZM147.024 82.426H141.264L141.72 80.1119H147.48L147.024 82.426ZM157.638 87.4764C156.444 87.4764 155.414 87.2624 154.547 86.8345C153.691 86.3954 153.032 85.7929 152.571 85.0272C152.109 84.2502 151.878 83.355 151.878 82.3415C151.878 81.3281 152.053 80.3934 152.402 79.5376C152.751 78.6706 153.246 77.9217 153.888 77.2911C154.541 76.6493 155.313 76.1482 156.202 75.7878C157.103 75.4275 158.1 75.2473 159.192 75.2473C160.385 75.2473 161.41 75.4669 162.266 75.9061C163.133 76.334 163.797 76.9364 164.259 77.7134C164.721 78.4791 164.952 79.3687 164.952 80.3822C164.952 81.3956 164.777 82.3359 164.428 83.203C164.079 84.0588 163.578 84.8076 162.925 85.4495C162.283 86.0801 161.512 86.5755 160.611 86.9359C159.721 87.2962 158.73 87.4764 157.638 87.4764ZM157.874 85.1454C158.539 85.1454 159.136 85.0272 159.665 84.7907C160.205 84.543 160.661 84.2052 161.033 83.7773C161.405 83.3494 161.686 82.8595 161.877 82.3077C162.08 81.7447 162.182 81.1535 162.182 80.5342C162.182 79.9486 162.058 79.4363 161.81 78.9971C161.562 78.5467 161.196 78.1976 160.712 77.9499C160.239 77.7021 159.654 77.5783 158.955 77.5783C158.291 77.5783 157.694 77.7021 157.165 77.9499C156.636 78.1863 156.18 78.5185 155.797 78.9464C155.425 79.3743 155.138 79.8698 154.935 80.4328C154.744 80.9846 154.648 81.5702 154.648 82.1895C154.648 82.7751 154.772 83.293 155.02 83.7435C155.279 84.1826 155.645 84.5261 156.118 84.7738C156.602 85.0216 157.187 85.1454 157.874 85.1454Z" fill="white"/>
</svg>
