<svg width="909" height="415" viewBox="0 0 909 415" fill="none" xmlns="http://www.w3.org/2000/svg">
<path d="M0 414.8L56.6269 202.136H67.7059L14.0669 405.151L429.226 404.661L429.243 415L0 414.8Z" fill="#EB1380"/>
<path d="M908.984 0H378.484V10.1228H908.984V0Z" fill="#EB1380"/>
<path d="M909 126.64H823.595L845.604 34.657H295.963L271.918 126.823H119.468L50.5078 379.801H636.477L663.539 278.659H868.196L909 126.64Z" fill="#EB1380"/>
<path d="M382.253 97.4469C376.18 101.627 368.425 103.954 358.988 104.427L357.409 110.427H345.651L347.254 104.353C338.028 103.829 331.488 101.473 327.616 97.293C323.75 93.1127 322.763 87.4154 324.668 80.2068C326.584 72.9469 330.57 67.2554 336.631 63.1207C342.692 58.9917 350.475 56.6364 359.992 56.0604L361.492 50.3802H373.249L371.772 55.9806C380.941 56.5053 387.459 58.872 391.319 63.0808C395.179 67.2896 396.16 72.9983 394.255 80.2011C392.328 87.5123 388.325 93.2609 382.253 97.4412V97.4469ZM349.882 94.4072L357.352 66.0806C351.587 66.6052 347.043 68.0139 343.736 70.3008C340.423 72.5876 338.199 75.8897 337.058 80.2011C334.863 88.5161 339.14 93.2495 349.882 94.4072ZM375.234 90.1072C378.586 87.769 380.833 84.4384 381.968 80.127C384.186 71.7094 379.898 67.0272 369.104 66.0806L361.634 94.4072C367.348 93.8826 371.881 92.4454 375.234 90.1072Z" fill="white"/>
<path d="M448.27 99.46L445.38 110.421H399.678L415.25 51.3839H459.857L456.966 62.345H425.936L422.554 75.1653H449.958L447.153 85.79H419.749L416.145 99.4543H448.27V99.46Z" fill="white"/>
<path d="M470.384 107.513C466.21 104.901 463.342 101.274 461.785 96.6313C460.228 91.9948 460.217 86.7481 461.762 80.9025C463.302 75.057 466.079 69.8102 470.087 65.1737C474.096 60.5372 478.874 56.9101 484.428 54.2924C489.982 51.6805 495.792 50.3688 501.865 50.3688C506.979 50.3688 511.364 51.2698 515.025 53.0663C518.68 54.8684 521.468 57.4519 523.39 60.828L512.482 68.9263C509.705 64.3183 505.366 62.0086 499.464 62.0086C495.809 62.0086 492.336 62.8127 489.046 64.4152C485.756 66.0177 482.934 68.2533 480.573 71.1219C478.213 73.9905 476.553 77.2526 475.59 80.9025C474.626 84.5581 474.563 87.8202 475.413 90.6831C476.257 93.5517 477.905 95.7873 480.351 97.3898C482.797 98.9924 485.842 99.7965 489.497 99.7965C495.398 99.7965 500.964 97.464 506.187 92.7989L512.818 100.897C509.1 104.33 504.927 106.942 500.291 108.739C495.655 110.535 490.78 111.436 485.665 111.436C479.649 111.436 474.558 110.13 470.384 107.513Z" fill="white"/>
<path d="M582.884 62.5219H563.994L551.358 110.427H537.867L550.503 62.5219H531.697L534.634 51.3896H585.821L582.884 62.5219Z" fill="white"/>
<path d="M595.595 51.3896H609.171L599.027 89.8505L637.333 51.3896H650.152L634.579 110.427H621.088L631.209 72.0515L592.92 110.427H580.017L595.589 51.3896H595.595Z" fill="white"/>
<path d="M701.623 84.8718C702.895 87.2899 703.066 90.2669 702.131 93.8141C700.751 99.0437 697.695 103.121 692.962 106.041C688.229 108.967 682.179 110.427 674.812 110.427H645.721L661.293 51.3896H688.782C695.642 51.3896 700.631 52.7127 703.762 55.3532C706.886 57.9994 707.804 61.7634 706.516 66.6565C705.746 69.5821 704.332 72.1542 702.285 74.3727C700.238 76.5968 697.723 78.3533 694.741 79.6422C698.054 80.7087 700.352 82.4538 701.623 84.8718ZM668.421 75.844H681.153C684.13 75.844 686.542 75.2395 688.378 74.0305C690.214 72.8214 691.445 71.0364 692.067 68.6754C692.677 66.3714 692.369 64.5977 691.149 63.3602C689.929 62.1227 687.859 61.5067 684.934 61.5067H672.201L668.421 75.844ZM688.594 92.7134C689.883 87.8203 687.323 85.3737 680.919 85.3737H665.912L661.971 100.298H676.979C683.388 100.298 687.26 97.7663 688.594 92.7077V92.7134Z" fill="white"/>
<path d="M752.44 97.7719H725.036L716.471 110.421H702.473L744.354 51.3839H757.845L768.668 110.421H754.333L752.44 97.7719ZM750.871 87.3982L747.473 64.7973L732.152 87.3982H750.871Z" fill="white"/>
<path d="M849.774 50.0722L834.201 109.109H820.71L833.346 61.2044H813.11L809.438 73.5172C806.946 81.8949 804.482 88.6871 802.042 93.8825C799.602 99.0836 796.762 103.076 793.529 105.859C790.29 108.642 786.424 110.033 781.931 110.033C780.078 110.033 777.911 109.725 775.431 109.104L779.319 97.5495C779.992 97.7776 780.779 97.886 781.674 97.886C784.936 97.886 787.719 95.9584 790.028 92.1089C792.337 88.2594 794.743 82.2256 797.247 74.019L804.408 50.0665H849.774V50.0722Z" fill="white"/>
<path d="M900.499 75.5931C903.504 78.7981 904.176 83.5487 902.517 89.8448C900.749 96.5344 897.283 101.639 892.111 105.152C886.939 108.665 880.502 110.421 872.804 110.421H846.158L861.73 51.3839H875.307L870.192 70.7797H885.2C892.396 70.7797 897.494 72.3823 900.504 75.5873L900.499 75.5931ZM883.706 97.6921C886.158 95.9527 887.829 93.4206 888.701 90.1014C890.315 83.9764 887.361 80.9082 879.829 80.9082H867.518L862.403 100.304H874.714C878.255 100.304 881.254 99.4315 883.712 97.6921H883.706Z" fill="white"/>
<path d="M231.269 170.896H198.761L177.019 253.332H153.801L175.543 170.896H143.184L148.236 151.739H236.321L231.269 170.896Z" fill="white"/>
<path d="M294.567 231.564H247.405L232.665 253.332H208.58L280.654 151.739H303.872L322.495 253.332H297.828L294.572 231.564H294.567ZM291.87 213.714L286.019 174.819L259.653 213.714H291.87Z" fill="white"/>
<path d="M457.178 151.739L430.378 253.332H406.869L417.857 211.678H371.71L360.722 253.332H337.213L364.012 151.739H387.522L376.956 191.797H423.103L433.668 151.739H457.178Z" fill="white"/>
<path d="M564.295 234.176L553.576 274.815H531.953L537.621 253.338H452.729L479.529 151.745H502.89L481.148 234.181H526.423L548.164 151.745H571.526L549.784 234.181H564.295V234.176Z" fill="white"/>
<path d="M663.466 234.467L658.488 253.332H579.84L606.639 151.739H683.4L678.422 170.605H625.023L619.207 192.664H666.368L661.544 210.953H614.383L608.179 234.467H663.466Z" fill="white"/>
<path d="M774.707 209.356C776.896 213.52 777.193 218.647 775.585 224.743C773.213 233.742 767.95 240.757 759.802 245.787C751.653 250.817 741.242 253.332 728.572 253.332H678.508L705.307 151.739H752.611C764.415 151.739 773.002 154.015 778.385 158.56C783.762 163.111 785.341 169.59 783.123 178.007C781.794 183.037 779.371 187.468 775.847 191.289C772.323 195.11 767.995 198.133 762.864 200.363C768.571 202.199 772.517 205.199 774.712 209.362L774.707 209.356ZM717.567 193.827H739.48C744.606 193.827 748.751 192.789 751.91 190.708C755.069 188.626 757.19 185.558 758.262 181.492C759.306 177.528 758.781 174.477 756.683 172.35C754.584 170.223 751.015 169.156 745.986 169.156H724.073L717.567 193.827ZM752.281 222.855C754.499 214.438 750.097 210.229 739.069 210.229H713.239L706.465 235.915H732.295C743.323 235.915 749.988 231.564 752.281 222.855Z" fill="white"/>
<path d="M845.007 164.577H859.821L848.753 206.533L890.549 164.577H904.536L887.544 228.986H872.821L883.866 187.121L842.093 228.986H828.015L845.007 164.577Z" fill="white"/>
<path d="M165.462 292.859L149.616 352.929H135.885L141.587 331.303C135.885 333.191 130.799 334.138 126.34 334.138C118.277 334.138 112.604 332.204 109.337 328.343C106.064 324.482 105.385 318.916 107.307 311.651L112.262 292.859H125.992L121.442 310.105C120.353 314.223 120.638 317.331 122.292 319.418C123.939 321.506 126.859 322.549 131.033 322.549C135.606 322.549 140.133 321.665 144.604 319.886L151.731 292.854H165.462V292.859Z" fill="white"/>
<path d="M177.994 292.859H191.81L181.49 331.993L220.469 292.859H233.509L217.663 352.929H203.933L214.231 313.881L175.275 352.929H162.148L177.994 292.859Z" fill="white"/>
<path d="M285.193 295.517C288.643 297.291 290.998 299.806 292.252 303.068C293.507 306.33 293.547 310.191 292.372 314.651C291.209 319.059 289.133 322.903 286.151 326.193C283.169 329.484 279.485 331.999 275.106 333.744C270.727 335.489 265.88 336.362 260.56 336.362H248.461L244.093 352.923H230.191L246.037 292.854H272.033C277.353 292.854 281.738 293.743 285.187 295.511L285.193 295.517ZM273.014 322.332C275.665 320.53 277.427 317.97 278.299 314.651C279.189 311.274 278.784 308.685 277.085 306.883C275.386 305.081 272.449 304.18 268.275 304.18H256.951L251.449 325.036H262.773C266.947 325.036 270.362 324.135 273.008 322.332H273.014Z" fill="white"/>
<path d="M358.612 292.859L342.766 352.929H329.035L341.893 304.186H321.303L317.569 316.715C315.031 325.241 312.522 332.147 310.042 337.44C307.556 342.732 304.671 346.793 301.38 349.627C298.09 352.461 294.156 353.876 289.577 353.876C287.69 353.876 285.483 353.562 282.963 352.929L286.92 341.175C287.604 341.403 288.403 341.517 289.315 341.517C292.634 341.517 295.467 339.561 297.817 335.638C300.166 331.72 302.612 325.583 305.161 317.228L312.448 292.859H358.606H358.612Z" fill="white"/>
<path d="M371.231 292.859H385.047L374.726 331.993L413.705 292.859H426.746L410.9 352.929H397.169L407.467 313.881L368.511 352.929H355.385L371.231 292.859Z" fill="white"/>
<path d="M493.932 341.603L487.66 365.373H474.791L478.075 352.929H435.686L432.402 365.373H419.532L425.89 341.603H428.291C431.923 341.489 435.161 338.854 438.007 333.71C440.852 328.56 443.703 321.209 446.571 311.656L452.216 292.865H498.374L485.516 341.608H493.927L493.932 341.603ZM451.96 330.915C449.77 335.751 447.427 339.31 444.935 341.597H471.791L481.662 304.18H461.071L458.506 312.934C456.333 320.085 454.149 326.079 451.96 330.91V330.915Z" fill="white"/>
<path d="M518.537 292.859H532.353L522.033 331.993L561.012 292.859H574.052L558.206 352.929H544.476L554.774 313.881L515.817 352.929H502.691L518.537 292.859Z" fill="white"/>
<path d="M641.667 292.859L625.821 352.929H611.919L618.414 328.298H591.13L584.635 352.929H570.733L586.579 292.859H600.481L594.231 316.544H621.516L627.765 292.859H641.667Z" fill="white"/>
<path d="M694.194 304.186H665.621L652.848 352.929H639.032L654.878 292.859H697.261L694.188 304.186H694.194Z" fill="white"/>
<path d="M725.31 340.057H697.427L688.714 352.929H674.471L717.088 292.859H730.818L741.829 352.929H727.243L725.321 340.057H725.31ZM723.719 329.501L720.264 306.501L704.674 329.501H723.725H723.719Z" fill="white"/>
</svg>
