<svg width="91" height="26" viewBox="0 0 91 26" fill="none" xmlns="http://www.w3.org/2000/svg">
<path d="M4.89754 10.2831V8.73082H6.85656V10.2831V10.3801V10.5741C6.85656 13.1935 5.68115 15.6189 3.72213 17.3651C2.64467 18.3353 1.37131 19.1114 0 19.5965V17.6562C0.881558 17.2681 1.66516 16.783 2.35082 16.1039C3.91803 14.7457 4.89754 12.7084 4.89754 10.5741V10.3801V10.2831ZM14.6926 10.2831V8.73082H16.6516V10.2831V10.3801V10.5741C16.6516 12.7084 17.6312 14.6487 19.1984 16.1039C19.884 16.686 20.6676 17.2681 21.5492 17.6562V19.5965C20.0799 19.1114 18.8066 18.3353 17.8271 17.3651C15.868 15.6189 14.6926 13.1935 14.6926 10.5741V10.3801V10.2831ZM0 22.895C2.25287 22.3129 4.30984 21.1487 5.975 19.6935C7.24836 18.5293 8.22787 17.2681 8.91353 15.7159C9.40328 16.9771 9.99099 18.0442 10.7746 19.1114C11.4602 18.1412 12.048 16.9771 12.6357 15.7159C13.3213 17.1711 14.3008 18.5293 15.5742 19.6935C17.2393 21.1487 19.2963 22.3129 21.5492 22.895V20.9547C19.7861 20.3726 18.2189 19.4994 16.9455 18.3353C14.7906 16.395 13.5172 13.6786 13.5172 10.7681V2.6189H11.5582V10.7681C11.5582 12.2233 11.2643 13.8726 10.8725 15.2308C10.3828 13.9696 10.1869 12.2233 10.1869 10.7681V2.6189H8.22787V10.7681C8.22787 13.6786 6.85656 16.395 4.79959 18.3353C3.52623 19.4994 1.95902 20.3726 0.195902 20.9547V22.895H0ZM8.81558 18.5293C8.32582 19.2084 7.73812 19.7905 7.05246 20.3726C5.09344 22.1188 2.74262 23.38 0 23.9621V25.8054C3.23238 25.1263 6.1709 23.6711 8.52172 21.6338C9.01148 21.1487 9.50123 20.7606 9.89304 20.1785H9.79508C9.40328 19.6935 9.10943 19.1114 8.81558 18.5293ZM11.7541 20.3726C12.1459 20.8576 12.6357 21.2457 13.0275 21.7308C15.2803 23.7681 18.2189 25.3203 21.5492 25.9024V24.0591C18.8066 23.477 16.3578 22.2159 14.4967 20.4696C13.909 19.8875 13.3213 19.3054 12.8316 18.7233C12.5377 19.3054 12.2439 19.7905 11.8521 20.2756C11.8521 20.2756 11.7541 20.2756 11.7541 20.3726Z" fill="white"/>
<path d="M30.3664 9.79847C30.8561 7.47012 31.4438 4.94774 31.6397 2.61939H33.9906V13.388H32.5213V9.11937L32.7172 5.23879C32.5213 6.49998 31.6397 11.0597 30.5623 13.291H30.3664H30.1705C29.093 11.0597 28.2115 6.49998 28.0156 5.23879L28.2115 9.11937V13.388H26.7422V2.61939H29.093C29.3869 4.94774 29.9746 7.47012 30.3664 9.79847ZM65.4328 4.46267V4.94774V5.82087C65.4328 6.69401 65.041 7.27609 64.4533 7.66415C65.041 8.14922 65.4328 8.92534 65.4328 9.79847V13.291C64.3553 13.291 63.3758 13.291 62.2984 13.291H60.5352V2.52238H62.2984C63.3758 2.52238 64.3553 2.52238 65.4328 2.52238V4.46267ZM62.2004 8.53728V11.8358H63.6697C63.6697 11.1567 63.6697 10.4776 63.6697 9.70146C63.6697 8.6343 62.8861 8.53728 62.2004 8.53728ZM62.2004 4.07461V6.98505C62.8861 6.98505 63.6697 6.98505 63.6697 5.91789V4.94774V4.17163H62.2004V4.07461ZM55.9315 13.388H54.1684V2.52238H55.9315H57.5967H59.3598V13.291H57.5967H55.9315V13.388ZM57.4988 4.07461H55.9315V11.8358H57.4988V4.07461ZM37.027 13.388H35.2639V2.52238H37.027H38.6922H40.4553V13.291H38.6922H37.027V13.388ZM38.5942 4.07461H37.027V11.8358H38.5942V4.07461ZM68.2734 13.388H66.5102V2.52238H68.2734H69.9385H71.7016V6.88804H69.9385V4.07461H68.2734V11.8358H69.9385V9.02236H71.7016V13.388H69.9385H68.2734ZM43.2959 13.388H41.5328V2.52238H43.2959H44.9611H46.7242V6.88804H44.9611V4.07461H43.2959V11.8358H44.9611V9.02236H46.7242V13.388H44.9611H43.2959ZM74.6402 13.388H72.8771V2.61939H74.6402V6.88804H74.934C75.9135 6.88804 76.2074 5.91789 76.2074 5.23879V2.71641H77.9705V5.14177C77.9705 6.30595 77.5787 7.08206 76.6971 7.66415C77.5787 8.24624 77.9705 9.11937 77.9705 10.1865V13.388H76.2074V10.0895C76.2074 9.41041 75.8156 8.53728 74.934 8.53728H74.6402V13.388ZM90.0185 1.26119H86.1984V0H90.0185V1.26119ZM85.5127 13.388V2.61939H87.0799V8.92534L88.843 2.61939H90.8021V13.388H89.1369V5.91789L86.982 13.485L85.5127 13.388ZM79.048 13.388V2.61939H80.6152V8.92534L82.3783 2.61939H84.3373V13.388H82.7701V5.91789L80.6152 13.485L79.048 13.388ZM49.6627 13.388H47.9975V2.61939H49.7606V6.88804H50.0545C51.034 6.88804 51.3279 5.91789 51.3279 5.23879V2.71641H53.091V5.14177C53.091 6.30595 52.6992 7.08206 51.8176 7.66415C52.6992 8.24624 53.091 9.11937 53.091 10.1865V13.388H51.3279V10.0895C51.3279 9.41041 50.9361 8.53728 50.0545 8.53728H49.7606V13.388H49.6627Z" fill="white"/>
<path d="M34.8721 25.9029H33.109V15.1343H38.2024V25.9029H36.4393V16.6865H34.7742V25.9029H34.8721ZM28.5053 25.9029H26.7422V15.1343H28.5053H30.1705H31.9336V19.4999H30.1705V16.6865H28.5053V24.4477H30.1705V21.6343H31.9336V25.9999H30.1705H28.5053V25.9029ZM41.141 25.9029H39.3779V15.1343H41.141H42.8061H44.5692V25.9029H42.8061H41.141ZM42.8061 16.5895H41.2389V24.3507H42.8061V16.5895ZM51.132 15.1343H56.5193V16.6865H54.7561V25.9029H52.8951V16.6865H51.132V15.1343ZM50.6422 18.8208V19.3059V20.179C50.6422 21.8283 49.7606 22.9925 48.0955 22.9925H47.5078V25.9029H45.7447V15.1343C47.4098 15.1343 48.977 15.1343 50.6422 15.1343V18.8208ZM47.5078 16.5895V21.4402C48.1934 21.4402 48.977 21.3432 48.977 20.276V19.3059V16.6865H47.5078V16.5895Z" fill="white"/>
</svg>
