<svg width="266" height="444" viewBox="0 0 266 444" fill="none" xmlns="http://www.w3.org/2000/svg">
<path d="M23.5404 222.947C28.6191 220.726 33.5119 219.739 38.0332 219.431C34.6887 218.321 32.8926 216.902 32.2113 214.928C32.0255 214.311 31.7777 213.139 32.3352 211.658C24.7791 209.623 21.6205 207.525 21.2488 204.564C21.2488 204.133 21.2488 203.516 21.3727 202.837C9.10959 199.136 8.42831 190.13 8.42831 189.76C8.36639 188.649 8.86188 187.6 9.79089 186.984C10.2864 186.613 22.7972 178.656 44.2886 189.698C55.313 195.373 62.3736 203.146 66.5851 209.314C67.9477 201.357 71.7876 190.808 82.1307 182.542C100.959 167.429 114.77 172.796 115.328 173.042C116.381 173.474 117.062 174.399 117.248 175.448C117.248 175.818 118.425 184.825 107.152 190.87C107.462 191.487 107.586 192.104 107.648 192.535C107.896 195.558 105.232 198.211 98.1719 201.727C98.9151 202.837 99.039 203.886 98.977 204.626C98.9151 206.168 98.1099 207.525 96.5616 208.821C102.383 207.464 109.32 207.094 117.372 208.697C144.871 214.373 150.259 230.596 150.507 231.275C150.816 232.324 150.569 233.496 149.825 234.298C149.516 234.668 142.269 242.255 128.334 236.333C128.086 237.135 127.715 237.814 127.219 238.246C124.804 240.713 120.345 240.219 111.674 236.272C111.364 237.999 110.373 238.986 109.692 239.479C109.444 239.664 109.196 239.849 108.887 239.973C113.47 243.119 118.053 247.314 122.203 252.865C138.925 275.381 132.112 291.05 131.802 291.666C131.369 292.653 130.378 293.332 129.325 293.455C128.83 293.455 118.301 294.381 111.921 280.686C111.426 280.995 110.868 281.241 110.187 281.365C106.657 281.92 103.56 278.651 99.5344 269.644C98.6673 270.323 97.4906 270.755 96.3757 270.755C92.9074 270.755 90.1203 267.362 87.3333 259.466C87.0855 259.589 86.8378 259.651 86.5901 259.713C86.2804 259.713 85.9707 259.836 85.661 259.774C90.8635 278.095 98.6673 308.322 100.649 331.886C101.888 346.815 105.232 386.479 102.879 424.849C101.64 445.452 99.4106 465.994 97.1809 483.513C114.77 431.573 148.091 324.607 150.878 252.619C153.604 183.344 148.525 135.845 145.304 113.884C142.641 121.225 140.473 121.349 139.111 121.349C137.129 121.349 135.952 120.115 135.209 118.696C133.784 127.579 131.431 131.774 127.715 132.452C126.043 132.761 124.556 132.267 123.255 131.404C120.221 145.345 117.124 148.491 113.594 148.676C112.603 148.676 111.612 148.429 110.807 147.936C106.657 166.503 93.7745 167.984 93.1551 168.046C92.0403 168.169 90.9874 167.676 90.3681 166.75C89.8726 166.01 77.9811 148.984 92.6597 117.956C99.1628 104.323 108.453 95.5017 116.876 89.8882C116.566 89.7031 116.257 89.4564 116.009 89.2096C106.471 95.9335 100.897 97.5991 97.4906 95.0082C96.128 93.9595 95.5087 92.5407 95.3229 90.9985C82.874 98.0309 78.4147 97.8458 75.9992 95.3166C75.256 94.5764 74.8844 93.7128 74.6986 92.7875C58.0381 102.102 48.3763 93.466 47.8808 93.0342C47.0757 92.294 46.704 91.1836 46.9518 90.0732C47.1376 89.2096 52.0304 68.9763 85.0417 59.2914C97.4906 55.5902 108.639 56.3304 117.743 58.6745C117.743 58.4278 117.743 58.1194 117.743 57.8726C106.161 54.7883 100.835 51.7039 100.03 47.6326C99.7822 46.5222 99.7822 44.5482 101.64 42.5742C90.5539 38.2561 86.0326 34.8633 85.9707 30.9771C85.9707 30.0517 86.2184 28.8797 87.1475 27.7693C69.3722 20.7987 69.9915 7.84442 69.9915 7.28923C70.0535 6.17886 70.7347 5.19187 71.6638 4.69838C72.4689 4.32825 91.2352 -4.67806 119.725 14.63C136.262 25.857 145.18 39.9217 149.764 49.7916C152.489 38.4412 159.549 22.0324 177.448 10.9288C206.744 -7.20722 225.2 2.60102 225.943 3.03283C226.934 3.58801 227.492 4.575 227.554 5.68537C227.554 6.24055 227.554 19.1948 209.531 25.4252C210.398 26.5356 210.645 27.7076 210.584 28.6329C210.398 32.5192 205.691 35.7886 194.48 39.6132C196.153 41.5255 196.153 43.3761 195.967 44.4248C195.286 48.126 191.012 50.8403 181.846 53.2461C182.032 53.4928 182.217 53.8013 182.341 54.048C192.87 50.902 206.558 49.7916 222.847 55.2817C260.937 68.051 265.706 91.7388 265.953 92.7258C266.139 93.8361 265.767 94.8848 264.9 95.6251C264.405 96.0569 252.637 105.742 233.376 93.6511C233.252 95.1933 232.57 96.427 231.456 97.3523C227.987 100.19 221.422 98.2776 209.159 90.6284C208.911 93.7128 207.363 95.255 206 95.9952C204.886 96.6121 203.523 96.8588 202.037 96.7354C208.911 102.287 215.662 109.69 221.236 119.498C241.117 154.351 228.854 175.14 228.297 176.003C227.739 176.929 226.687 177.484 225.572 177.484C224.829 177.484 209.593 176.867 203.337 155.091C202.408 155.955 201.231 156.572 199.807 156.572C196.277 156.695 192.437 154.228 187.296 136.709C185.872 138.066 184.075 139.053 181.97 138.744C177.386 138.189 174.166 132.576 171.627 120.177C170.945 120.608 170.202 120.855 169.335 120.917C168.344 120.978 167.291 120.793 166.238 120.177C170.574 147.442 176.891 194.571 175.528 229.548C174.661 251.385 172.432 309.371 162.274 364.457C152.86 415.226 139.42 465.747 131.369 494H124.928C132.855 466.303 146.605 414.917 156.143 363.347C166.238 308.754 168.468 251.076 169.335 228.807C171.317 178.101 156.514 100.128 156.329 99.388C156.019 97.7841 157.072 96.1803 158.682 95.8101C160.292 95.44 161.903 96.3653 162.398 97.9692C165.495 108.703 167.663 112.712 168.778 114.131C169.273 113.083 169.768 111.294 169.954 109.751C170.202 108.271 171.503 107.161 172.989 107.161C174.537 107.161 175.838 108.271 176.024 109.813C179.059 130.848 182.527 132.637 182.341 132.699C183.084 132.452 184.633 130.232 185.438 128.196C185.933 126.962 187.234 126.222 188.535 126.284C189.897 126.345 191.012 127.271 191.322 128.566C195.41 144.481 198.259 148.923 199.373 150.095C200.055 149.046 200.922 146.702 201.293 144.543C201.541 143.062 202.966 141.89 204.452 142.014C206 142.014 207.239 143.186 207.425 144.728C210.026 165.208 219.626 169.896 223.714 171.007C225.943 165.64 230.65 148.738 215.724 122.521C201.603 97.7841 178.935 89.5797 169.335 87.1123C167.91 86.8655 166.3 86.4954 164.566 86.1253C162.956 85.7551 161.903 84.213 162.212 82.6091C162.522 81.0052 164.009 79.8332 165.619 80.0799C165.929 80.0799 168.034 80.3884 171.317 81.252C174.476 81.8072 176.581 82.0539 178.006 82.1156C177.139 80.5117 177.696 79.2163 178.254 78.4761C178.749 77.7975 179.616 77.304 180.483 77.1806C182.217 76.9956 183.332 78.0443 186.057 80.5117C186.863 81.1903 187.606 81.9305 188.163 82.3624C199.807 91.307 202.78 90.6901 202.718 90.8135C202.78 90.6901 202.966 90.1349 202.842 88.9629C202.842 88.4694 202.594 87.9759 202.346 87.4207C201.913 86.4337 200.922 84.213 202.656 82.239C204.762 79.8949 207.239 81.8072 209.283 83.2877C209.778 83.6578 210.274 84.0279 210.645 84.2747C221.36 91.0602 225.634 92.2323 227.058 92.3557C226.996 91.9239 226.872 91.307 226.501 90.4434C226.315 89.9499 225.82 89.333 225.448 88.7778C224.705 87.7908 223.652 86.372 224.271 84.5831C224.581 83.5961 225.696 82.6708 226.687 82.424C228.669 81.9305 230.031 83.1026 232.57 85.3233C233.437 86.0636 234.305 86.8655 234.986 87.2973C247.559 95.9335 255.92 93.5277 259.264 91.8622C257.344 86.372 249.541 70.6418 220.865 61.0186C204.142 55.4051 190.455 57.3791 180.607 61.0186C178.501 63.3628 174.785 65.7685 169.211 68.6061C167.415 69.4698 165.433 70.4568 163.203 71.4437C161.841 72.0606 160.231 71.6288 159.363 70.3951C158.496 69.1613 158.682 67.4958 159.735 66.4471C159.797 66.3854 161.717 64.4731 165.247 62.0673C167.972 60.2167 171.565 58.0577 175.962 56.2071C175.343 55.9603 174.599 55.9603 173.856 55.8986C172.556 55.8369 170.759 55.7752 169.397 54.3564C168.592 53.5545 168.22 52.1974 168.592 51.087C169.273 48.9897 171.131 48.7429 174.414 48.3111C175.281 48.1877 176.21 48.0644 176.767 47.941C186.057 45.8436 188.906 43.993 189.65 43.3145C189.464 43.1911 189.278 42.9443 188.906 42.7593C188.659 42.5742 188.225 42.4508 187.792 42.3892C185.376 41.7723 184.137 40.4769 184.199 38.5029C184.199 37.1458 185.128 36.0354 186.367 35.6036C186.367 35.6036 189.402 34.6783 190.702 34.2465C199.126 31.4706 202.47 29.5583 203.771 28.5713C203.771 28.5713 203.709 28.5713 203.647 28.5713C201.975 27.8927 199.745 27.5226 199.745 27.5226C198.259 27.2758 197.082 26.0421 197.082 24.4999C197.082 22.9577 198.135 21.6623 199.683 21.4156C201.975 21.0454 204.08 20.5519 206.062 19.9351C217.211 16.5423 220.245 10.5586 221.051 7.47429C216.096 5.74706 201.851 2.97114 180.793 15.9871C154.594 32.2108 154.223 62.0673 154.223 62.3758C154.223 63.9796 153.046 65.275 151.436 65.4601C149.887 65.6452 148.401 64.5965 148.091 63.0543C148.091 62.8076 142.084 37.2074 116.257 19.6266C95.7564 5.68537 81.4494 7.9061 76.4327 9.38659C77.1759 12.5943 80.0869 19.0098 92.0403 22.8344C92.5358 23.0194 93.4029 23.0811 94.208 23.2045C96.8712 23.6363 98.977 23.9447 99.5964 26.1655C99.906 27.3375 99.4725 28.7563 98.5435 29.5583C97.3048 30.6069 95.9422 30.7303 94.7654 30.792C94.0842 30.792 93.4648 30.9154 92.8455 31.1621C94.0842 32.2108 97.2428 34.1848 105.356 37.2691C105.79 37.3925 106.409 37.5776 107.029 37.7626C109.568 38.4412 111.426 38.873 111.921 40.9704C112.169 42.0807 111.798 43.3761 110.93 44.1164C110.063 44.9183 109.072 45.2268 108.267 45.5352C107.648 45.7819 107.09 45.967 106.533 46.3371C106.409 46.3988 106.347 46.4605 106.285 46.5222C107.09 47.3241 110.187 49.4832 121.15 52.2591C121.459 52.3208 122.017 52.3825 122.512 52.4441C124.618 52.7526 127.033 53.061 127.281 55.6519C127.405 57.0707 126.352 58.5512 124.99 58.983C124.866 58.983 124.68 59.0447 124.556 59.1063C125.113 59.7232 126.104 60.7102 127.839 62.0056C136.881 66.0153 142.331 70.7652 142.765 71.1353C143.942 72.184 144.127 73.9112 143.26 75.2067C142.331 76.5021 140.659 76.8722 139.235 76.132C132.731 72.6775 128.21 69.8399 124.99 67.5575C115.699 63.5478 102.26 60.4018 86.7139 65.0283C62.931 72.0606 55.5607 84.5214 53.5788 89.333C56.9233 90.9985 65.2225 93.0959 78.2289 82.6708C79.4056 81.7455 81.1398 81.7455 82.2546 82.7942C83.3694 83.8428 83.6172 85.5084 82.7501 86.8038C81.9449 87.9759 81.2637 89.4564 80.892 90.5051C82.7501 90.1349 87.2713 88.5928 97.7383 82.239C98.8531 81.5604 100.34 81.6838 101.392 82.4857C102.445 83.2877 102.755 84.7682 102.26 86.0019C101.764 87.2973 101.392 88.9012 101.392 89.7648C102.631 89.6414 106.905 88.4694 118.177 79.7098C119.477 78.7228 121.335 78.9079 122.45 80.1416C123.503 81.3754 123.441 83.226 122.264 84.398C123.875 84.2747 126.6 83.7812 131.059 82.5474C134.775 81.1903 137.191 80.6968 137.562 80.6351C139.173 80.3267 140.783 81.3137 141.155 82.8559C141.588 84.4597 140.659 86.0636 139.111 86.5571C137.067 87.2356 135.209 87.7908 133.475 88.2843C124.928 91.4304 107.958 100.067 98.2957 120.423C87.7049 142.754 92.1642 156.51 94.3938 161.198C97.8622 159.841 104.985 155.03 105.79 138.436C105.852 136.894 107.029 135.66 108.577 135.537C110.063 135.352 111.488 136.339 111.921 137.819C112.293 139.176 112.912 140.718 113.47 141.644C114.461 140.04 116.319 135.66 118.486 123.631C118.734 122.336 119.787 121.287 121.088 121.102C122.388 120.917 123.689 121.595 124.308 122.829C124.928 124.063 125.919 125.42 126.6 125.975C127.343 124.988 129.325 120.978 130.254 106.605C130.812 102.719 133.227 102.349 133.97 102.287C137.005 102.164 138.182 104.878 139.606 111.17C140.783 107.716 142.084 102.842 142.951 98.5244C143.26 97.1056 144.499 96.0569 145.986 96.0569C147.41 96.0569 148.711 97.0439 149.02 98.4627C149.144 99.0179 160.974 154.166 157.134 252.619C154.099 329.419 116.814 445.391 100.216 493.692H89.6249C92.2881 474.198 95.2609 449.153 96.7474 424.232C99.0389 386.294 95.7564 347 94.5177 331.825C91.6687 297.342 75.1321 245.648 74.9463 245.154C74.4508 243.612 75.256 241.885 76.8043 241.33C78.3527 240.775 80.0869 241.515 80.7062 242.995C82.5643 247.375 83.9888 249.966 84.9178 251.447C84.9178 251.2 84.9178 250.953 84.9178 250.768C84.9178 249.226 86.1565 247.992 87.6429 247.807C89.1294 247.622 90.6158 248.609 90.9874 250.089C93.4648 259.219 95.3229 262.612 96.2519 263.846C96.5616 263.29 96.8712 262.489 97.057 261.81C97.4286 260.515 98.5435 259.589 99.906 259.528C101.269 259.528 102.507 260.268 102.941 261.502C105.852 268.842 107.772 272.235 108.887 273.839C109.01 273.222 109.134 272.482 109.196 271.865C109.32 270.323 110.497 269.151 111.983 268.966C113.532 268.842 114.894 269.829 115.266 271.31C118.239 283.215 123.875 286.176 126.848 286.917C127.777 282.537 128.52 271.433 117.31 256.382C105.914 241.083 90.1203 237.444 83.5552 236.58C82.5643 236.518 81.4495 236.395 80.2108 236.272C78.5385 236.086 77.3618 234.668 77.4237 233.064C77.4856 231.398 78.8482 230.165 80.5204 230.165C80.7682 230.165 82.1927 230.165 84.5462 230.473C85.8468 230.535 86.8997 230.596 87.7049 230.535C87.581 229.609 87.9526 228.807 88.1384 228.437C88.572 227.697 89.3771 227.08 90.1823 226.895C91.7926 226.525 92.8455 227.327 95.0132 228.807C95.5706 229.178 96.128 229.609 96.5616 229.856C101.702 232.879 104.365 233.804 105.604 234.051C105.542 233.866 105.418 233.681 105.294 233.434C104.923 232.817 103.684 230.843 105.109 228.869C106.843 226.34 109.568 227.882 110.992 228.746C111.364 228.931 111.674 229.178 111.983 229.301C117.062 231.707 120.035 232.694 121.707 233.126C121.583 233.002 121.459 232.817 121.335 232.694C120.716 232.077 119.539 230.843 119.911 229.054C120.159 228.067 121.026 227.08 121.955 226.71C123.751 226.031 125.052 226.895 127.095 228.314C127.715 228.746 128.334 229.178 128.83 229.424C136.695 233.496 141.588 232.2 143.942 231.028C141.712 227.142 134.899 218.382 116.381 214.558C104.985 212.214 96.128 214.558 89.8726 217.704C88.51 219.493 86.1565 221.467 82.6262 223.872C81.5114 224.613 80.2108 225.476 78.7243 226.34C77.4237 227.08 75.8134 226.895 74.8224 225.723C73.8315 224.613 73.7695 222.947 74.6986 221.775C74.8224 221.59 75.9992 220.171 78.2289 218.197C79.4056 217.21 80.7682 216.1 82.3785 214.989C81.7591 214.866 81.0779 214.681 80.4585 214.188C79.5295 213.447 79.034 212.214 79.2817 211.103C79.7153 209.068 81.5114 208.574 83.741 208.019C84.2985 207.895 84.8559 207.71 85.2275 207.587C88.7578 206.353 90.7397 205.305 91.9164 204.626C89.501 204.133 88.9436 202.467 88.8816 201.542C88.7578 200.246 89.501 198.951 90.6777 198.396L93.5267 197.1C96.7474 195.62 98.7293 194.448 99.968 193.646C99.7822 193.646 99.5964 193.646 99.4725 193.646C97.9241 193.646 96.6854 192.474 96.4996 190.993C96.3138 189.513 97.2428 188.032 98.6673 187.662C100.216 187.23 101.578 186.737 102.755 186.182C108.639 183.591 110.559 180.26 111.116 178.162C107.152 177.607 98.1099 177.731 86.2804 187.292C70.3012 200.123 72.345 219.308 72.4689 220.11C72.6547 221.652 71.6018 223.132 70.1154 223.502C68.567 223.872 67.0186 223.009 66.5232 221.528C66.5232 221.343 60.3916 204.811 41.7493 195.188C28.2475 188.217 19.3289 189.821 15.5508 191.178C16.6037 193.214 19.2669 196.237 26.1417 197.532C26.4514 197.532 27.0088 197.532 27.5043 197.594C29.4242 197.594 31.4061 197.717 32.2732 199.753C32.7687 200.863 32.459 202.282 31.6539 203.146C31.0965 203.762 30.4771 204.071 29.9197 204.256C31.2823 204.749 33.3261 205.428 36.4848 206.23C36.7325 206.292 37.1661 206.353 37.5377 206.415C39.3338 206.662 41.1918 206.908 41.9351 208.821C42.3686 209.869 42.1209 211.165 41.3777 212.029C40.8203 212.707 40.1389 213.077 39.6435 213.324C41.006 213.817 43.6073 214.558 48.3763 215.113C48.5621 215.113 48.9337 215.113 49.2434 215.113C50.7298 215.113 53.1453 215.113 53.7027 217.704C53.9504 218.691 53.5788 219.801 52.8356 220.541C53.1453 220.788 53.5788 221.035 54.0743 221.282C60.6394 223.317 64.789 226.093 65.1606 226.34C66.4613 227.265 66.8329 228.931 66.0896 230.35C65.3464 231.707 63.6742 232.324 62.2497 231.768C57.6046 229.979 54.2601 228.437 51.8446 227.08C45.3415 225.168 36.2371 224.243 26.3894 228.499C12.3922 234.544 8.05673 242.44 6.7561 246.203C9.29541 246.758 14.3121 246.45 21.0011 239.603C22.054 238.492 23.7881 238.369 25.0269 239.232C26.2655 240.096 26.6991 241.762 26.0178 243.119C25.9559 243.242 25.8939 243.427 25.832 243.551C27.5042 242.625 30.1674 240.898 34.3171 237.567C35.37 236.765 36.7945 236.642 37.9712 237.382C39.086 238.122 39.5815 239.479 39.2719 240.775C39.2099 241.021 39.148 241.392 39.0861 241.7C40.5106 240.898 43.1738 238.986 47.9427 234.298C49.1195 233.125 50.9776 233.125 52.2162 234.174C52.8975 234.791 53.2072 235.593 53.2072 236.395C54.1982 236.086 55.4988 235.593 57.233 234.914C59.6484 233.681 61.3207 233.125 61.5065 233.064C63.0548 232.57 64.7271 233.311 65.3464 234.853C65.9658 236.395 65.2845 238.122 63.798 238.801C62.4974 239.418 61.2587 239.973 60.082 240.466C54.6317 243.304 44.1028 250.336 39.3338 264.648C34.5648 279.021 37.5377 287.533 39.4577 291.05C41.5635 289.507 44.7221 285.621 44.0408 276.06C43.917 274.517 44.9699 273.16 46.4563 272.852C47.9427 272.482 49.4292 273.284 50.0485 274.703C50.0485 274.826 50.1724 275.011 50.2343 275.134C50.6679 273.345 51.1014 270.199 51.4111 264.833C51.473 263.476 52.402 262.365 53.7027 262.057C55.0033 261.687 56.3659 262.242 57.1091 263.352C57.2949 263.599 57.4807 263.846 57.6665 264.092C58.0381 262.489 58.3478 259.157 58.0381 252.372C58.0381 249.658 59.6484 248.424 61.0729 248.177C63.1168 247.869 64.3555 249.102 65.4083 251.138C65.6561 249.473 65.9038 247.56 66.0277 245.71C66.1516 244.229 67.2664 243.119 68.7528 242.872C70.1773 242.687 71.6018 243.551 72.0973 244.908C72.5928 246.388 84.9178 281.858 90.4919 349.282C94.0222 391.846 84.3604 453.718 76.6805 493.877H70.3631C77.9811 454.088 87.7668 392.093 84.2985 349.776C80.6443 305.793 74.0173 275.196 69.8676 259.342C68.6909 262.118 67.3903 262.242 66.3993 262.365C65.5941 262.489 64.9129 262.365 64.2935 261.995C63.86 267.3 62.4355 269.953 59.7723 270.816C58.9052 271.125 58.0381 271.125 57.233 270.94C56.3659 279.144 54.6317 282.537 51.4111 283.092C50.9775 283.154 50.544 283.154 50.1724 283.092C48.4382 295.676 39.6435 297.774 39.2099 297.897C38.0951 298.144 36.9803 297.773 36.2371 296.972C35.8035 296.54 25.9559 285.498 33.5119 262.612C35.6177 256.258 38.7144 251.138 42.0589 247.067C39.2719 248.609 37.1041 248.794 35.308 247.745C34.5029 247.252 33.9455 246.635 33.5119 245.895C26.761 250.706 23.1069 251.693 20.5676 249.658C20.196 249.349 19.9482 249.041 19.7005 248.732C9.10962 255.888 1.67743 250.706 1.30582 250.46C0.438751 249.843 -0.0567322 248.732 0.00518799 247.684C0.00518799 247.067 1.73935 232.385 23.912 222.824L23.5404 222.947Z" fill="#A2CB4B"/>
</svg>
