<svg width="1920" height="10264" viewBox="0 0 1920 10264" fill="none" xmlns="http://www.w3.org/2000/svg">
<g opacity="0.1">
<path d="M249.476 9754.9L240.442 9774.56L282.132 9792.99L270.748 9749.51L249.476 9754.9ZM-2333 8613.23L-2341.44 8593.33L-2388.2 8612.49L-2342.03 8632.9L-2333 8613.23ZM-414.274 7219.44L-435.545 7224.83L228.205 9760.29L249.476 9754.9L270.748 9749.51L-393.002 7214.05L-414.274 7219.44ZM249.476 9754.9L258.51 9735.23L-2323.97 8593.57L-2333 8613.23L-2342.03 8632.9L240.442 9774.56L249.476 9754.9ZM-2333 8613.23L-2324.56 8633.14L-1093.04 8128.51L-1101.48 8108.61L-1109.92 8088.71L-2341.44 8593.33L-2333 8613.23Z" fill="#EB1380"/>
<path d="M1228.4 8676.01L1233.17 8697.05L1286.82 8685.28L1239.72 8657.51L1228.4 8676.01ZM-462.861 7678.76L-451.539 7660.26L-475.129 7646.35L-483.725 7672.04L-462.861 7678.76ZM-165.635 8981.88L-160.868 9002.92L1233.17 8697.05L1228.4 8676.01L1223.64 8654.96L-170.402 8960.83L-165.635 8981.88ZM1228.4 8676.01L1239.72 8657.51L-451.539 7660.26L-462.861 7678.76L-474.182 7697.25L1217.08 8694.5L1228.4 8676.01ZM-462.861 7678.76L-483.725 7672.04L-1144.65 9647.17L-1123.78 9653.89L-1102.92 9660.6L-441.996 7685.47L-462.861 7678.76Z" fill="#EB1380"/>
<path d="M308.176 9026.73C310.207 9027.06 311.166 9026.98 311.327 9027.32C330.907 9062.58 364.136 9081.78 399.09 9098.52C430.712 9113.68 463.926 9123.44 499.619 9123.48C501.515 9123.5 503.413 9123.56 505.309 9123.58C521.115 9123.86 532.13 9120.09 539.097 9102.82C549.747 9076.4 568.179 9054.28 594.537 9040.71C604.378 9035.66 615.855 9032.13 626.851 9031.24C643.042 9029.95 653.167 9042.02 648.392 9057.26C645.195 9067.48 638.66 9077.72 631.019 9085.47C608.565 9108.36 579.694 9120.67 548.872 9128.38C541.518 9130.22 538.456 9133.67 536.776 9140.37C531.821 9159.94 530.28 9179.57 532.418 9199.66C535.757 9230.91 552.654 9251.81 581.322 9264.37C626.267 9284.03 668.466 9277.28 708.6 9251.24C753.178 9222.35 782.484 9180.84 807.749 9135.87C831.475 9093.68 849.42 9049.09 865.905 9003.82C867.009 9000.88 870.897 8998.93 873.483 8996.54C874.266 8999.19 876.246 9002.14 875.578 9004.42C856.573 9072.22 828.97 9136.33 787.152 9193.9C761.705 9228.89 731.132 9258.71 690.377 9276.25C639.907 9297.95 592.264 9291.88 549.212 9258.76C523.604 9239.13 518.913 9210.11 519.234 9180.46C519.405 9165.11 522.559 9149.77 524.275 9135.42C506.58 9134.51 488.401 9135.22 470.851 9132.31C417.035 9123.38 369.871 9100.37 330.225 9063.5C322.334 9056.2 316.946 9046.29 310.926 9037.24C309.13 9034.51 309.172 9030.64 308.229 9026.82M544.771 9117.49C578.321 9107.04 607.961 9095.1 629.815 9069.77C633.192 9065.85 635.679 9060.85 637.359 9055.94C640.322 9047.23 636.407 9041.97 627.116 9041.48C623.723 9041.29 619.993 9041.66 616.814 9042.77C581.131 9055.55 560.923 9082.73 544.796 9117.46" fill="#FFC200"/>
<path d="M1087.72 8337.94C1169.2 8378.41 1213.83 8417.13 1244.89 8470.16C1246.27 8472.5 1248.66 8474.81 1248.75 8477.21C1248.96 8482.05 1247.94 8486.9 1247.42 8491.78C1243.24 8489.5 1237.76 8488.1 1235.06 8484.64C1219.5 8464.59 1206.38 8442.36 1189.1 8423.91C1108.94 8338.2 960.324 8304.06 858.473 8346.51C751.425 8391.11 714.978 8496.3 771.868 8595.68C775.593 8602.22 786.264 8609.48 774.952 8617.03C773.241 8618.2 761.631 8609.06 758.041 8602.79C713.097 8524.4 721.976 8436.51 781.161 8378.1C825.863 8333.97 882.022 8315.9 943.994 8312.96C1004.3 8310.07 1060.53 8324.81 1087.7 8337.96" fill="#FFC200"/>
</g>
<g opacity="0.1">
<path d="M25.9083 7145.9L34.9425 7165.56L-6.74745 7183.99L4.63687 7140.51L25.9083 7145.9ZM2608.38 6004.23L2616.82 5984.33L2663.58 6003.49L2617.42 6023.9L2608.38 6004.23ZM689.659 4610.44L710.93 4615.83L47.1797 7151.29L25.9083 7145.9L4.63687 7140.51L668.387 4605.05L689.659 4610.44ZM25.9083 7145.9L16.8743 7126.23L2599.35 5984.57L2608.38 6004.23L2617.42 6023.9L34.9425 7165.56L25.9083 7145.9ZM2608.38 6004.23L2599.95 6024.14L1368.42 5519.51L1376.86 5499.61L1385.3 5479.71L2616.82 5984.33L2608.38 6004.23Z" fill="#EB1380"/>
<path d="M-953.021 6067.01L-957.788 6088.05L-1011.43 6076.28L-964.342 6048.51L-953.021 6067.01ZM738.244 5069.76L726.922 5051.26L750.512 5037.35L759.108 5063.04L738.244 5069.76ZM441.018 6372.87L436.25 6393.92L-957.788 6088.05L-953.021 6067.01L-948.254 6045.96L445.785 6351.83L441.018 6372.87ZM-953.021 6067.01L-964.342 6048.51L726.922 5051.26L738.244 5069.76L749.565 5088.25L-941.699 6085.5L-953.021 6067.01ZM738.244 5069.76L759.108 5063.04L1420.03 7038.17L1399.17 7044.89L1378.3 7051.6L717.379 5076.47L738.244 5069.76Z" fill="#EB1380"/>
</g>
<g opacity="0.1">
<path d="M1239.63 2748.66L1224.67 2764.33L1257.59 2795.04L1261.45 2750.7L1239.63 2748.66ZM-813.557 833.533L-815.02 811.938L-865.355 814.842L-828.518 849.202L-813.557 833.533ZM1466.54 140.318L1444.72 138.283L1217.81 2746.63L1239.63 2748.66L1261.45 2750.7L1488.36 142.354L1466.54 140.318ZM1239.63 2748.66L1254.59 2732.99L-798.596 817.864L-813.557 833.533L-828.518 849.202L1224.67 2764.33L1239.63 2748.66ZM-813.557 833.533L-812.094 855.129L520.115 778.27L518.651 756.674L517.188 735.078L-815.02 811.938L-813.557 833.533Z" fill="#EB1380"/>
<path d="M2526.72 2047.86L2524.36 2069.34L2578.6 2075.59L2543.47 2034.07L2526.72 2047.86ZM1266.09 558.08L1282.84 544.29L1265.28 523.547L1248.71 544.773L1266.09 558.08ZM1108.02 1884.42L1105.66 1905.9L2524.36 2069.34L2526.72 2047.86L2529.07 2026.37L1110.37 1862.93L1108.02 1884.42ZM2526.72 2047.86L2543.47 2034.07L1282.84 544.29L1266.09 558.08L1249.33 571.87L2509.96 2061.65L2526.72 2047.86ZM1266.09 558.08L1248.71 544.773L-39.8892 2194.62L-22.5099 2207.93L-5.13048 2221.24L1283.46 571.387L1266.09 558.08Z" fill="#EB1380"/>
<path d="M1540.12 2080.42C1541.93 2081.4 1542.86 2081.63 1542.9 2082.01C1549.51 2121.64 1574.41 2150.54 1601.76 2177.68C1626.51 2202.24 1654.57 2222.23 1688.25 2233.84C1690.03 2234.47 1691.8 2235.14 1693.59 2235.77C1708.41 2241.16 1720.08 2241.18 1732.46 2227.14C1751.41 2205.66 1776.25 2190.76 1805.69 2186.5C1816.68 2184.93 1828.7 2185.31 1839.38 2188.04C1855.1 2192.07 1860.59 2206.75 1850.96 2219.59C1844.5 2228.2 1834.88 2235.74 1825.06 2240.58C1796.16 2254.9 1764.77 2257.16 1733.09 2254.44C1725.52 2253.79 1721.47 2256.05 1717.63 2261.83C1706.37 2278.69 1698.31 2296.72 1693.56 2316.38C1686.2 2346.95 1695.11 2372.16 1717.94 2393.31C1753.75 2426.44 1795.85 2433.76 1842.49 2422.2C1894.29 2409.4 1935.92 2379.71 1974.9 2345.47C2011.5 2313.34 2043.44 2277.07 2074.24 2239.7C2076.27 2237.28 2080.6 2236.7 2083.84 2235.28C2083.69 2238.04 2084.57 2241.46 2083.17 2243.4C2042.41 2301.23 1994.78 2352.78 1935.93 2393.56C1900.14 2418.33 1861.24 2436.56 1816.87 2439.9C1761.93 2444.01 1719.01 2422.83 1689.52 2377.61C1671.96 2350.77 1677.3 2321.86 1687.58 2293.98C1692.91 2279.55 1701.05 2266.1 1707.5 2253.11C1691.11 2246.5 1673.71 2241.28 1658.12 2232.85C1610.33 2206.96 1573.56 2169.94 1548.56 2122.28C1543.57 2112.83 1541.82 2101.73 1539.18 2091.24C1538.4 2088.09 1539.74 2084.44 1540.14 2080.53M1732.88 2242.83C1768.06 2243.85 1800.06 2242.19 1829.21 2225.37C1833.72 2222.76 1837.75 2218.86 1840.99 2214.76C1846.71 2207.5 1844.79 2201.27 1836.18 2197.8C1833.05 2196.52 1829.4 2195.65 1826.03 2195.67C1788.05 2196.15 1759.82 2215.26 1732.91 2242.81" fill="#FFC200"/>
</g>
<g opacity="0.1">
<path d="M709.366 4715.86L724.326 4731.53L691.406 4762.24L687.549 4717.9L709.366 4715.86ZM2762.55 2800.73L2764.02 2779.14L2814.35 2782.04L2777.51 2816.4L2762.55 2800.73ZM482.457 2107.52L504.274 2105.48L731.183 4713.83L709.366 4715.86L687.549 4717.9L460.64 2109.56L482.457 2107.52ZM709.366 4715.86L694.405 4700.19L2747.59 2785.07L2762.55 2800.73L2777.51 2816.4L724.326 4731.53L709.366 4715.86ZM2762.55 2800.73L2761.09 2822.33L1428.88 2745.47L1430.34 2723.88L1431.81 2702.28L2764.02 2779.14L2762.55 2800.73Z" fill="#EB1380"/>
<path d="M-577.718 4015.06L-575.366 4036.55L-629.607 4042.79L-594.468 4001.27L-577.718 4015.06ZM682.913 2525.28L666.162 2511.49L683.714 2490.75L700.292 2511.97L682.913 2525.28ZM840.982 3851.62L843.334 3873.11L-575.366 4036.55L-577.718 4015.06L-580.07 3993.57L838.63 3830.13L840.982 3851.62ZM-577.718 4015.06L-594.468 4001.27L666.162 2511.49L682.913 2525.28L699.664 2539.07L-560.967 4028.85L-577.718 4015.06ZM682.913 2525.28L700.292 2511.97L1988.89 4161.83L1971.51 4175.13L1954.13 4188.44L665.534 2538.59L682.913 2525.28Z" fill="#EB1380"/>
<path d="M408.876 4047.63C407.071 4048.6 406.14 4048.84 406.103 4049.21C399.491 4088.84 374.59 4117.74 347.233 4144.88C322.487 4169.44 294.426 4189.43 260.75 4201.04C258.966 4201.67 257.196 4202.34 255.412 4202.97C240.587 4208.36 228.923 4208.38 216.535 4194.34C197.591 4172.86 172.751 4157.96 143.303 4153.7C132.316 4152.13 120.295 4152.52 109.618 4155.24C93.8996 4159.27 88.4065 4173.95 98.0423 4186.79C104.503 4195.4 114.114 4202.94 123.937 4207.78C152.833 4222.1 184.228 4224.36 215.913 4221.64C223.473 4220.99 227.523 4223.25 231.366 4229.03C242.627 4245.89 250.69 4263.92 255.434 4283.58C262.799 4314.15 253.885 4339.36 231.057 4360.51C195.251 4393.64 153.152 4400.96 106.506 4389.4C54.7094 4376.6 13.0751 4346.92 -25.9059 4312.67C-62.4993 4280.54 -94.445 4244.28 -125.24 4206.9C-127.271 4204.48 -131.6 4203.9 -134.845 4202.48C-134.69 4205.24 -135.568 4208.66 -134.17 4210.6C-93.4093 4268.43 -45.7805 4319.98 13.0653 4360.76C48.8613 4385.53 87.7533 4403.76 132.125 4407.1C187.063 4411.21 229.988 4390.03 259.476 4344.81C277.036 4317.97 271.697 4289.06 261.415 4261.18C256.088 4246.75 247.949 4233.3 241.499 4220.31C257.892 4213.7 275.29 4208.48 290.876 4200.05C338.664 4174.16 375.434 4137.15 400.442 4089.49C405.433 4080.03 407.182 4068.93 409.819 4058.44C410.597 4055.29 409.254 4051.64 408.859 4047.74M216.116 4210.03C180.934 4211.05 148.94 4209.39 119.789 4192.57C115.28 4189.96 111.252 4186.06 108.011 4181.96C102.285 4174.71 104.208 4168.47 112.815 4165C115.952 4163.72 119.596 4162.85 122.972 4162.87C160.95 4163.36 189.174 4182.46 216.085 4210.01" fill="#FFC200"/>
</g>
</svg>
